M48
; DRILL file {KiCad (5.1.2-1)-1} date вторник, 17 августа 2021 г., 23:27:50
; FORMAT={3:3/ absolute / metric / keep zeros}
; #@! TF.CreationDate,2021-08-17T23:27:50+03:00
; #@! TF.GenerationSoftware,Kicad,Pcbnew,(5.1.2-1)-1
; #@! TF.FileFunction,Plated,1,4,PTH
FMAT,2
METRIC
T1C0.400
T2C1.000
T3C1.200
T4C3.400
%
G90
G05
T1
X078250Y-077250
X078500Y-072750
X079250Y-068750
X080750Y-070250
X082000Y-063750
X082750Y-074500
X083000Y-064000
X083250Y-061250
X085000Y-084500
X085250Y-078750
X085500Y-074500
X085500Y-081500
X085500Y-088500
X086250Y-058250
X086750Y-069500
X088750Y-077750
X088979Y-076506
X089750Y-056000
X089750Y-085500
X089750Y-086750
X089763Y-077737
X090500Y-065250
X092250Y-060750
X093250Y-068250
X094500Y-055500
X094500Y-086250
X094750Y-054250
X094750Y-077750
X095000Y-088000
X095500Y-064750
X095500Y-068250
X095500Y-085000
X095750Y-073000
X095750Y-074000
X095750Y-075000
X095750Y-076500
X095750Y-080500
X096000Y-053500
X096000Y-086500
X096250Y-088000
X096750Y-085000
X097000Y-054250
X097250Y-076500
X097500Y-064750
X097500Y-068250
X098000Y-085000
X099000Y-076500
X099500Y-066500
X099500Y-068250
X100000Y-085000
X100250Y-060000
X100500Y-065500
X100750Y-066500
X100750Y-076500
X102250Y-080250
X103250Y-055500
X104250Y-073000
X104250Y-074000
X104250Y-075000
X104500Y-062000
X104750Y-060000
X105000Y-078000
X106000Y-054000
X106475Y-077000
X106500Y-064000
X106500Y-066500
X106500Y-078250
X109750Y-057250
X110000Y-071490
X110250Y-085750
X110500Y-058250
X110750Y-056500
X112250Y-063000
X113250Y-057750
X114500Y-067250
X114750Y-063500
X115000Y-079500
X116250Y-085250
X117000Y-061500
X117750Y-070275
X118750Y-064500
X119250Y-071000
X120750Y-069750
X121500Y-071750
X122000Y-078000
T2
X114210Y-072710
X114210Y-075250
X116750Y-072710
X116750Y-075250
X080710Y-078000
X080710Y-080540
X080710Y-083080
X083250Y-078000
X083250Y-080540
X083250Y-083080
T3
X113000Y-079500
X085750Y-076250
T4
X097000Y-059250
X118750Y-082500
T0
M30
