M48
; DRILL file {KiCad (5.1.4)-1} date 03.06.2021 23:42:06
; FORMAT={3:3/ absolute / metric / keep zeros}
; #@! TF.CreationDate,2021-06-03T23:42:06+03:00
; #@! TF.GenerationSoftware,Kicad,Pcbnew,(5.1.4)-1
; #@! TF.FileFunction,Plated,1,4,PTH
FMAT,2
METRIC
T1C0.400
T2C1.000
T3C1.200
T4C3.400
%
G90
G05
T1
X078500Y-072750
X078500Y-077250
X079250Y-068750
X080750Y-070250
X082000Y-063750
X082750Y-074500
X083000Y-064000
X083250Y-061250
X085250Y-078750
X085250Y-083830
X085500Y-074500
X085500Y-081000
X085500Y-088500
X086250Y-058250
X086750Y-069500
X088750Y-077750
X089750Y-056000
X089750Y-085500
X089750Y-086750
X089763Y-077737
X090500Y-065250
X092250Y-060750
X093250Y-068250
X094000Y-080000
X094500Y-055500
X094750Y-054250
X096000Y-086750
X097250Y-076500
X097250Y-084500
X097750Y-053500
X097750Y-087000
X099000Y-076500
X099000Y-084500
X099500Y-068000
X100250Y-060000
X100750Y-068000
X100750Y-076500
X100750Y-084500
X101500Y-086500
X102250Y-053500
X102250Y-055000
X104500Y-062000
X104750Y-060000
X106000Y-054000
X106000Y-080000
X106000Y-087750
X106475Y-077000
X106500Y-064000
X106500Y-078250
X109750Y-057250
X110000Y-071490
X110250Y-074500
X110500Y-058250
X110750Y-056500
X110750Y-067750
X111250Y-074500
X111250Y-082750
X111787Y-077750
X112250Y-063000
X112750Y-081500
X112750Y-084000
X113250Y-057750
X114500Y-067250
X114750Y-063500
X117000Y-061500
X117750Y-070275
X118750Y-064500
X119250Y-071000
X120750Y-069750
X121500Y-071750
X122000Y-078000
T2
X080710Y-078000
X080710Y-080540
X080710Y-083080
X083250Y-078000
X083250Y-080540
X083250Y-083080
X114500Y-072920
X114500Y-075460
X114500Y-078000
X117040Y-072920
X117040Y-075460
X117040Y-078000
T3
X120250Y-078750
X085750Y-076250
T4
X118750Y-082500
X097000Y-059250
T0
M30
