G04 #@! TF.GenerationSoftware,KiCad,Pcbnew,(5.1.2-1)-1*
G04 #@! TF.CreationDate,2021-08-17T23:27:44+03:00*
G04 #@! TF.ProjectId,ITC-1,4954432d-312e-46b6-9963-61645f706362,rev?*
G04 #@! TF.SameCoordinates,Original*
G04 #@! TF.FileFunction,Legend,Bot*
G04 #@! TF.FilePolarity,Positive*
%FSLAX46Y46*%
G04 Gerber Fmt 4.6, Leading zero omitted, Abs format (unit mm)*
G04 Created by KiCad (PCBNEW (5.1.2-1)-1) date 2021-08-17 23:27:44*
%MOMM*%
%LPD*%
G04 APERTURE LIST*
%ADD10C,0.150000*%
%ADD11C,0.250000*%
%ADD12C,0.120000*%
G04 APERTURE END LIST*
D10*
X89342857Y-87700000D02*
X89400000Y-87671428D01*
X89485714Y-87671428D01*
X89571428Y-87700000D01*
X89628571Y-87757142D01*
X89657142Y-87814285D01*
X89685714Y-87928571D01*
X89685714Y-88014285D01*
X89657142Y-88128571D01*
X89628571Y-88185714D01*
X89571428Y-88242857D01*
X89485714Y-88271428D01*
X89428571Y-88271428D01*
X89342857Y-88242857D01*
X89314285Y-88214285D01*
X89314285Y-88014285D01*
X89428571Y-88014285D01*
X89314285Y-85771428D02*
X89514285Y-85485714D01*
X89657142Y-85771428D02*
X89657142Y-85171428D01*
X89428571Y-85171428D01*
X89371428Y-85200000D01*
X89342857Y-85228571D01*
X89314285Y-85285714D01*
X89314285Y-85371428D01*
X89342857Y-85428571D01*
X89371428Y-85457142D01*
X89428571Y-85485714D01*
X89657142Y-85485714D01*
X85492857Y-78271428D02*
X85778571Y-78271428D01*
X85778571Y-77671428D01*
X85292857Y-78271428D02*
X85292857Y-77671428D01*
X84692857Y-78271428D02*
X85035714Y-78271428D01*
X84864285Y-78271428D02*
X84864285Y-77671428D01*
X84921428Y-77757142D01*
X84978571Y-77814285D01*
X85035714Y-77842857D01*
X78992857Y-78521428D02*
X79278571Y-78521428D01*
X79278571Y-77921428D01*
X78792857Y-78521428D02*
X78792857Y-77921428D01*
X78535714Y-77978571D02*
X78507142Y-77950000D01*
X78450000Y-77921428D01*
X78307142Y-77921428D01*
X78250000Y-77950000D01*
X78221428Y-77978571D01*
X78192857Y-78035714D01*
X78192857Y-78092857D01*
X78221428Y-78178571D01*
X78564285Y-78521428D01*
X78192857Y-78521428D01*
X78992857Y-80771428D02*
X79278571Y-80771428D01*
X79278571Y-80171428D01*
X78792857Y-80771428D02*
X78792857Y-80171428D01*
X78250000Y-80371428D02*
X78250000Y-80771428D01*
X78392857Y-80142857D02*
X78535714Y-80571428D01*
X78164285Y-80571428D01*
X81207142Y-84700000D02*
X81264285Y-84671428D01*
X81350000Y-84671428D01*
X81435714Y-84700000D01*
X81492857Y-84757142D01*
X81521428Y-84814285D01*
X81550000Y-84928571D01*
X81550000Y-85014285D01*
X81521428Y-85128571D01*
X81492857Y-85185714D01*
X81435714Y-85242857D01*
X81350000Y-85271428D01*
X81292857Y-85271428D01*
X81207142Y-85242857D01*
X81178571Y-85214285D01*
X81178571Y-85014285D01*
X81292857Y-85014285D01*
X80921428Y-85271428D02*
X80921428Y-84671428D01*
X80578571Y-85271428D01*
X80578571Y-84671428D01*
X80292857Y-85271428D02*
X80292857Y-84671428D01*
X80150000Y-84671428D01*
X80064285Y-84700000D01*
X80007142Y-84757142D01*
X79978571Y-84814285D01*
X79950000Y-84928571D01*
X79950000Y-85014285D01*
X79978571Y-85128571D01*
X80007142Y-85185714D01*
X80064285Y-85242857D01*
X80150000Y-85271428D01*
X80292857Y-85271428D01*
X83707142Y-84700000D02*
X83764285Y-84671428D01*
X83850000Y-84671428D01*
X83935714Y-84700000D01*
X83992857Y-84757142D01*
X84021428Y-84814285D01*
X84050000Y-84928571D01*
X84050000Y-85014285D01*
X84021428Y-85128571D01*
X83992857Y-85185714D01*
X83935714Y-85242857D01*
X83850000Y-85271428D01*
X83792857Y-85271428D01*
X83707142Y-85242857D01*
X83678571Y-85214285D01*
X83678571Y-85014285D01*
X83792857Y-85014285D01*
X83421428Y-85271428D02*
X83421428Y-84671428D01*
X83078571Y-85271428D01*
X83078571Y-84671428D01*
X82792857Y-85271428D02*
X82792857Y-84671428D01*
X82650000Y-84671428D01*
X82564285Y-84700000D01*
X82507142Y-84757142D01*
X82478571Y-84814285D01*
X82450000Y-84928571D01*
X82450000Y-85014285D01*
X82478571Y-85128571D01*
X82507142Y-85185714D01*
X82564285Y-85242857D01*
X82650000Y-85271428D01*
X82792857Y-85271428D01*
X85492857Y-81021428D02*
X85778571Y-81021428D01*
X85778571Y-80421428D01*
X85292857Y-81021428D02*
X85292857Y-80421428D01*
X85064285Y-80421428D02*
X84692857Y-80421428D01*
X84892857Y-80650000D01*
X84807142Y-80650000D01*
X84750000Y-80678571D01*
X84721428Y-80707142D01*
X84692857Y-80764285D01*
X84692857Y-80907142D01*
X84721428Y-80964285D01*
X84750000Y-80992857D01*
X84807142Y-81021428D01*
X84978571Y-81021428D01*
X85035714Y-80992857D01*
X85064285Y-80964285D01*
X119864285Y-75521428D02*
X119864285Y-74921428D01*
X119721428Y-74921428D01*
X119635714Y-74950000D01*
X119578571Y-75007142D01*
X119550000Y-75064285D01*
X119521428Y-75178571D01*
X119521428Y-75264285D01*
X119550000Y-75378571D01*
X119578571Y-75435714D01*
X119635714Y-75492857D01*
X119721428Y-75521428D01*
X119864285Y-75521428D01*
X119264285Y-75521428D02*
X119264285Y-74921428D01*
X118978571Y-75521428D02*
X118978571Y-74921428D01*
X118635714Y-75521428D01*
X118635714Y-74921428D01*
X112614285Y-75521428D02*
X112614285Y-74921428D01*
X112414285Y-75350000D01*
X112214285Y-74921428D01*
X112214285Y-75521428D01*
X111614285Y-74950000D02*
X111671428Y-74921428D01*
X111757142Y-74921428D01*
X111842857Y-74950000D01*
X111900000Y-75007142D01*
X111928571Y-75064285D01*
X111957142Y-75178571D01*
X111957142Y-75264285D01*
X111928571Y-75378571D01*
X111900000Y-75435714D01*
X111842857Y-75492857D01*
X111757142Y-75521428D01*
X111700000Y-75521428D01*
X111614285Y-75492857D01*
X111585714Y-75464285D01*
X111585714Y-75264285D01*
X111700000Y-75264285D01*
X111328571Y-75521428D02*
X111328571Y-74921428D01*
X110985714Y-75521428D01*
X110985714Y-74921428D01*
X110700000Y-75521428D02*
X110700000Y-74921428D01*
X110557142Y-74921428D01*
X110471428Y-74950000D01*
X110414285Y-75007142D01*
X110385714Y-75064285D01*
X110357142Y-75178571D01*
X110357142Y-75264285D01*
X110385714Y-75378571D01*
X110414285Y-75435714D01*
X110471428Y-75492857D01*
X110557142Y-75521428D01*
X110700000Y-75521428D01*
X112614285Y-73021428D02*
X112614285Y-72421428D01*
X112414285Y-72850000D01*
X112214285Y-72421428D01*
X112214285Y-73021428D01*
X111614285Y-72450000D02*
X111671428Y-72421428D01*
X111757142Y-72421428D01*
X111842857Y-72450000D01*
X111900000Y-72507142D01*
X111928571Y-72564285D01*
X111957142Y-72678571D01*
X111957142Y-72764285D01*
X111928571Y-72878571D01*
X111900000Y-72935714D01*
X111842857Y-72992857D01*
X111757142Y-73021428D01*
X111700000Y-73021428D01*
X111614285Y-72992857D01*
X111585714Y-72964285D01*
X111585714Y-72764285D01*
X111700000Y-72764285D01*
X111328571Y-73021428D02*
X111328571Y-72421428D01*
X110985714Y-73021428D01*
X110985714Y-72421428D01*
X110700000Y-73021428D02*
X110700000Y-72421428D01*
X110557142Y-72421428D01*
X110471428Y-72450000D01*
X110414285Y-72507142D01*
X110385714Y-72564285D01*
X110357142Y-72678571D01*
X110357142Y-72764285D01*
X110385714Y-72878571D01*
X110414285Y-72935714D01*
X110471428Y-72992857D01*
X110557142Y-73021428D01*
X110700000Y-73021428D01*
X115207142Y-87450000D02*
X115264285Y-87421428D01*
X115350000Y-87421428D01*
X115435714Y-87450000D01*
X115492857Y-87507142D01*
X115521428Y-87564285D01*
X115550000Y-87678571D01*
X115550000Y-87764285D01*
X115521428Y-87878571D01*
X115492857Y-87935714D01*
X115435714Y-87992857D01*
X115350000Y-88021428D01*
X115292857Y-88021428D01*
X115207142Y-87992857D01*
X115178571Y-87964285D01*
X115178571Y-87764285D01*
X115292857Y-87764285D01*
X114921428Y-88021428D02*
X114921428Y-87421428D01*
X114578571Y-88021428D01*
X114578571Y-87421428D01*
X114292857Y-88021428D02*
X114292857Y-87421428D01*
X114150000Y-87421428D01*
X114064285Y-87450000D01*
X114007142Y-87507142D01*
X113978571Y-87564285D01*
X113950000Y-87678571D01*
X113950000Y-87764285D01*
X113978571Y-87878571D01*
X114007142Y-87935714D01*
X114064285Y-87992857D01*
X114150000Y-88021428D01*
X114292857Y-88021428D01*
X115207142Y-84921428D02*
X114864285Y-84921428D01*
X115035714Y-85521428D02*
X115035714Y-84921428D01*
X114721428Y-84921428D02*
X114321428Y-85521428D01*
X114321428Y-84921428D02*
X114721428Y-85521428D01*
X114850000Y-83021428D02*
X115050000Y-82735714D01*
X115192857Y-83021428D02*
X115192857Y-82421428D01*
X114964285Y-82421428D01*
X114907142Y-82450000D01*
X114878571Y-82478571D01*
X114850000Y-82535714D01*
X114850000Y-82621428D01*
X114878571Y-82678571D01*
X114907142Y-82707142D01*
X114964285Y-82735714D01*
X115192857Y-82735714D01*
X114650000Y-82421428D02*
X114250000Y-83021428D01*
X114250000Y-82421428D02*
X114650000Y-83021428D01*
X99564285Y-63957142D02*
X99478571Y-63985714D01*
X99450000Y-64014285D01*
X99421428Y-64071428D01*
X99421428Y-64157142D01*
X99450000Y-64214285D01*
X99478571Y-64242857D01*
X99535714Y-64271428D01*
X99764285Y-64271428D01*
X99764285Y-63671428D01*
X99564285Y-63671428D01*
X99507142Y-63700000D01*
X99478571Y-63728571D01*
X99450000Y-63785714D01*
X99450000Y-63842857D01*
X99478571Y-63900000D01*
X99507142Y-63928571D01*
X99564285Y-63957142D01*
X99764285Y-63957142D01*
X99050000Y-63671428D02*
X98935714Y-63671428D01*
X98878571Y-63700000D01*
X98821428Y-63757142D01*
X98792857Y-63871428D01*
X98792857Y-64071428D01*
X98821428Y-64185714D01*
X98878571Y-64242857D01*
X98935714Y-64271428D01*
X99050000Y-64271428D01*
X99107142Y-64242857D01*
X99164285Y-64185714D01*
X99192857Y-64071428D01*
X99192857Y-63871428D01*
X99164285Y-63757142D01*
X99107142Y-63700000D01*
X99050000Y-63671428D01*
X98421428Y-63671428D02*
X98307142Y-63671428D01*
X98250000Y-63700000D01*
X98192857Y-63757142D01*
X98164285Y-63871428D01*
X98164285Y-64071428D01*
X98192857Y-64185714D01*
X98250000Y-64242857D01*
X98307142Y-64271428D01*
X98421428Y-64271428D01*
X98478571Y-64242857D01*
X98535714Y-64185714D01*
X98564285Y-64071428D01*
X98564285Y-63871428D01*
X98535714Y-63757142D01*
X98478571Y-63700000D01*
X98421428Y-63671428D01*
X97992857Y-63671428D02*
X97650000Y-63671428D01*
X97821428Y-64271428D02*
X97821428Y-63671428D01*
D11*
X90499999Y-71250000D02*
X90999999Y-71750000D01*
X90999999Y-71250000D02*
X90499999Y-71750000D01*
X103349999Y-69500000D02*
X102849999Y-70000000D01*
X102079999Y-69500000D02*
X101579999Y-70000000D01*
X100809999Y-69500000D02*
X100309999Y-70000000D01*
X99539999Y-69500000D02*
X99039999Y-70000000D01*
X98269999Y-69500000D02*
X97769999Y-70000000D01*
X102849999Y-69500000D02*
X103349999Y-70000000D01*
X101579999Y-69500000D02*
X102079999Y-70000000D01*
X100309999Y-69500000D02*
X100809999Y-70000000D01*
X99039999Y-69500000D02*
X99539999Y-70000000D01*
X97769999Y-69500000D02*
X98269999Y-70000000D01*
X96999999Y-69500000D02*
X96499999Y-70000000D01*
X96499999Y-69500000D02*
X96999999Y-70000000D01*
D10*
X90749999Y-95750000D02*
X90749999Y-95250000D01*
X90749999Y-95750000D02*
X91249999Y-95750000D01*
X109249999Y-95750000D02*
X108749999Y-95750000D01*
X109249999Y-95750000D02*
X109249999Y-95250000D01*
X91499999Y-89000000D02*
X108499999Y-89000000D01*
X96499999Y-92250000D02*
X97499999Y-92250000D01*
X97499999Y-92250000D02*
X97499999Y-92750000D01*
X97499999Y-92750000D02*
X97999999Y-92750000D01*
X97999999Y-92750000D02*
X97999999Y-91750000D01*
X97999999Y-91750000D02*
X98499999Y-91750000D01*
X98499999Y-91750000D02*
X98499999Y-92750000D01*
X98499999Y-92750000D02*
X98999999Y-92750000D01*
X98999999Y-92750000D02*
X98999999Y-91750000D01*
X98999999Y-91750000D02*
X99499999Y-91750000D01*
X99499999Y-91750000D02*
X99499999Y-92750000D01*
X99499999Y-92750000D02*
X99999999Y-92750000D01*
X99999999Y-92750000D02*
X99999999Y-91750000D01*
X100499998Y-93749999D02*
G75*
G03X100499998Y-90750001I-1499999J1499999D01*
G01*
X100999998Y-94249999D02*
G75*
G03X100999998Y-90250001I-1999999J1999999D01*
G01*
X101499998Y-94749999D02*
G75*
G03X101499998Y-89750001I-2499999J2499999D01*
G01*
X101999998Y-95249999D02*
G75*
G03X101999998Y-89250001I-2999999J2999999D01*
G01*
X90699999Y-69750000D02*
X90699999Y-70250000D01*
X90699999Y-69750000D02*
X91199999Y-69750000D01*
X109199999Y-69750000D02*
X109199999Y-70250000D01*
X109199999Y-69750000D02*
X108699999Y-69750000D01*
X113425000Y-81600000D02*
X112925000Y-81600000D01*
X113425000Y-83400000D02*
X112925000Y-83400000D01*
X113425000Y-83400000D02*
X113425000Y-81600000D01*
X110625000Y-81600000D02*
X111125000Y-81600000D01*
X110625000Y-83400000D02*
X110625000Y-81600000D01*
X110625000Y-83400000D02*
X111125000Y-83400000D01*
D12*
X115650000Y-88400000D02*
X115650000Y-88650000D01*
X115400000Y-88400000D02*
X115650000Y-88400000D01*
X115650000Y-89600000D02*
X115650000Y-89350000D01*
X115400000Y-89600000D02*
X115650000Y-89600000D01*
X113850000Y-88400000D02*
X114100000Y-88400000D01*
X113850000Y-88650000D02*
X113850000Y-88400000D01*
X113850000Y-89600000D02*
X114100000Y-89600000D01*
X113850000Y-89350000D02*
X113850000Y-89600000D01*
X115650000Y-85900000D02*
X115650000Y-86150000D01*
X115400000Y-85900000D02*
X115650000Y-85900000D01*
X115650000Y-87100000D02*
X115650000Y-86850000D01*
X115400000Y-87100000D02*
X115650000Y-87100000D01*
X113850000Y-85900000D02*
X114100000Y-85900000D01*
X113850000Y-86150000D02*
X113850000Y-85900000D01*
X113850000Y-87100000D02*
X114100000Y-87100000D01*
X113850000Y-86850000D02*
X113850000Y-87100000D01*
X115650000Y-83400000D02*
X115650000Y-83650000D01*
X115400000Y-83400000D02*
X115650000Y-83400000D01*
X115650000Y-84600000D02*
X115650000Y-84350000D01*
X115400000Y-84600000D02*
X115650000Y-84600000D01*
X113850000Y-83400000D02*
X114100000Y-83400000D01*
X113850000Y-83650000D02*
X113850000Y-83400000D01*
X113850000Y-84600000D02*
X114100000Y-84600000D01*
X113850000Y-84350000D02*
X113850000Y-84600000D01*
D10*
X112790000Y-71350000D02*
X113540000Y-71350000D01*
X112790000Y-76650000D02*
X113540000Y-76650000D01*
X118150000Y-76650000D02*
X117400000Y-76650000D01*
X118150000Y-71350000D02*
X118150000Y-72100000D01*
X118150000Y-71350000D02*
X117400000Y-71350000D01*
X112790000Y-75900000D02*
X112790000Y-76650000D01*
X112790000Y-72100000D02*
X112790000Y-71350000D01*
X118150000Y-75900000D02*
X118150000Y-76650000D01*
X96250000Y-68500000D02*
X97250000Y-68500000D01*
X96250000Y-68000000D02*
X96250000Y-68500000D01*
X103250000Y-68500000D02*
X102250000Y-68500000D01*
X103250000Y-68000000D02*
X103250000Y-68500000D01*
X96250000Y-64500000D02*
X97250000Y-64500000D01*
X96250000Y-65000000D02*
X96250000Y-64500000D01*
X103250000Y-64500000D02*
X102250000Y-64500000D01*
X103250000Y-65000000D02*
X103250000Y-64500000D01*
X87650000Y-69175000D02*
X87650000Y-68675000D01*
X85850000Y-69175000D02*
X85850000Y-68675000D01*
X85850000Y-69175000D02*
X87650000Y-69175000D01*
X87650000Y-66375000D02*
X87650000Y-66875000D01*
X85850000Y-66375000D02*
X87650000Y-66375000D01*
X85850000Y-66375000D02*
X85850000Y-66875000D01*
X100575002Y-61900000D02*
X101075002Y-61900000D01*
X100575002Y-60100000D02*
X101075002Y-60100000D01*
X100575002Y-60100000D02*
X100575002Y-61900000D01*
X103375002Y-61900000D02*
X102875002Y-61900000D01*
X103375002Y-60100000D02*
X103375002Y-61900000D01*
X103375002Y-60100000D02*
X102875002Y-60100000D01*
X103580000Y-57240000D02*
X103580000Y-58700000D01*
X100420000Y-57240000D02*
X100420000Y-58700000D01*
X103580000Y-57240000D02*
X102650000Y-57240000D01*
X100420000Y-57240000D02*
X101350000Y-57240000D01*
X91400000Y-64925000D02*
X91400000Y-64425000D01*
X89600000Y-64925000D02*
X89600000Y-64425000D01*
X89600000Y-64925000D02*
X91400000Y-64925000D01*
X91400000Y-62125000D02*
X91400000Y-62625000D01*
X89600000Y-62125000D02*
X91400000Y-62125000D01*
X89600000Y-62125000D02*
X89600000Y-62625000D01*
X93150000Y-60425000D02*
X93150000Y-59925000D01*
X91350000Y-60425000D02*
X91350000Y-59925000D01*
X91350000Y-60425000D02*
X93150000Y-60425000D01*
X93150000Y-57625000D02*
X93150000Y-58125000D01*
X91350000Y-57625000D02*
X93150000Y-57625000D01*
X91350000Y-57625000D02*
X91350000Y-58125000D01*
X79850000Y-66325000D02*
X79850000Y-66825000D01*
X81650000Y-66325000D02*
X81650000Y-66825000D01*
X81650000Y-66325000D02*
X79850000Y-66325000D01*
X79850000Y-69125000D02*
X79850000Y-68625000D01*
X81650000Y-69125000D02*
X79850000Y-69125000D01*
X81650000Y-69125000D02*
X81650000Y-68625000D01*
X78850000Y-71325000D02*
X78850000Y-71825000D01*
X80650000Y-71325000D02*
X80650000Y-71825000D01*
X80650000Y-71325000D02*
X78850000Y-71325000D01*
X78850000Y-74125000D02*
X78850000Y-73625000D01*
X80650000Y-74125000D02*
X78850000Y-74125000D01*
X80650000Y-74125000D02*
X80650000Y-73625000D01*
X117010000Y-70830000D02*
X115550000Y-70830000D01*
X117010000Y-67670000D02*
X115550000Y-67670000D01*
X117010000Y-70830000D02*
X117010000Y-69900000D01*
X117010000Y-67670000D02*
X117010000Y-68600000D01*
X108080000Y-57240000D02*
X108080000Y-58700000D01*
X104920000Y-57240000D02*
X104920000Y-58700000D01*
X108080000Y-57240000D02*
X107150000Y-57240000D01*
X104920000Y-57240000D02*
X105850000Y-57240000D01*
X105075000Y-61900000D02*
X105575000Y-61900000D01*
X105075000Y-60100000D02*
X105575000Y-60100000D01*
X105075000Y-60100000D02*
X105075000Y-61900000D01*
X107875000Y-61900000D02*
X107375000Y-61900000D01*
X107875000Y-60100000D02*
X107875000Y-61900000D01*
X107875000Y-60100000D02*
X107375000Y-60100000D01*
X86650000Y-74175000D02*
X86650000Y-73675000D01*
X84850000Y-74175000D02*
X84850000Y-73675000D01*
X84850000Y-74175000D02*
X86650000Y-74175000D01*
X86650000Y-71375000D02*
X86650000Y-71875000D01*
X84850000Y-71375000D02*
X86650000Y-71375000D01*
X84850000Y-71375000D02*
X84850000Y-71875000D01*
X115260000Y-66580000D02*
X113800000Y-66580000D01*
X115260000Y-63420000D02*
X113800000Y-63420000D01*
X115260000Y-66580000D02*
X115260000Y-65650000D01*
X115260000Y-63420000D02*
X115260000Y-64350000D01*
X108600000Y-59325000D02*
X108600000Y-59825000D01*
X110400000Y-59325000D02*
X110400000Y-59825000D01*
X110400000Y-59325000D02*
X108600000Y-59325000D01*
X108600000Y-62125000D02*
X108600000Y-61625000D01*
X110400000Y-62125000D02*
X108600000Y-62125000D01*
X110400000Y-62125000D02*
X110400000Y-61625000D01*
X113260000Y-62330000D02*
X111800000Y-62330000D01*
X113260000Y-59170000D02*
X111800000Y-59170000D01*
X113260000Y-62330000D02*
X113260000Y-61400000D01*
X113260000Y-59170000D02*
X113260000Y-60100000D01*
X91075000Y-56400000D02*
X91575000Y-56400000D01*
X91075000Y-54600000D02*
X91575000Y-54600000D01*
X91075000Y-54600000D02*
X91075000Y-56400000D01*
X93875000Y-56400000D02*
X93375000Y-56400000D01*
X93875000Y-54600000D02*
X93875000Y-56400000D01*
X93875000Y-54600000D02*
X93375000Y-54600000D01*
X112350000Y-67825000D02*
X112350000Y-68325000D01*
X114150000Y-67825000D02*
X114150000Y-68325000D01*
X114150000Y-67825000D02*
X112350000Y-67825000D01*
X112350000Y-70625000D02*
X112350000Y-70125000D01*
X114150000Y-70625000D02*
X112350000Y-70625000D01*
X114150000Y-70625000D02*
X114150000Y-70125000D01*
X88925000Y-86600000D02*
X88425000Y-86600000D01*
X88925000Y-88400000D02*
X88425000Y-88400000D01*
X88925000Y-88400000D02*
X88925000Y-86600000D01*
X86125000Y-86600000D02*
X86625000Y-86600000D01*
X86125000Y-88400000D02*
X86125000Y-86600000D01*
X86125000Y-88400000D02*
X86625000Y-88400000D01*
X85400000Y-64925000D02*
X85400000Y-64425000D01*
X83600000Y-64925000D02*
X83600000Y-64425000D01*
X83600000Y-64925000D02*
X85400000Y-64925000D01*
X85400000Y-62125000D02*
X85400000Y-62625000D01*
X83600000Y-62125000D02*
X85400000Y-62125000D01*
X83600000Y-62125000D02*
X83600000Y-62625000D01*
X104825000Y-56150000D02*
X105325000Y-56150000D01*
X104825000Y-54350000D02*
X105325000Y-54350000D01*
X104825000Y-54350000D02*
X104825000Y-56150000D01*
X107625000Y-56150000D02*
X107125000Y-56150000D01*
X107625000Y-54350000D02*
X107625000Y-56150000D01*
X107625000Y-54350000D02*
X107125000Y-54350000D01*
X110600000Y-63575000D02*
X110600000Y-64075000D01*
X112400000Y-63575000D02*
X112400000Y-64075000D01*
X112400000Y-63575000D02*
X110600000Y-63575000D01*
X110600000Y-66375000D02*
X110600000Y-65875000D01*
X112400000Y-66375000D02*
X110600000Y-66375000D01*
X112400000Y-66375000D02*
X112400000Y-65875000D01*
X114350000Y-59200000D02*
X114350000Y-59700000D01*
X116150000Y-59200000D02*
X116150000Y-59700000D01*
X116150000Y-59200000D02*
X114350000Y-59200000D01*
X114350000Y-62000000D02*
X114350000Y-61500000D01*
X116150000Y-62000000D02*
X114350000Y-62000000D01*
X116150000Y-62000000D02*
X116150000Y-61500000D01*
X118350000Y-67825000D02*
X118350000Y-68325000D01*
X120150000Y-67825000D02*
X120150000Y-68325000D01*
X120150000Y-67825000D02*
X118350000Y-67825000D01*
X118350000Y-70625000D02*
X118350000Y-70125000D01*
X120150000Y-70625000D02*
X118350000Y-70625000D01*
X120150000Y-70625000D02*
X120150000Y-70125000D01*
X116600000Y-63075000D02*
X116600000Y-63575000D01*
X118400000Y-63075000D02*
X118400000Y-63575000D01*
X118400000Y-63075000D02*
X116600000Y-63075000D01*
X116600000Y-65875000D02*
X116600000Y-65375000D01*
X118400000Y-65875000D02*
X116600000Y-65875000D01*
X118400000Y-65875000D02*
X118400000Y-65375000D01*
X79350000Y-84500000D02*
X79350000Y-83750000D01*
X84650000Y-84500000D02*
X84650000Y-83750000D01*
X84650000Y-76600000D02*
X84650000Y-77350000D01*
X79350000Y-76600000D02*
X80100000Y-76600000D01*
X79350000Y-76600000D02*
X79350000Y-77350000D01*
X83900000Y-84500000D02*
X84650000Y-84500000D01*
X80100000Y-84500000D02*
X79350000Y-84500000D01*
X83900000Y-76600000D02*
X84650000Y-76600000D01*
X98075000Y-55900000D02*
X98575000Y-55900000D01*
X98075000Y-54100000D02*
X98575000Y-54100000D01*
X98075000Y-54100000D02*
X98075000Y-55900000D01*
X100875000Y-55900000D02*
X100375000Y-55900000D01*
X100875000Y-54100000D02*
X100875000Y-55900000D01*
X100875000Y-54100000D02*
X100375000Y-54100000D01*
X82075000Y-88400000D02*
X82575000Y-88400000D01*
X82075000Y-86600000D02*
X82575000Y-86600000D01*
X82075000Y-86600000D02*
X82075000Y-88400000D01*
X84875000Y-88400000D02*
X84375000Y-88400000D01*
X84875000Y-86600000D02*
X84875000Y-88400000D01*
X84875000Y-86600000D02*
X84375000Y-86600000D01*
X88490000Y-57420000D02*
X89950000Y-57420000D01*
X88490000Y-60580000D02*
X89950000Y-60580000D01*
X88490000Y-57420000D02*
X88490000Y-58350000D01*
X88490000Y-60580000D02*
X88490000Y-59650000D01*
X86740000Y-61920000D02*
X88200000Y-61920000D01*
X86740000Y-65080000D02*
X88200000Y-65080000D01*
X86740000Y-61920000D02*
X86740000Y-62850000D01*
X86740000Y-65080000D02*
X86740000Y-64150000D01*
X82990000Y-66170000D02*
X84450000Y-66170000D01*
X82990000Y-69330000D02*
X84450000Y-69330000D01*
X82990000Y-66170000D02*
X82990000Y-67100000D01*
X82990000Y-69330000D02*
X82990000Y-68400000D01*
X81990000Y-71170000D02*
X83450000Y-71170000D01*
X81990000Y-74330000D02*
X83450000Y-74330000D01*
X81990000Y-71170000D02*
X81990000Y-72100000D01*
X81990000Y-74330000D02*
X81990000Y-73400000D01*
X86575000Y-80400000D02*
X87075000Y-80400000D01*
X86575000Y-78600000D02*
X87075000Y-78600000D01*
X86575000Y-78600000D02*
X86575000Y-80400000D01*
X89375000Y-80400000D02*
X88875000Y-80400000D01*
X89375000Y-78600000D02*
X89375000Y-80400000D01*
X89375000Y-78600000D02*
X88875000Y-78600000D01*
X86575000Y-82650000D02*
X87075000Y-82650000D01*
X86575000Y-80850000D02*
X87075000Y-80850000D01*
X86575000Y-80850000D02*
X86575000Y-82650000D01*
X89375000Y-82650000D02*
X88875000Y-82650000D01*
X89375000Y-80850000D02*
X89375000Y-82650000D01*
X89375000Y-80850000D02*
X88875000Y-80850000D01*
X85575000Y-85900000D02*
X86075000Y-85900000D01*
X85575000Y-84100000D02*
X86075000Y-84100000D01*
X85575000Y-84100000D02*
X85575000Y-85900000D01*
X88375000Y-85900000D02*
X87875000Y-85900000D01*
X88375000Y-84100000D02*
X88375000Y-85900000D01*
X88375000Y-84100000D02*
X87875000Y-84100000D01*
X109649999Y-91428571D02*
X109649999Y-91142857D01*
X109478570Y-91485714D02*
X110078570Y-91285714D01*
X109478570Y-91085714D01*
X109478570Y-90571428D02*
X109478570Y-90914285D01*
X109478570Y-90742857D02*
X110078570Y-90742857D01*
X109992856Y-90800000D01*
X109935713Y-90857142D01*
X109907141Y-90914285D01*
X90328570Y-89271428D02*
X90671427Y-89271428D01*
X90499999Y-89271428D02*
X90499999Y-88671428D01*
X90557141Y-88757142D01*
X90614284Y-88814285D01*
X90671427Y-88842857D01*
X110235713Y-88671428D02*
X109864284Y-88671428D01*
X110064284Y-88900000D01*
X109978570Y-88900000D01*
X109921427Y-88928571D01*
X109892856Y-88957142D01*
X109864284Y-89014285D01*
X109864284Y-89157142D01*
X109892856Y-89214285D01*
X109921427Y-89242857D01*
X109978570Y-89271428D01*
X110149999Y-89271428D01*
X110207141Y-89242857D01*
X110235713Y-89214285D01*
X109521427Y-88928571D02*
X109578570Y-88900000D01*
X109607141Y-88871428D01*
X109635713Y-88814285D01*
X109635713Y-88785714D01*
X109607141Y-88728571D01*
X109578570Y-88700000D01*
X109521427Y-88671428D01*
X109407141Y-88671428D01*
X109349999Y-88700000D01*
X109321427Y-88728571D01*
X109292856Y-88785714D01*
X109292856Y-88814285D01*
X109321427Y-88871428D01*
X109349999Y-88900000D01*
X109407141Y-88928571D01*
X109521427Y-88928571D01*
X109578570Y-88957142D01*
X109607141Y-88985714D01*
X109635713Y-89042857D01*
X109635713Y-89157142D01*
X109607141Y-89214285D01*
X109578570Y-89242857D01*
X109521427Y-89271428D01*
X109407141Y-89271428D01*
X109349999Y-89242857D01*
X109321427Y-89214285D01*
X109292856Y-89157142D01*
X109292856Y-89042857D01*
X109321427Y-88985714D01*
X109349999Y-88957142D01*
X109407141Y-88928571D01*
X93114284Y-69521428D02*
X93457141Y-69521428D01*
X93285713Y-69521428D02*
X93285713Y-68921428D01*
X93342856Y-69007142D01*
X93399999Y-69064285D01*
X93457141Y-69092857D01*
X92571427Y-68921428D02*
X92857141Y-68921428D01*
X92885713Y-69207142D01*
X92857141Y-69178571D01*
X92799999Y-69150000D01*
X92657141Y-69150000D01*
X92599999Y-69178571D01*
X92571427Y-69207142D01*
X92542856Y-69264285D01*
X92542856Y-69407142D01*
X92571427Y-69464285D01*
X92599999Y-69492857D01*
X92657141Y-69521428D01*
X92799999Y-69521428D01*
X92857141Y-69492857D01*
X92885713Y-69464285D01*
X107457141Y-68978571D02*
X107428570Y-68950000D01*
X107371427Y-68921428D01*
X107228570Y-68921428D01*
X107171427Y-68950000D01*
X107142856Y-68978571D01*
X107114284Y-69035714D01*
X107114284Y-69092857D01*
X107142856Y-69178571D01*
X107485713Y-69521428D01*
X107114284Y-69521428D01*
X106599999Y-69121428D02*
X106599999Y-69521428D01*
X106742856Y-68892857D02*
X106885713Y-69321428D01*
X106514284Y-69321428D01*
X112135714Y-81271428D02*
X112335714Y-80985714D01*
X112478571Y-81271428D02*
X112478571Y-80671428D01*
X112250000Y-80671428D01*
X112192857Y-80700000D01*
X112164285Y-80728571D01*
X112135714Y-80785714D01*
X112135714Y-80871428D01*
X112164285Y-80928571D01*
X112192857Y-80957142D01*
X112250000Y-80985714D01*
X112478571Y-80985714D01*
X111935714Y-80671428D02*
X111564285Y-80671428D01*
X111764285Y-80900000D01*
X111678571Y-80900000D01*
X111621428Y-80928571D01*
X111592857Y-80957142D01*
X111564285Y-81014285D01*
X111564285Y-81157142D01*
X111592857Y-81214285D01*
X111621428Y-81242857D01*
X111678571Y-81271428D01*
X111850000Y-81271428D01*
X111907142Y-81242857D01*
X111935714Y-81214285D01*
X111192857Y-80671428D02*
X111135714Y-80671428D01*
X111078571Y-80700000D01*
X111050000Y-80728571D01*
X111021428Y-80785714D01*
X110992857Y-80900000D01*
X110992857Y-81042857D01*
X111021428Y-81157142D01*
X111050000Y-81214285D01*
X111078571Y-81242857D01*
X111135714Y-81271428D01*
X111192857Y-81271428D01*
X111250000Y-81242857D01*
X111278571Y-81214285D01*
X111307142Y-81157142D01*
X111335714Y-81042857D01*
X111335714Y-80900000D01*
X111307142Y-80785714D01*
X111278571Y-80728571D01*
X111250000Y-80700000D01*
X111192857Y-80671428D01*
X113485714Y-88671428D02*
X113085714Y-89271428D01*
X113085714Y-88671428D02*
X113485714Y-89271428D01*
X112828571Y-89271428D02*
X112714285Y-89271428D01*
X112657142Y-89242857D01*
X112628571Y-89214285D01*
X112571428Y-89128571D01*
X112542857Y-89014285D01*
X112542857Y-88785714D01*
X112571428Y-88728571D01*
X112600000Y-88700000D01*
X112657142Y-88671428D01*
X112771428Y-88671428D01*
X112828571Y-88700000D01*
X112857142Y-88728571D01*
X112885714Y-88785714D01*
X112885714Y-88928571D01*
X112857142Y-88985714D01*
X112828571Y-89014285D01*
X112771428Y-89042857D01*
X112657142Y-89042857D01*
X112600000Y-89014285D01*
X112571428Y-88985714D01*
X112542857Y-88928571D01*
X113485714Y-86171428D02*
X113085714Y-86771428D01*
X113085714Y-86171428D02*
X113485714Y-86771428D01*
X112771428Y-86428571D02*
X112828571Y-86400000D01*
X112857142Y-86371428D01*
X112885714Y-86314285D01*
X112885714Y-86285714D01*
X112857142Y-86228571D01*
X112828571Y-86200000D01*
X112771428Y-86171428D01*
X112657142Y-86171428D01*
X112600000Y-86200000D01*
X112571428Y-86228571D01*
X112542857Y-86285714D01*
X112542857Y-86314285D01*
X112571428Y-86371428D01*
X112600000Y-86400000D01*
X112657142Y-86428571D01*
X112771428Y-86428571D01*
X112828571Y-86457142D01*
X112857142Y-86485714D01*
X112885714Y-86542857D01*
X112885714Y-86657142D01*
X112857142Y-86714285D01*
X112828571Y-86742857D01*
X112771428Y-86771428D01*
X112657142Y-86771428D01*
X112600000Y-86742857D01*
X112571428Y-86714285D01*
X112542857Y-86657142D01*
X112542857Y-86542857D01*
X112571428Y-86485714D01*
X112600000Y-86457142D01*
X112657142Y-86428571D01*
X113485714Y-83921428D02*
X113085714Y-84521428D01*
X113085714Y-83921428D02*
X113485714Y-84521428D01*
X112914285Y-83921428D02*
X112514285Y-83921428D01*
X112771428Y-84521428D01*
X112171428Y-73514285D02*
X112771428Y-73914285D01*
X112171428Y-73914285D02*
X112771428Y-73514285D01*
X112171428Y-74400000D02*
X112171428Y-74285714D01*
X112200000Y-74228571D01*
X112228571Y-74200000D01*
X112314285Y-74142857D01*
X112428571Y-74114285D01*
X112657142Y-74114285D01*
X112714285Y-74142857D01*
X112742857Y-74171428D01*
X112771428Y-74228571D01*
X112771428Y-74342857D01*
X112742857Y-74400000D01*
X112714285Y-74428571D01*
X112657142Y-74457142D01*
X112514285Y-74457142D01*
X112457142Y-74428571D01*
X112428571Y-74400000D01*
X112400000Y-74342857D01*
X112400000Y-74228571D01*
X112428571Y-74171428D01*
X112457142Y-74142857D01*
X112514285Y-74114285D01*
X101692857Y-64271428D02*
X101692857Y-63671428D01*
X101350000Y-64271428D02*
X101607142Y-63928571D01*
X101350000Y-63671428D02*
X101692857Y-64014285D01*
X101150000Y-63671428D02*
X100778571Y-63671428D01*
X100978571Y-63900000D01*
X100892857Y-63900000D01*
X100835714Y-63928571D01*
X100807142Y-63957142D01*
X100778571Y-64014285D01*
X100778571Y-64157142D01*
X100807142Y-64214285D01*
X100835714Y-64242857D01*
X100892857Y-64271428D01*
X101064285Y-64271428D01*
X101121428Y-64242857D01*
X101150000Y-64214285D01*
X87350000Y-66021428D02*
X87550000Y-65735714D01*
X87692857Y-66021428D02*
X87692857Y-65421428D01*
X87464285Y-65421428D01*
X87407142Y-65450000D01*
X87378571Y-65478571D01*
X87350000Y-65535714D01*
X87350000Y-65621428D01*
X87378571Y-65678571D01*
X87407142Y-65707142D01*
X87464285Y-65735714D01*
X87692857Y-65735714D01*
X87121428Y-65478571D02*
X87092857Y-65450000D01*
X87035714Y-65421428D01*
X86892857Y-65421428D01*
X86835714Y-65450000D01*
X86807142Y-65478571D01*
X86778571Y-65535714D01*
X86778571Y-65592857D01*
X86807142Y-65678571D01*
X87150000Y-66021428D01*
X86778571Y-66021428D01*
X100271428Y-60900000D02*
X99985714Y-60700000D01*
X100271428Y-60557142D02*
X99671428Y-60557142D01*
X99671428Y-60785714D01*
X99700000Y-60842857D01*
X99728571Y-60871428D01*
X99785714Y-60900000D01*
X99871428Y-60900000D01*
X99928571Y-60871428D01*
X99957142Y-60842857D01*
X99985714Y-60785714D01*
X99985714Y-60557142D01*
X99671428Y-61100000D02*
X99671428Y-61500000D01*
X100271428Y-61242857D01*
X104214285Y-56421428D02*
X104014285Y-57021428D01*
X103814285Y-56421428D01*
X103700000Y-56421428D02*
X103357142Y-56421428D01*
X103528571Y-57021428D02*
X103528571Y-56421428D01*
X103214285Y-56421428D02*
X102814285Y-56421428D01*
X103071428Y-57021428D01*
X91100000Y-61771428D02*
X91300000Y-61485714D01*
X91442857Y-61771428D02*
X91442857Y-61171428D01*
X91214285Y-61171428D01*
X91157142Y-61200000D01*
X91128571Y-61228571D01*
X91100000Y-61285714D01*
X91100000Y-61371428D01*
X91128571Y-61428571D01*
X91157142Y-61457142D01*
X91214285Y-61485714D01*
X91442857Y-61485714D01*
X90557142Y-61171428D02*
X90842857Y-61171428D01*
X90871428Y-61457142D01*
X90842857Y-61428571D01*
X90785714Y-61400000D01*
X90642857Y-61400000D01*
X90585714Y-61428571D01*
X90557142Y-61457142D01*
X90528571Y-61514285D01*
X90528571Y-61657142D01*
X90557142Y-61714285D01*
X90585714Y-61742857D01*
X90642857Y-61771428D01*
X90785714Y-61771428D01*
X90842857Y-61742857D01*
X90871428Y-61714285D01*
X92850000Y-57271428D02*
X93050000Y-56985714D01*
X93192857Y-57271428D02*
X93192857Y-56671428D01*
X92964285Y-56671428D01*
X92907142Y-56700000D01*
X92878571Y-56728571D01*
X92850000Y-56785714D01*
X92850000Y-56871428D01*
X92878571Y-56928571D01*
X92907142Y-56957142D01*
X92964285Y-56985714D01*
X93192857Y-56985714D01*
X92335714Y-56671428D02*
X92450000Y-56671428D01*
X92507142Y-56700000D01*
X92535714Y-56728571D01*
X92592857Y-56814285D01*
X92621428Y-56928571D01*
X92621428Y-57157142D01*
X92592857Y-57214285D01*
X92564285Y-57242857D01*
X92507142Y-57271428D01*
X92392857Y-57271428D01*
X92335714Y-57242857D01*
X92307142Y-57214285D01*
X92278571Y-57157142D01*
X92278571Y-57014285D01*
X92307142Y-56957142D01*
X92335714Y-56928571D01*
X92392857Y-56900000D01*
X92507142Y-56900000D01*
X92564285Y-56928571D01*
X92592857Y-56957142D01*
X92621428Y-57014285D01*
X80850000Y-66021428D02*
X81050000Y-65735714D01*
X81192857Y-66021428D02*
X81192857Y-65421428D01*
X80964285Y-65421428D01*
X80907142Y-65450000D01*
X80878571Y-65478571D01*
X80850000Y-65535714D01*
X80850000Y-65621428D01*
X80878571Y-65678571D01*
X80907142Y-65707142D01*
X80964285Y-65735714D01*
X81192857Y-65735714D01*
X80335714Y-65621428D02*
X80335714Y-66021428D01*
X80478571Y-65392857D02*
X80621428Y-65821428D01*
X80250000Y-65821428D01*
X79850000Y-71021428D02*
X80050000Y-70735714D01*
X80192857Y-71021428D02*
X80192857Y-70421428D01*
X79964285Y-70421428D01*
X79907142Y-70450000D01*
X79878571Y-70478571D01*
X79850000Y-70535714D01*
X79850000Y-70621428D01*
X79878571Y-70678571D01*
X79907142Y-70707142D01*
X79964285Y-70735714D01*
X80192857Y-70735714D01*
X79650000Y-70421428D02*
X79278571Y-70421428D01*
X79478571Y-70650000D01*
X79392857Y-70650000D01*
X79335714Y-70678571D01*
X79307142Y-70707142D01*
X79278571Y-70764285D01*
X79278571Y-70907142D01*
X79307142Y-70964285D01*
X79335714Y-70992857D01*
X79392857Y-71021428D01*
X79564285Y-71021428D01*
X79621428Y-70992857D01*
X79650000Y-70964285D01*
X117500000Y-66671428D02*
X117300000Y-67271428D01*
X117100000Y-66671428D01*
X116985714Y-66671428D02*
X116642857Y-66671428D01*
X116814285Y-67271428D02*
X116814285Y-66671428D01*
X116128571Y-67271428D02*
X116471428Y-67271428D01*
X116300000Y-67271428D02*
X116300000Y-66671428D01*
X116357142Y-66757142D01*
X116414285Y-66814285D01*
X116471428Y-66842857D01*
X115557142Y-67271428D02*
X115900000Y-67271428D01*
X115728571Y-67271428D02*
X115728571Y-66671428D01*
X115785714Y-66757142D01*
X115842857Y-66814285D01*
X115900000Y-66842857D01*
X108714285Y-56421428D02*
X108514285Y-57021428D01*
X108314285Y-56421428D01*
X108200000Y-56421428D02*
X107857142Y-56421428D01*
X108028571Y-57021428D02*
X108028571Y-56421428D01*
X107571428Y-56678571D02*
X107628571Y-56650000D01*
X107657142Y-56621428D01*
X107685714Y-56564285D01*
X107685714Y-56535714D01*
X107657142Y-56478571D01*
X107628571Y-56450000D01*
X107571428Y-56421428D01*
X107457142Y-56421428D01*
X107400000Y-56450000D01*
X107371428Y-56478571D01*
X107342857Y-56535714D01*
X107342857Y-56564285D01*
X107371428Y-56621428D01*
X107400000Y-56650000D01*
X107457142Y-56678571D01*
X107571428Y-56678571D01*
X107628571Y-56707142D01*
X107657142Y-56735714D01*
X107685714Y-56792857D01*
X107685714Y-56907142D01*
X107657142Y-56964285D01*
X107628571Y-56992857D01*
X107571428Y-57021428D01*
X107457142Y-57021428D01*
X107400000Y-56992857D01*
X107371428Y-56964285D01*
X107342857Y-56907142D01*
X107342857Y-56792857D01*
X107371428Y-56735714D01*
X107400000Y-56707142D01*
X107457142Y-56678571D01*
X104771428Y-60900000D02*
X104485714Y-60700000D01*
X104771428Y-60557142D02*
X104171428Y-60557142D01*
X104171428Y-60785714D01*
X104200000Y-60842857D01*
X104228571Y-60871428D01*
X104285714Y-60900000D01*
X104371428Y-60900000D01*
X104428571Y-60871428D01*
X104457142Y-60842857D01*
X104485714Y-60785714D01*
X104485714Y-60557142D01*
X104428571Y-61242857D02*
X104400000Y-61185714D01*
X104371428Y-61157142D01*
X104314285Y-61128571D01*
X104285714Y-61128571D01*
X104228571Y-61157142D01*
X104200000Y-61185714D01*
X104171428Y-61242857D01*
X104171428Y-61357142D01*
X104200000Y-61414285D01*
X104228571Y-61442857D01*
X104285714Y-61471428D01*
X104314285Y-61471428D01*
X104371428Y-61442857D01*
X104400000Y-61414285D01*
X104428571Y-61357142D01*
X104428571Y-61242857D01*
X104457142Y-61185714D01*
X104485714Y-61157142D01*
X104542857Y-61128571D01*
X104657142Y-61128571D01*
X104714285Y-61157142D01*
X104742857Y-61185714D01*
X104771428Y-61242857D01*
X104771428Y-61357142D01*
X104742857Y-61414285D01*
X104714285Y-61442857D01*
X104657142Y-61471428D01*
X104542857Y-61471428D01*
X104485714Y-61442857D01*
X104457142Y-61414285D01*
X104428571Y-61357142D01*
X86350000Y-71021428D02*
X86550000Y-70735714D01*
X86692857Y-71021428D02*
X86692857Y-70421428D01*
X86464285Y-70421428D01*
X86407142Y-70450000D01*
X86378571Y-70478571D01*
X86350000Y-70535714D01*
X86350000Y-70621428D01*
X86378571Y-70678571D01*
X86407142Y-70707142D01*
X86464285Y-70735714D01*
X86692857Y-70735714D01*
X85778571Y-71021428D02*
X86121428Y-71021428D01*
X85950000Y-71021428D02*
X85950000Y-70421428D01*
X86007142Y-70507142D01*
X86064285Y-70564285D01*
X86121428Y-70592857D01*
X115250000Y-62421428D02*
X115050000Y-63021428D01*
X114850000Y-62421428D01*
X114735714Y-62421428D02*
X114392857Y-62421428D01*
X114564285Y-63021428D02*
X114564285Y-62421428D01*
X113878571Y-63021428D02*
X114221428Y-63021428D01*
X114050000Y-63021428D02*
X114050000Y-62421428D01*
X114107142Y-62507142D01*
X114164285Y-62564285D01*
X114221428Y-62592857D01*
X113507142Y-62421428D02*
X113450000Y-62421428D01*
X113392857Y-62450000D01*
X113364285Y-62478571D01*
X113335714Y-62535714D01*
X113307142Y-62650000D01*
X113307142Y-62792857D01*
X113335714Y-62907142D01*
X113364285Y-62964285D01*
X113392857Y-62992857D01*
X113450000Y-63021428D01*
X113507142Y-63021428D01*
X113564285Y-62992857D01*
X113592857Y-62964285D01*
X113621428Y-62907142D01*
X113650000Y-62792857D01*
X113650000Y-62650000D01*
X113621428Y-62535714D01*
X113592857Y-62478571D01*
X113564285Y-62450000D01*
X113507142Y-62421428D01*
X109350000Y-59021428D02*
X109550000Y-58735714D01*
X109692857Y-59021428D02*
X109692857Y-58421428D01*
X109464285Y-58421428D01*
X109407142Y-58450000D01*
X109378571Y-58478571D01*
X109350000Y-58535714D01*
X109350000Y-58621428D01*
X109378571Y-58678571D01*
X109407142Y-58707142D01*
X109464285Y-58735714D01*
X109692857Y-58735714D01*
X109064285Y-59021428D02*
X108950000Y-59021428D01*
X108892857Y-58992857D01*
X108864285Y-58964285D01*
X108807142Y-58878571D01*
X108778571Y-58764285D01*
X108778571Y-58535714D01*
X108807142Y-58478571D01*
X108835714Y-58450000D01*
X108892857Y-58421428D01*
X109007142Y-58421428D01*
X109064285Y-58450000D01*
X109092857Y-58478571D01*
X109121428Y-58535714D01*
X109121428Y-58678571D01*
X109092857Y-58735714D01*
X109064285Y-58764285D01*
X109007142Y-58792857D01*
X108892857Y-58792857D01*
X108835714Y-58764285D01*
X108807142Y-58735714D01*
X108778571Y-58678571D01*
X112964285Y-58171428D02*
X112764285Y-58771428D01*
X112564285Y-58171428D01*
X112450000Y-58171428D02*
X112107142Y-58171428D01*
X112278571Y-58771428D02*
X112278571Y-58171428D01*
X111878571Y-58771428D02*
X111764285Y-58771428D01*
X111707142Y-58742857D01*
X111678571Y-58714285D01*
X111621428Y-58628571D01*
X111592857Y-58514285D01*
X111592857Y-58285714D01*
X111621428Y-58228571D01*
X111650000Y-58200000D01*
X111707142Y-58171428D01*
X111821428Y-58171428D01*
X111878571Y-58200000D01*
X111907142Y-58228571D01*
X111935714Y-58285714D01*
X111935714Y-58428571D01*
X111907142Y-58485714D01*
X111878571Y-58514285D01*
X111821428Y-58542857D01*
X111707142Y-58542857D01*
X111650000Y-58514285D01*
X111621428Y-58485714D01*
X111592857Y-58428571D01*
X90771428Y-55114285D02*
X90485714Y-54914285D01*
X90771428Y-54771428D02*
X90171428Y-54771428D01*
X90171428Y-55000000D01*
X90200000Y-55057142D01*
X90228571Y-55085714D01*
X90285714Y-55114285D01*
X90371428Y-55114285D01*
X90428571Y-55085714D01*
X90457142Y-55057142D01*
X90485714Y-55000000D01*
X90485714Y-54771428D01*
X90771428Y-55685714D02*
X90771428Y-55342857D01*
X90771428Y-55514285D02*
X90171428Y-55514285D01*
X90257142Y-55457142D01*
X90314285Y-55400000D01*
X90342857Y-55342857D01*
X90771428Y-56257142D02*
X90771428Y-55914285D01*
X90771428Y-56085714D02*
X90171428Y-56085714D01*
X90257142Y-56028571D01*
X90314285Y-55971428D01*
X90342857Y-55914285D01*
X113635714Y-67521428D02*
X113835714Y-67235714D01*
X113978571Y-67521428D02*
X113978571Y-66921428D01*
X113750000Y-66921428D01*
X113692857Y-66950000D01*
X113664285Y-66978571D01*
X113635714Y-67035714D01*
X113635714Y-67121428D01*
X113664285Y-67178571D01*
X113692857Y-67207142D01*
X113750000Y-67235714D01*
X113978571Y-67235714D01*
X113064285Y-67521428D02*
X113407142Y-67521428D01*
X113235714Y-67521428D02*
X113235714Y-66921428D01*
X113292857Y-67007142D01*
X113350000Y-67064285D01*
X113407142Y-67092857D01*
X112550000Y-66921428D02*
X112664285Y-66921428D01*
X112721428Y-66950000D01*
X112750000Y-66978571D01*
X112807142Y-67064285D01*
X112835714Y-67178571D01*
X112835714Y-67407142D01*
X112807142Y-67464285D01*
X112778571Y-67492857D01*
X112721428Y-67521428D01*
X112607142Y-67521428D01*
X112550000Y-67492857D01*
X112521428Y-67464285D01*
X112492857Y-67407142D01*
X112492857Y-67264285D01*
X112521428Y-67207142D01*
X112550000Y-67178571D01*
X112607142Y-67150000D01*
X112721428Y-67150000D01*
X112778571Y-67178571D01*
X112807142Y-67207142D01*
X112835714Y-67264285D01*
X85771428Y-86864285D02*
X85485714Y-86664285D01*
X85771428Y-86521428D02*
X85171428Y-86521428D01*
X85171428Y-86750000D01*
X85200000Y-86807142D01*
X85228571Y-86835714D01*
X85285714Y-86864285D01*
X85371428Y-86864285D01*
X85428571Y-86835714D01*
X85457142Y-86807142D01*
X85485714Y-86750000D01*
X85485714Y-86521428D01*
X85171428Y-87064285D02*
X85171428Y-87435714D01*
X85400000Y-87235714D01*
X85400000Y-87321428D01*
X85428571Y-87378571D01*
X85457142Y-87407142D01*
X85514285Y-87435714D01*
X85657142Y-87435714D01*
X85714285Y-87407142D01*
X85742857Y-87378571D01*
X85771428Y-87321428D01*
X85771428Y-87150000D01*
X85742857Y-87092857D01*
X85714285Y-87064285D01*
X85171428Y-87635714D02*
X85171428Y-88035714D01*
X85771428Y-87778571D01*
X84885714Y-61771428D02*
X85085714Y-61485714D01*
X85228571Y-61771428D02*
X85228571Y-61171428D01*
X85000000Y-61171428D01*
X84942857Y-61200000D01*
X84914285Y-61228571D01*
X84885714Y-61285714D01*
X84885714Y-61371428D01*
X84914285Y-61428571D01*
X84942857Y-61457142D01*
X85000000Y-61485714D01*
X85228571Y-61485714D01*
X84314285Y-61771428D02*
X84657142Y-61771428D01*
X84485714Y-61771428D02*
X84485714Y-61171428D01*
X84542857Y-61257142D01*
X84600000Y-61314285D01*
X84657142Y-61342857D01*
X83942857Y-61171428D02*
X83885714Y-61171428D01*
X83828571Y-61200000D01*
X83800000Y-61228571D01*
X83771428Y-61285714D01*
X83742857Y-61400000D01*
X83742857Y-61542857D01*
X83771428Y-61657142D01*
X83800000Y-61714285D01*
X83828571Y-61742857D01*
X83885714Y-61771428D01*
X83942857Y-61771428D01*
X84000000Y-61742857D01*
X84028571Y-61714285D01*
X84057142Y-61657142D01*
X84085714Y-61542857D01*
X84085714Y-61400000D01*
X84057142Y-61285714D01*
X84028571Y-61228571D01*
X84000000Y-61200000D01*
X83942857Y-61171428D01*
X104521428Y-54864285D02*
X104235714Y-54664285D01*
X104521428Y-54521428D02*
X103921428Y-54521428D01*
X103921428Y-54750000D01*
X103950000Y-54807142D01*
X103978571Y-54835714D01*
X104035714Y-54864285D01*
X104121428Y-54864285D01*
X104178571Y-54835714D01*
X104207142Y-54807142D01*
X104235714Y-54750000D01*
X104235714Y-54521428D01*
X104521428Y-55435714D02*
X104521428Y-55092857D01*
X104521428Y-55264285D02*
X103921428Y-55264285D01*
X104007142Y-55207142D01*
X104064285Y-55150000D01*
X104092857Y-55092857D01*
X103921428Y-55635714D02*
X103921428Y-56007142D01*
X104150000Y-55807142D01*
X104150000Y-55892857D01*
X104178571Y-55950000D01*
X104207142Y-55978571D01*
X104264285Y-56007142D01*
X104407142Y-56007142D01*
X104464285Y-55978571D01*
X104492857Y-55950000D01*
X104521428Y-55892857D01*
X104521428Y-55721428D01*
X104492857Y-55664285D01*
X104464285Y-55635714D01*
X111135714Y-63271428D02*
X111335714Y-62985714D01*
X111478571Y-63271428D02*
X111478571Y-62671428D01*
X111250000Y-62671428D01*
X111192857Y-62700000D01*
X111164285Y-62728571D01*
X111135714Y-62785714D01*
X111135714Y-62871428D01*
X111164285Y-62928571D01*
X111192857Y-62957142D01*
X111250000Y-62985714D01*
X111478571Y-62985714D01*
X110564285Y-63271428D02*
X110907142Y-63271428D01*
X110735714Y-63271428D02*
X110735714Y-62671428D01*
X110792857Y-62757142D01*
X110850000Y-62814285D01*
X110907142Y-62842857D01*
X110021428Y-62671428D02*
X110307142Y-62671428D01*
X110335714Y-62957142D01*
X110307142Y-62928571D01*
X110250000Y-62900000D01*
X110107142Y-62900000D01*
X110050000Y-62928571D01*
X110021428Y-62957142D01*
X109992857Y-63014285D01*
X109992857Y-63157142D01*
X110021428Y-63214285D01*
X110050000Y-63242857D01*
X110107142Y-63271428D01*
X110250000Y-63271428D01*
X110307142Y-63242857D01*
X110335714Y-63214285D01*
X115135714Y-58896428D02*
X115335714Y-58610714D01*
X115478571Y-58896428D02*
X115478571Y-58296428D01*
X115250000Y-58296428D01*
X115192857Y-58325000D01*
X115164285Y-58353571D01*
X115135714Y-58410714D01*
X115135714Y-58496428D01*
X115164285Y-58553571D01*
X115192857Y-58582142D01*
X115250000Y-58610714D01*
X115478571Y-58610714D01*
X114564285Y-58896428D02*
X114907142Y-58896428D01*
X114735714Y-58896428D02*
X114735714Y-58296428D01*
X114792857Y-58382142D01*
X114850000Y-58439285D01*
X114907142Y-58467857D01*
X114050000Y-58496428D02*
X114050000Y-58896428D01*
X114192857Y-58267857D02*
X114335714Y-58696428D01*
X113964285Y-58696428D01*
X119635714Y-67521428D02*
X119835714Y-67235714D01*
X119978571Y-67521428D02*
X119978571Y-66921428D01*
X119750000Y-66921428D01*
X119692857Y-66950000D01*
X119664285Y-66978571D01*
X119635714Y-67035714D01*
X119635714Y-67121428D01*
X119664285Y-67178571D01*
X119692857Y-67207142D01*
X119750000Y-67235714D01*
X119978571Y-67235714D01*
X119064285Y-67521428D02*
X119407142Y-67521428D01*
X119235714Y-67521428D02*
X119235714Y-66921428D01*
X119292857Y-67007142D01*
X119350000Y-67064285D01*
X119407142Y-67092857D01*
X118721428Y-67178571D02*
X118778571Y-67150000D01*
X118807142Y-67121428D01*
X118835714Y-67064285D01*
X118835714Y-67035714D01*
X118807142Y-66978571D01*
X118778571Y-66950000D01*
X118721428Y-66921428D01*
X118607142Y-66921428D01*
X118550000Y-66950000D01*
X118521428Y-66978571D01*
X118492857Y-67035714D01*
X118492857Y-67064285D01*
X118521428Y-67121428D01*
X118550000Y-67150000D01*
X118607142Y-67178571D01*
X118721428Y-67178571D01*
X118778571Y-67207142D01*
X118807142Y-67235714D01*
X118835714Y-67292857D01*
X118835714Y-67407142D01*
X118807142Y-67464285D01*
X118778571Y-67492857D01*
X118721428Y-67521428D01*
X118607142Y-67521428D01*
X118550000Y-67492857D01*
X118521428Y-67464285D01*
X118492857Y-67407142D01*
X118492857Y-67292857D01*
X118521428Y-67235714D01*
X118550000Y-67207142D01*
X118607142Y-67178571D01*
X117885714Y-62771428D02*
X118085714Y-62485714D01*
X118228571Y-62771428D02*
X118228571Y-62171428D01*
X118000000Y-62171428D01*
X117942857Y-62200000D01*
X117914285Y-62228571D01*
X117885714Y-62285714D01*
X117885714Y-62371428D01*
X117914285Y-62428571D01*
X117942857Y-62457142D01*
X118000000Y-62485714D01*
X118228571Y-62485714D01*
X117314285Y-62771428D02*
X117657142Y-62771428D01*
X117485714Y-62771428D02*
X117485714Y-62171428D01*
X117542857Y-62257142D01*
X117600000Y-62314285D01*
X117657142Y-62342857D01*
X117114285Y-62171428D02*
X116714285Y-62171428D01*
X116971428Y-62771428D01*
X82735714Y-75921428D02*
X82335714Y-76521428D01*
X82335714Y-75921428D02*
X82735714Y-76521428D01*
X81821428Y-75921428D02*
X82107142Y-75921428D01*
X82135714Y-76207142D01*
X82107142Y-76178571D01*
X82050000Y-76150000D01*
X81907142Y-76150000D01*
X81850000Y-76178571D01*
X81821428Y-76207142D01*
X81792857Y-76264285D01*
X81792857Y-76407142D01*
X81821428Y-76464285D01*
X81850000Y-76492857D01*
X81907142Y-76521428D01*
X82050000Y-76521428D01*
X82107142Y-76492857D01*
X82135714Y-76464285D01*
X99885714Y-53771428D02*
X100085714Y-53485714D01*
X100228571Y-53771428D02*
X100228571Y-53171428D01*
X100000000Y-53171428D01*
X99942857Y-53200000D01*
X99914285Y-53228571D01*
X99885714Y-53285714D01*
X99885714Y-53371428D01*
X99914285Y-53428571D01*
X99942857Y-53457142D01*
X100000000Y-53485714D01*
X100228571Y-53485714D01*
X99314285Y-53771428D02*
X99657142Y-53771428D01*
X99485714Y-53771428D02*
X99485714Y-53171428D01*
X99542857Y-53257142D01*
X99600000Y-53314285D01*
X99657142Y-53342857D01*
X99085714Y-53228571D02*
X99057142Y-53200000D01*
X99000000Y-53171428D01*
X98857142Y-53171428D01*
X98800000Y-53200000D01*
X98771428Y-53228571D01*
X98742857Y-53285714D01*
X98742857Y-53342857D01*
X98771428Y-53428571D01*
X99114285Y-53771428D01*
X98742857Y-53771428D01*
X81771428Y-86614285D02*
X81485714Y-86414285D01*
X81771428Y-86271428D02*
X81171428Y-86271428D01*
X81171428Y-86500000D01*
X81200000Y-86557142D01*
X81228571Y-86585714D01*
X81285714Y-86614285D01*
X81371428Y-86614285D01*
X81428571Y-86585714D01*
X81457142Y-86557142D01*
X81485714Y-86500000D01*
X81485714Y-86271428D01*
X81171428Y-86814285D02*
X81171428Y-87185714D01*
X81400000Y-86985714D01*
X81400000Y-87071428D01*
X81428571Y-87128571D01*
X81457142Y-87157142D01*
X81514285Y-87185714D01*
X81657142Y-87185714D01*
X81714285Y-87157142D01*
X81742857Y-87128571D01*
X81771428Y-87071428D01*
X81771428Y-86900000D01*
X81742857Y-86842857D01*
X81714285Y-86814285D01*
X81171428Y-87385714D02*
X81171428Y-87757142D01*
X81400000Y-87557142D01*
X81400000Y-87642857D01*
X81428571Y-87700000D01*
X81457142Y-87728571D01*
X81514285Y-87757142D01*
X81657142Y-87757142D01*
X81714285Y-87728571D01*
X81742857Y-87700000D01*
X81771428Y-87642857D01*
X81771428Y-87471428D01*
X81742857Y-87414285D01*
X81714285Y-87385714D01*
X89964285Y-56421428D02*
X89764285Y-57021428D01*
X89564285Y-56421428D01*
X89450000Y-56421428D02*
X89107142Y-56421428D01*
X89278571Y-57021428D02*
X89278571Y-56421428D01*
X88650000Y-56421428D02*
X88764285Y-56421428D01*
X88821428Y-56450000D01*
X88850000Y-56478571D01*
X88907142Y-56564285D01*
X88935714Y-56678571D01*
X88935714Y-56907142D01*
X88907142Y-56964285D01*
X88878571Y-56992857D01*
X88821428Y-57021428D01*
X88707142Y-57021428D01*
X88650000Y-56992857D01*
X88621428Y-56964285D01*
X88592857Y-56907142D01*
X88592857Y-56764285D01*
X88621428Y-56707142D01*
X88650000Y-56678571D01*
X88707142Y-56650000D01*
X88821428Y-56650000D01*
X88878571Y-56678571D01*
X88907142Y-56707142D01*
X88935714Y-56764285D01*
X88214285Y-60921428D02*
X88014285Y-61521428D01*
X87814285Y-60921428D01*
X87700000Y-60921428D02*
X87357142Y-60921428D01*
X87528571Y-61521428D02*
X87528571Y-60921428D01*
X86871428Y-60921428D02*
X87157142Y-60921428D01*
X87185714Y-61207142D01*
X87157142Y-61178571D01*
X87100000Y-61150000D01*
X86957142Y-61150000D01*
X86900000Y-61178571D01*
X86871428Y-61207142D01*
X86842857Y-61264285D01*
X86842857Y-61407142D01*
X86871428Y-61464285D01*
X86900000Y-61492857D01*
X86957142Y-61521428D01*
X87100000Y-61521428D01*
X87157142Y-61492857D01*
X87185714Y-61464285D01*
X85964285Y-65421428D02*
X85764285Y-66021428D01*
X85564285Y-65421428D01*
X85450000Y-65421428D02*
X85107142Y-65421428D01*
X85278571Y-66021428D02*
X85278571Y-65421428D01*
X84650000Y-65621428D02*
X84650000Y-66021428D01*
X84792857Y-65392857D02*
X84935714Y-65821428D01*
X84564285Y-65821428D01*
X83714285Y-70171428D02*
X83514285Y-70771428D01*
X83314285Y-70171428D01*
X83200000Y-70171428D02*
X82857142Y-70171428D01*
X83028571Y-70771428D02*
X83028571Y-70171428D01*
X82714285Y-70171428D02*
X82342857Y-70171428D01*
X82542857Y-70400000D01*
X82457142Y-70400000D01*
X82400000Y-70428571D01*
X82371428Y-70457142D01*
X82342857Y-70514285D01*
X82342857Y-70657142D01*
X82371428Y-70714285D01*
X82400000Y-70742857D01*
X82457142Y-70771428D01*
X82628571Y-70771428D01*
X82685714Y-70742857D01*
X82714285Y-70714285D01*
X86271428Y-79114285D02*
X85985714Y-78914285D01*
X86271428Y-78771428D02*
X85671428Y-78771428D01*
X85671428Y-79000000D01*
X85700000Y-79057142D01*
X85728571Y-79085714D01*
X85785714Y-79114285D01*
X85871428Y-79114285D01*
X85928571Y-79085714D01*
X85957142Y-79057142D01*
X85985714Y-79000000D01*
X85985714Y-78771428D01*
X85871428Y-79628571D02*
X86271428Y-79628571D01*
X85642857Y-79485714D02*
X86071428Y-79342857D01*
X86071428Y-79714285D01*
X85671428Y-80057142D02*
X85671428Y-80114285D01*
X85700000Y-80171428D01*
X85728571Y-80200000D01*
X85785714Y-80228571D01*
X85900000Y-80257142D01*
X86042857Y-80257142D01*
X86157142Y-80228571D01*
X86214285Y-80200000D01*
X86242857Y-80171428D01*
X86271428Y-80114285D01*
X86271428Y-80057142D01*
X86242857Y-80000000D01*
X86214285Y-79971428D01*
X86157142Y-79942857D01*
X86042857Y-79914285D01*
X85900000Y-79914285D01*
X85785714Y-79942857D01*
X85728571Y-79971428D01*
X85700000Y-80000000D01*
X85671428Y-80057142D01*
X86271428Y-81864285D02*
X85985714Y-81664285D01*
X86271428Y-81521428D02*
X85671428Y-81521428D01*
X85671428Y-81750000D01*
X85700000Y-81807142D01*
X85728571Y-81835714D01*
X85785714Y-81864285D01*
X85871428Y-81864285D01*
X85928571Y-81835714D01*
X85957142Y-81807142D01*
X85985714Y-81750000D01*
X85985714Y-81521428D01*
X85671428Y-82064285D02*
X85671428Y-82435714D01*
X85900000Y-82235714D01*
X85900000Y-82321428D01*
X85928571Y-82378571D01*
X85957142Y-82407142D01*
X86014285Y-82435714D01*
X86157142Y-82435714D01*
X86214285Y-82407142D01*
X86242857Y-82378571D01*
X86271428Y-82321428D01*
X86271428Y-82150000D01*
X86242857Y-82092857D01*
X86214285Y-82064285D01*
X86271428Y-82721428D02*
X86271428Y-82835714D01*
X86242857Y-82892857D01*
X86214285Y-82921428D01*
X86128571Y-82978571D01*
X86014285Y-83007142D01*
X85785714Y-83007142D01*
X85728571Y-82978571D01*
X85700000Y-82950000D01*
X85671428Y-82892857D01*
X85671428Y-82778571D01*
X85700000Y-82721428D01*
X85728571Y-82692857D01*
X85785714Y-82664285D01*
X85928571Y-82664285D01*
X85985714Y-82692857D01*
X86014285Y-82721428D01*
X86042857Y-82778571D01*
X86042857Y-82892857D01*
X86014285Y-82950000D01*
X85985714Y-82978571D01*
X85928571Y-83007142D01*
X87385714Y-83771428D02*
X87585714Y-83485714D01*
X87728571Y-83771428D02*
X87728571Y-83171428D01*
X87500000Y-83171428D01*
X87442857Y-83200000D01*
X87414285Y-83228571D01*
X87385714Y-83285714D01*
X87385714Y-83371428D01*
X87414285Y-83428571D01*
X87442857Y-83457142D01*
X87500000Y-83485714D01*
X87728571Y-83485714D01*
X87185714Y-83171428D02*
X86814285Y-83171428D01*
X87014285Y-83400000D01*
X86928571Y-83400000D01*
X86871428Y-83428571D01*
X86842857Y-83457142D01*
X86814285Y-83514285D01*
X86814285Y-83657142D01*
X86842857Y-83714285D01*
X86871428Y-83742857D01*
X86928571Y-83771428D01*
X87100000Y-83771428D01*
X87157142Y-83742857D01*
X87185714Y-83714285D01*
X86471428Y-83428571D02*
X86528571Y-83400000D01*
X86557142Y-83371428D01*
X86585714Y-83314285D01*
X86585714Y-83285714D01*
X86557142Y-83228571D01*
X86528571Y-83200000D01*
X86471428Y-83171428D01*
X86357142Y-83171428D01*
X86300000Y-83200000D01*
X86271428Y-83228571D01*
X86242857Y-83285714D01*
X86242857Y-83314285D01*
X86271428Y-83371428D01*
X86300000Y-83400000D01*
X86357142Y-83428571D01*
X86471428Y-83428571D01*
X86528571Y-83457142D01*
X86557142Y-83485714D01*
X86585714Y-83542857D01*
X86585714Y-83657142D01*
X86557142Y-83714285D01*
X86528571Y-83742857D01*
X86471428Y-83771428D01*
X86357142Y-83771428D01*
X86300000Y-83742857D01*
X86271428Y-83714285D01*
X86242857Y-83657142D01*
X86242857Y-83542857D01*
X86271428Y-83485714D01*
X86300000Y-83457142D01*
X86357142Y-83428571D01*
M02*
