G04 #@! TF.GenerationSoftware,KiCad,Pcbnew,(5.1.2-1)-1*
G04 #@! TF.CreationDate,2021-08-17T23:27:44+03:00*
G04 #@! TF.ProjectId,ITC-1,4954432d-312e-46b6-9963-61645f706362,rev?*
G04 #@! TF.SameCoordinates,Original*
G04 #@! TF.FileFunction,Copper,L4,Bot*
G04 #@! TF.FilePolarity,Positive*
%FSLAX46Y46*%
G04 Gerber Fmt 4.6, Leading zero omitted, Abs format (unit mm)*
G04 Created by KiCad (PCBNEW (5.1.2-1)-1) date 2021-08-17 23:27:44*
%MOMM*%
%LPD*%
G04 APERTURE LIST*
%ADD10C,0.100000*%
%ADD11O,2.000000X0.900000*%
%ADD12R,2.000000X0.900000*%
%ADD13R,1.350000X1.350000*%
%ADD14R,0.900000X2.000000*%
%ADD15R,0.500000X1.250000*%
%ADD16O,0.500000X1.000000*%
%ADD17R,1.700000X1.700000*%
%ADD18C,1.700000*%
%ADD19R,2.000000X2.000000*%
%ADD20R,1.250000X0.500000*%
%ADD21R,0.800000X1.100000*%
%ADD22R,1.100000X0.800000*%
%ADD23C,5.000000*%
%ADD24C,2.000000*%
%ADD25C,0.800000*%
%ADD26C,0.250000*%
%ADD27C,0.200000*%
G04 APERTURE END LIST*
D10*
G36*
X114250000Y-89500000D02*
G01*
X115250000Y-89500000D01*
X115250000Y-88500000D01*
X114250000Y-88500000D01*
X114250000Y-89500000D01*
G37*
G36*
X114250000Y-87000000D02*
G01*
X115250000Y-87000000D01*
X115250000Y-86000000D01*
X114250000Y-86000000D01*
X114250000Y-87000000D01*
G37*
G36*
X114250000Y-84500000D02*
G01*
X115250000Y-84500000D01*
X115250000Y-83500000D01*
X114250000Y-83500000D01*
X114250000Y-84500000D01*
G37*
D11*
X91499999Y-88000000D03*
D12*
X108499999Y-88000000D03*
X91499999Y-86730000D03*
X108499999Y-86730000D03*
X91499999Y-85460000D03*
X108499999Y-85460000D03*
X91499999Y-84190000D03*
X108499999Y-84190000D03*
X91499999Y-82920000D03*
X108499999Y-82920000D03*
X91499999Y-81650000D03*
X108499999Y-81650000D03*
X91499999Y-80380000D03*
X108499999Y-80380000D03*
X91499999Y-79110000D03*
X108499999Y-79110000D03*
X91499999Y-77840000D03*
X108499999Y-77840000D03*
X91499999Y-76570000D03*
X108499999Y-76570000D03*
X91499999Y-75300000D03*
X108499999Y-75300000D03*
X91499999Y-74030000D03*
X108499999Y-74030000D03*
X91499999Y-72760000D03*
X108499999Y-72760000D03*
D13*
X98999999Y-80500000D03*
X98999999Y-82250000D03*
X98999999Y-78750000D03*
X100749999Y-78750000D03*
X100749999Y-82250000D03*
X100749999Y-80500000D03*
X97249999Y-78750000D03*
X97249999Y-82250000D03*
X97249999Y-80500000D03*
D12*
X108499999Y-71490000D03*
D14*
X105679999Y-70500000D03*
X104409999Y-70500000D03*
X94249999Y-70500000D03*
X95519999Y-70500000D03*
D15*
X112875000Y-82500000D03*
X111125000Y-82500000D03*
D16*
X115250000Y-89000000D03*
X114250000Y-89000000D03*
X115250000Y-86500000D03*
X114250000Y-86500000D03*
X115250000Y-84000000D03*
X114250000Y-84000000D03*
D17*
X114210000Y-72710000D03*
X116750000Y-72710000D03*
X114210000Y-75250000D03*
D18*
X116750000Y-75250000D03*
D19*
X94750000Y-66500000D03*
X104750000Y-66500000D03*
D20*
X86750000Y-68625000D03*
X86750000Y-66875000D03*
D15*
X101125002Y-61000000D03*
X102875002Y-61000000D03*
D21*
X102000000Y-56900000D03*
X101050000Y-59100000D03*
X102950000Y-59100000D03*
D20*
X90500000Y-64375000D03*
X90500000Y-62625000D03*
X92250000Y-59875000D03*
X92250000Y-58125000D03*
X80750000Y-66875000D03*
X80750000Y-68625000D03*
X79750000Y-71875000D03*
X79750000Y-73625000D03*
D22*
X117350000Y-69250000D03*
X115150000Y-68300000D03*
X115150000Y-70200000D03*
D21*
X106500000Y-56900000D03*
X105550000Y-59100000D03*
X107450000Y-59100000D03*
D15*
X105625000Y-61000000D03*
X107375000Y-61000000D03*
D20*
X85750000Y-73625000D03*
X85750000Y-71875000D03*
D22*
X115600000Y-65000000D03*
X113400000Y-64050000D03*
X113400000Y-65950000D03*
D20*
X109500000Y-59875000D03*
X109500000Y-61625000D03*
D22*
X113600000Y-60750000D03*
X111400000Y-59800000D03*
X111400000Y-61700000D03*
D15*
X91625000Y-55500000D03*
X93375000Y-55500000D03*
D20*
X113250000Y-68375000D03*
X113250000Y-70125000D03*
D15*
X88375000Y-87500000D03*
X86625000Y-87500000D03*
D20*
X84500000Y-64375000D03*
X84500000Y-62625000D03*
D15*
X105375000Y-55250000D03*
X107125000Y-55250000D03*
D20*
X111500000Y-64125000D03*
X111500000Y-65875000D03*
X115250000Y-59750000D03*
X115250000Y-61500000D03*
X119250000Y-68375000D03*
X119250000Y-70125000D03*
X117500000Y-63625000D03*
X117500000Y-65375000D03*
D17*
X80710000Y-83080000D03*
X80710000Y-80540000D03*
X80710000Y-78000000D03*
X83250000Y-83080000D03*
X83250000Y-80540000D03*
D18*
X83250000Y-78000000D03*
D15*
X98625000Y-55000000D03*
X100375000Y-55000000D03*
X82625000Y-87500000D03*
X84375000Y-87500000D03*
D22*
X88150000Y-59000000D03*
X90350000Y-59950000D03*
X90350000Y-58050000D03*
X86400000Y-63500000D03*
X88600000Y-64450000D03*
X88600000Y-62550000D03*
X82650000Y-67750000D03*
X84850000Y-68700000D03*
X84850000Y-66800000D03*
D23*
X118750000Y-82500000D03*
D22*
X81650000Y-72750000D03*
X83850000Y-73700000D03*
X83850000Y-71800000D03*
D23*
X97000000Y-59250000D03*
D15*
X87125000Y-79500000D03*
X88875000Y-79500000D03*
X87125000Y-81750000D03*
X88875000Y-81750000D03*
X86125000Y-85000000D03*
X87875000Y-85000000D03*
D24*
X85750000Y-76250000D03*
X113000000Y-79500000D03*
D25*
X82750000Y-74500000D03*
X83000000Y-64000000D03*
X103250000Y-55500000D03*
X114750000Y-63500000D03*
X110000000Y-71490000D03*
X106500000Y-66500000D03*
X97250000Y-76500000D03*
X104750000Y-60000000D03*
X86750000Y-69500000D03*
X110500000Y-58250000D03*
X90500000Y-65250000D03*
X92250000Y-60750000D03*
X100250000Y-60000000D03*
X93250000Y-68250000D03*
X85250000Y-78750000D03*
X99000000Y-76500000D03*
X114500000Y-67250000D03*
X100750000Y-76500000D03*
X112250000Y-63000000D03*
X85500000Y-74500000D03*
X95750000Y-76500000D03*
X105000000Y-78000000D03*
X95750000Y-80500000D03*
X100000000Y-85000000D03*
X98000000Y-85000000D03*
X96750000Y-85000000D03*
X96250000Y-88000000D03*
X95000000Y-88000000D03*
X96000000Y-86500000D03*
X116250000Y-85250000D03*
X100500000Y-65500000D03*
X95500000Y-85000000D03*
X99500000Y-66500000D03*
X100750000Y-66500000D03*
X104500000Y-62000000D03*
X89750000Y-86750000D03*
X106500000Y-64000000D03*
X94500000Y-86250000D03*
X94750000Y-77750000D03*
X95500000Y-64750000D03*
X97500000Y-64750000D03*
X95500000Y-68250000D03*
X97500000Y-68250000D03*
X99500000Y-68250000D03*
X95750000Y-73000000D03*
X95750000Y-74000000D03*
X95750000Y-75000000D03*
X104250000Y-73000000D03*
X104250000Y-74000000D03*
X104250000Y-75000000D03*
X89750000Y-85500000D03*
X106500000Y-78250000D03*
X106475000Y-77000000D03*
X85500000Y-88500000D03*
X102250000Y-80250000D03*
X88979138Y-76505522D03*
X83250000Y-61250000D03*
X113250000Y-57750000D03*
X79250000Y-68750000D03*
X118750000Y-64500000D03*
X106000000Y-54000000D03*
X78250000Y-77250000D03*
X89750000Y-56000000D03*
X121500000Y-71750000D03*
X96000000Y-53500000D03*
X78500000Y-72750000D03*
X117000000Y-61500000D03*
X86250000Y-58250000D03*
X82000000Y-63750000D03*
X94750000Y-54250000D03*
X110750000Y-56500000D03*
X120750000Y-69750000D03*
X122000000Y-78000000D03*
X97000000Y-54250000D03*
X115000000Y-79500000D03*
X110250000Y-85750000D03*
X89762653Y-77737347D03*
X80750000Y-70250000D03*
X94500000Y-55500000D03*
X109750000Y-57250000D03*
X117750000Y-70275000D03*
X119250000Y-71000000D03*
X85000000Y-84500000D03*
X85500000Y-81500000D03*
X88750000Y-77750000D03*
D26*
X80000000Y-74500000D02*
X79750000Y-74250000D01*
X82750000Y-74500000D02*
X80000000Y-74500000D01*
X79750000Y-73625000D02*
X79750000Y-74250000D01*
X84500000Y-62500000D02*
X84500000Y-62250000D01*
X84500000Y-62250000D02*
X84250000Y-62000000D01*
X83000000Y-62250000D02*
X83000000Y-62750000D01*
X83000000Y-62750000D02*
X83000000Y-64000000D01*
X84250000Y-62000000D02*
X83250000Y-62000000D01*
X83250000Y-62000000D02*
X83000000Y-62250000D01*
X101750000Y-55000000D02*
X102500000Y-55000000D01*
X100375000Y-55000000D02*
X101750000Y-55000000D01*
X101750000Y-55000000D02*
X102250000Y-55000000D01*
X102750000Y-55000000D02*
X103250000Y-55500000D01*
X102500000Y-55000000D02*
X102750000Y-55000000D01*
X115250000Y-61500000D02*
X115250000Y-63000000D01*
X115250000Y-63000000D02*
X114750000Y-63500000D01*
X108499999Y-84190000D02*
X111440000Y-84190000D01*
X111440000Y-84190000D02*
X113750000Y-86500000D01*
X113750000Y-86500000D02*
X114250000Y-86500000D01*
X108499999Y-82920000D02*
X110080000Y-82920000D01*
X110080000Y-82920000D02*
X110250000Y-82750000D01*
X110500000Y-82500000D02*
X110250000Y-82750000D01*
X111125000Y-82500000D02*
X110500000Y-82500000D01*
X85250000Y-71000000D02*
X85500000Y-71000000D01*
X85250000Y-71000000D02*
X86000000Y-71000000D01*
X83850000Y-71150000D02*
X84000000Y-71000000D01*
X83850000Y-71800000D02*
X83850000Y-71150000D01*
X86000000Y-71000000D02*
X85750000Y-71250000D01*
X85750000Y-71250000D02*
X85750000Y-71750000D01*
X84000000Y-71000000D02*
X85250000Y-71000000D01*
X85500000Y-71000000D02*
X85750000Y-71250000D01*
X87250000Y-71000000D02*
X86000000Y-71000000D01*
X87500000Y-71250000D02*
X87250000Y-71000000D01*
X87500000Y-73272820D02*
X87500000Y-71250000D01*
X89680000Y-76320000D02*
X89680000Y-75452820D01*
X89680000Y-75452820D02*
X87500000Y-73272820D01*
X89930000Y-76570000D02*
X89680000Y-76320000D01*
X91499999Y-76570000D02*
X89930000Y-76570000D01*
X87000000Y-66000000D02*
X87750000Y-66000000D01*
X84850000Y-66150000D02*
X85000000Y-66000000D01*
X85000000Y-66000000D02*
X86500000Y-66000000D01*
X86750000Y-66250000D02*
X87000000Y-66000000D01*
X86750000Y-66250000D02*
X86750000Y-66750000D01*
X86500000Y-66000000D02*
X86750000Y-66250000D01*
X87750000Y-66000000D02*
X88000000Y-66250000D01*
X84850000Y-66800000D02*
X84850000Y-66150000D01*
X86500000Y-66000000D02*
X87000000Y-66000000D01*
X88000000Y-66250000D02*
X88000000Y-72750000D01*
X88000000Y-73136410D02*
X90113590Y-75250000D01*
X88000000Y-72750000D02*
X88000000Y-73136410D01*
X90113590Y-75250000D02*
X91500000Y-75250000D01*
X88500000Y-68750000D02*
X91750000Y-65500000D01*
X90750000Y-61750000D02*
X90500000Y-62000000D01*
X91499999Y-74030000D02*
X89530000Y-74030000D01*
X90250000Y-61750000D02*
X90750000Y-61750000D01*
X89530000Y-74030000D02*
X88500000Y-73000000D01*
X88600000Y-61900000D02*
X88750000Y-61750000D01*
X88750000Y-61750000D02*
X90250000Y-61750000D01*
X88600000Y-62550000D02*
X88600000Y-61900000D01*
X90500000Y-62000000D02*
X90500000Y-62500000D01*
X90250000Y-61750000D02*
X90500000Y-62000000D01*
X91750000Y-62000000D02*
X91500000Y-61750000D01*
X91500000Y-61750000D02*
X90750000Y-61750000D01*
X91750000Y-65500000D02*
X91750000Y-62000000D01*
X88500000Y-73000000D02*
X88500000Y-68750000D01*
X92250000Y-57500000D02*
X92500000Y-57250000D01*
X92000000Y-57250000D02*
X92500000Y-57250000D01*
X93500000Y-57500000D02*
X93500000Y-64500000D01*
X89000000Y-69000000D02*
X89000000Y-70750000D01*
X89000000Y-71500000D02*
X89000000Y-70750000D01*
X89500000Y-72750000D02*
X91500000Y-72750000D01*
X89000000Y-71500000D02*
X89000000Y-72250000D01*
X93500000Y-64500000D02*
X89000000Y-69000000D01*
X92500000Y-57250000D02*
X93250000Y-57250000D01*
X93250000Y-57250000D02*
X93500000Y-57500000D01*
X89000000Y-72250000D02*
X89500000Y-72750000D01*
X90350000Y-58050000D02*
X90350000Y-57400000D01*
X92250000Y-57500000D02*
X92250000Y-58000000D01*
X90350000Y-57400000D02*
X90500000Y-57250000D01*
X90500000Y-57250000D02*
X92000000Y-57250000D01*
X89000000Y-70750000D02*
X89000000Y-72000000D01*
X92000000Y-57250000D02*
X92250000Y-57500000D01*
X103750001Y-60749999D02*
X103750001Y-61250001D01*
X103750000Y-59250000D02*
X103750001Y-60749999D01*
X102950001Y-59099999D02*
X103600000Y-59100000D01*
X103600000Y-59100000D02*
X103750000Y-59250000D01*
X103750001Y-60749999D02*
X103499998Y-61000000D01*
X103499998Y-61000000D02*
X103000000Y-61000001D01*
X103750001Y-61250001D02*
X103750000Y-61250002D01*
X103750000Y-61250002D02*
X103499998Y-61000000D01*
X106176998Y-64750000D02*
X103750000Y-62323002D01*
X107750000Y-65000000D02*
X107500000Y-64750000D01*
X107750000Y-67750000D02*
X107750000Y-65000000D01*
X106179999Y-68750000D02*
X106750000Y-68750000D01*
X103750000Y-62323002D02*
X103750000Y-61250002D01*
X107500000Y-64750000D02*
X106176998Y-64750000D01*
X105679999Y-69250000D02*
X106179999Y-68750000D01*
X106750000Y-68750000D02*
X107750000Y-67750000D01*
X105679999Y-70500000D02*
X105679999Y-69250000D01*
X111000000Y-70500000D02*
X108250000Y-67750000D01*
X111000000Y-72500000D02*
X111000000Y-70500000D01*
X108100000Y-59100000D02*
X108250000Y-59250000D01*
X108250001Y-60749999D02*
X107999998Y-61000000D01*
X108250000Y-61250002D02*
X107999998Y-61000000D01*
X107450001Y-59099999D02*
X108100000Y-59100000D01*
X108250001Y-60749999D02*
X108250001Y-61250001D01*
X108250000Y-67750000D02*
X108250000Y-61250002D01*
X108250000Y-59250000D02*
X108250001Y-60749999D01*
X108499999Y-72760000D02*
X110740000Y-72760000D01*
X107999998Y-61000000D02*
X107500000Y-61000001D01*
X108250001Y-61250001D02*
X108250000Y-61250002D01*
X110740000Y-72760000D02*
X111000000Y-72500000D01*
X108755000Y-73774999D02*
X110975001Y-73774999D01*
X109500000Y-62250000D02*
X109500000Y-62750000D01*
X111399999Y-61699999D02*
X111400000Y-62350000D01*
X111400000Y-62350000D02*
X111250000Y-62500000D01*
X108499999Y-74030000D02*
X108755000Y-73774999D01*
X110975001Y-73774999D02*
X111500000Y-73250000D01*
X111500000Y-73250000D02*
X111500000Y-70250000D01*
X111500000Y-70250000D02*
X109500000Y-68250000D01*
X109500000Y-68250000D02*
X109500000Y-62750000D01*
X109500000Y-62250000D02*
X109500000Y-61750001D01*
X109750000Y-62500000D02*
X109500000Y-62250000D01*
X109500000Y-62750000D02*
X109750000Y-62500000D01*
X111250000Y-62500000D02*
X109750000Y-62500000D01*
X112000000Y-67000000D02*
X113000000Y-67000000D01*
X111523002Y-75300000D02*
X112000000Y-74823002D01*
X111625000Y-66625000D02*
X111500000Y-66500000D01*
X113399999Y-65949999D02*
X113400000Y-66600000D01*
X113000000Y-67000000D02*
X113250000Y-66750000D01*
X112000000Y-67000000D02*
X111625000Y-66625000D01*
X113400000Y-66600000D02*
X113250000Y-66750000D01*
X112000000Y-74823002D02*
X112000000Y-67000000D01*
X108499999Y-75300000D02*
X111523002Y-75300000D01*
X111500000Y-66500000D02*
X111500000Y-66000001D01*
X108499999Y-71490000D02*
X110000000Y-71490000D01*
X106500000Y-66500000D02*
X104750000Y-66500000D01*
X113500000Y-71000000D02*
X113250000Y-70750000D01*
X112750000Y-71750000D02*
X113250000Y-71250000D01*
X115150000Y-70850000D02*
X115000000Y-71000000D01*
X112180000Y-76570000D02*
X112750000Y-76000000D01*
X112750000Y-76000000D02*
X112750000Y-71750000D01*
X113250000Y-70750000D02*
X113250000Y-70250001D01*
X113250000Y-71250000D02*
X113500000Y-71000000D01*
X115149999Y-70199999D02*
X115150000Y-70850000D01*
X113250000Y-70750000D02*
X113250000Y-71250000D01*
X115000000Y-71000000D02*
X113500000Y-71000000D01*
X108499999Y-76570000D02*
X112180000Y-76570000D01*
X115150000Y-67334315D02*
X115065685Y-67250000D01*
X115065685Y-67250000D02*
X114500000Y-67250000D01*
X86500000Y-79500000D02*
X87000000Y-79500000D01*
X86250000Y-79750000D02*
X85750000Y-79250000D01*
X88875000Y-87500000D02*
X89375000Y-88000000D01*
X115150000Y-68300000D02*
X115150000Y-67334315D01*
X85750000Y-79250000D02*
X85250000Y-78750000D01*
X86500000Y-81750000D02*
X86250000Y-81500000D01*
X113500000Y-67250000D02*
X113250000Y-67500000D01*
X94249999Y-69249999D02*
X93250000Y-68250000D01*
X88375000Y-87500000D02*
X88875000Y-87500000D01*
X114500000Y-67250000D02*
X114500000Y-67250000D01*
X86250000Y-79750000D02*
X86500000Y-79500000D01*
X86250000Y-81500000D02*
X86250000Y-79750000D01*
X87125000Y-81750000D02*
X86500000Y-81750000D01*
X83944032Y-82693308D02*
X83944032Y-83713341D01*
X89375000Y-88000000D02*
X91500000Y-88000000D01*
X112750000Y-63000000D02*
X112750000Y-63000000D01*
X114500000Y-67250000D02*
X113500000Y-67250000D01*
X113250000Y-68000000D02*
X113250000Y-68500001D01*
X113250000Y-67500000D02*
X113250000Y-68000000D01*
X94249999Y-70500000D02*
X94249999Y-69249999D01*
X98999999Y-76500001D02*
X99000000Y-76500000D01*
X100750000Y-81324999D02*
X100750000Y-80500000D01*
X100750000Y-76750000D02*
X100750000Y-76750000D01*
X110500000Y-58250000D02*
X109750000Y-58250000D01*
X84000000Y-74500000D02*
X85500000Y-74500000D01*
X100749999Y-78750000D02*
X100749999Y-76500001D01*
X98999999Y-78750000D02*
X99000000Y-79675001D01*
X111250000Y-58250000D02*
X110500000Y-58250000D01*
X83850000Y-74350000D02*
X84000000Y-74500000D01*
X89500000Y-65250000D02*
X90250000Y-65250000D01*
X100250000Y-60000000D02*
X100250000Y-60750000D01*
X97250000Y-76500000D02*
X97250000Y-76250000D01*
X97249999Y-78750000D02*
X97249999Y-76500001D01*
X85750000Y-74250000D02*
X85750000Y-73500000D01*
X100750000Y-80500000D02*
X100750000Y-78750000D01*
X100749999Y-82250000D02*
X100750000Y-81324999D01*
X97250000Y-80500000D02*
X97250000Y-79000000D01*
X97249999Y-82250000D02*
X97250000Y-81324999D01*
X104750000Y-60000000D02*
X104750000Y-60750000D01*
X91250000Y-60750000D02*
X92000000Y-60750000D01*
X85500000Y-74500000D02*
X85750000Y-74250000D01*
X83850000Y-73700000D02*
X83850000Y-74350000D01*
X97250000Y-81324999D02*
X97250000Y-80500000D01*
X98999999Y-78750000D02*
X98999999Y-76500001D01*
X99000000Y-80500000D02*
X99000000Y-82250000D01*
X99000000Y-76750000D02*
X99000000Y-76750000D01*
X100749999Y-76500001D02*
X100750000Y-76500000D01*
X85750000Y-69500000D02*
X86500000Y-69500000D01*
X109500000Y-59000000D02*
X109500000Y-59750000D01*
X97249999Y-76500001D02*
X97250000Y-76500000D01*
X99000000Y-79675001D02*
X99000000Y-80500000D01*
X88600000Y-65100000D02*
X88750000Y-65250000D01*
X90350000Y-59950000D02*
X90350000Y-60600000D01*
X104899998Y-59100000D02*
X104750000Y-59250000D01*
X100250000Y-60750000D02*
X100500000Y-61000000D01*
X100500000Y-61000000D02*
X101250001Y-61000000D01*
X88600000Y-64450000D02*
X88600000Y-65100000D01*
X92250000Y-60500000D02*
X92250000Y-59750000D01*
X104750000Y-59250000D02*
X104750000Y-60000000D01*
X100399998Y-59100000D02*
X100250000Y-59250000D01*
X105000000Y-61000000D02*
X105750001Y-61000000D01*
X100749999Y-78750000D02*
X100750000Y-77824999D01*
X88750000Y-65250000D02*
X89500000Y-65250000D01*
X98999999Y-78750000D02*
X99000000Y-77824999D01*
X97249999Y-78750000D02*
X97250000Y-77824999D01*
X86750000Y-69250000D02*
X86750000Y-68500000D01*
X85000000Y-69500000D02*
X85750000Y-69500000D01*
X86500000Y-69500000D02*
X86750000Y-69250000D01*
X92000000Y-60750000D02*
X92250000Y-60500000D01*
X105550000Y-59100000D02*
X104899998Y-59100000D01*
X101050000Y-59100000D02*
X100399998Y-59100000D01*
X84850000Y-68700000D02*
X84850000Y-69350000D01*
X90500000Y-60750000D02*
X91250000Y-60750000D01*
X100250000Y-59250000D02*
X100250000Y-60000000D01*
X104750000Y-60750000D02*
X105000000Y-61000000D01*
X84850000Y-69350000D02*
X85000000Y-69500000D01*
X90500000Y-65000000D02*
X90500000Y-64250000D01*
X90250000Y-65250000D02*
X90500000Y-65000000D01*
X90350000Y-60600000D02*
X90500000Y-60750000D01*
X111400000Y-58400000D02*
X111250000Y-58250000D01*
X111400000Y-59100000D02*
X111400000Y-58400000D01*
X111400000Y-59100000D02*
X111400000Y-58900000D01*
X111400000Y-59800000D02*
X111400000Y-59100000D01*
X109500000Y-58500000D02*
X109750000Y-58250000D01*
X109500000Y-59000000D02*
X109500000Y-58500000D01*
X111500000Y-63750000D02*
X111500000Y-64250001D01*
X111500000Y-63250000D02*
X111500000Y-63750000D01*
X112250000Y-63000000D02*
X113315685Y-63000000D01*
X113315685Y-63000000D02*
X113400000Y-63084315D01*
X113400000Y-63084315D02*
X113400000Y-64050000D01*
X112250000Y-63000000D02*
X111750000Y-63000000D01*
X111750000Y-63000000D02*
X111500000Y-63250000D01*
X93250000Y-68250000D02*
X93250000Y-66750000D01*
X93250000Y-66750000D02*
X93500000Y-66500000D01*
X93500000Y-66500000D02*
X94500000Y-66500000D01*
X98999999Y-82250000D02*
X99000000Y-83175001D01*
X99000000Y-83175001D02*
X99000000Y-84000000D01*
X97249999Y-82250000D02*
X97250000Y-83175001D01*
X97250000Y-83175001D02*
X97250000Y-84000000D01*
X95750000Y-76500000D02*
X95750000Y-77000000D01*
X95750000Y-80500000D02*
X97250000Y-80500000D01*
X95500000Y-76750000D02*
X95750000Y-76500000D01*
X95500000Y-80250000D02*
X95500000Y-76750000D01*
X95750000Y-80500000D02*
X95500000Y-80250000D01*
X95750000Y-80500000D02*
X95500000Y-80750000D01*
X95500000Y-80750000D02*
X95500000Y-81500000D01*
X95500000Y-81500000D02*
X95500000Y-84000000D01*
X95500000Y-84000000D02*
X95750000Y-84250000D01*
X85625000Y-85000000D02*
X85375000Y-85250000D01*
X86125000Y-85000000D02*
X85625000Y-85000000D01*
X85375000Y-85250000D02*
X83500000Y-85250000D01*
X83500000Y-85250000D02*
X83250000Y-85000000D01*
X83250000Y-85000000D02*
X83250000Y-83000000D01*
X108499999Y-88000000D02*
X110250000Y-88000000D01*
X112500000Y-88000000D02*
X113500000Y-89000000D01*
X113500000Y-89000000D02*
X114250000Y-89000000D01*
X110250000Y-88000000D02*
X112500000Y-88000000D01*
X93500000Y-86000000D02*
X94375000Y-85125000D01*
X94375000Y-85125000D02*
X95500000Y-84000000D01*
X93500000Y-87750000D02*
X93500000Y-86000000D01*
X93250000Y-88000000D02*
X93500000Y-87750000D01*
X91499999Y-88000000D02*
X93250000Y-88000000D01*
X100749999Y-82250000D02*
X100750000Y-83175001D01*
X100750000Y-83175001D02*
X100750000Y-84250000D01*
X105000000Y-88000000D02*
X104750000Y-87750000D01*
X108499999Y-88000000D02*
X105000000Y-88000000D01*
X104750000Y-87750000D02*
X101250000Y-84250000D01*
X98000000Y-66500000D02*
X99500000Y-66500000D01*
X96375000Y-68625000D02*
X96375000Y-68125000D01*
X96000000Y-69000000D02*
X96375000Y-68625000D01*
X95750000Y-69000000D02*
X96000000Y-69000000D01*
X95519999Y-69230001D02*
X95750000Y-69000000D01*
X96375000Y-68125000D02*
X98000000Y-66500000D01*
X95519999Y-70500000D02*
X95519999Y-69230001D01*
X104409999Y-70500000D02*
X104409999Y-68909999D01*
X104000000Y-68500000D02*
X102750000Y-68500000D01*
X104409999Y-68909999D02*
X104000000Y-68500000D01*
X100750000Y-66500000D02*
X102750000Y-68500000D01*
X91499999Y-86730000D02*
X89770000Y-86730000D01*
X89770000Y-86730000D02*
X89750000Y-86750000D01*
X89750000Y-85500000D02*
X91459999Y-85500000D01*
X91209999Y-85500000D02*
X91249999Y-85460000D01*
X108499999Y-79110000D02*
X107249999Y-79110000D01*
X106500000Y-78360001D02*
X106500000Y-78000000D01*
X107249999Y-79110000D02*
X106500000Y-78360001D01*
X107360000Y-79110000D02*
X106500000Y-78250000D01*
X108499999Y-79110000D02*
X107360000Y-79110000D01*
X108499999Y-77840000D02*
X107249999Y-77840000D01*
X107249999Y-77840000D02*
X106475000Y-77065001D01*
X106475000Y-77065001D02*
X106475000Y-76862347D01*
X82500000Y-88750000D02*
X85250000Y-88750000D01*
X80710000Y-80540000D02*
X81810000Y-80540000D01*
X82125000Y-87500000D02*
X82000000Y-87500000D01*
X85250000Y-88750000D02*
X85500000Y-88500000D01*
X82125000Y-87500000D02*
X82625000Y-87500000D01*
X82000000Y-88250000D02*
X82250000Y-88500000D01*
X82000000Y-87500000D02*
X82000000Y-88250000D01*
X81810000Y-80540000D02*
X82000000Y-80730000D01*
X82250000Y-88500000D02*
X82500000Y-88750000D01*
X81750000Y-87250000D02*
X82000000Y-87500000D01*
X82000000Y-86000000D02*
X81750000Y-86250000D01*
X81750000Y-86750000D02*
X81750000Y-87125000D01*
X82000000Y-80730000D02*
X82000000Y-86000000D01*
X81750000Y-86750000D02*
X81750000Y-87250000D01*
X81750000Y-86250000D02*
X81750000Y-86750000D01*
X81500000Y-71500000D02*
X81500000Y-72750000D01*
X81250000Y-71250000D02*
X81500000Y-71500000D01*
X79875000Y-71250000D02*
X81250000Y-71250000D01*
X79750000Y-71875000D02*
X79750000Y-71375000D01*
X79750000Y-71375000D02*
X79875000Y-71250000D01*
X80750000Y-66875000D02*
X80750000Y-66375000D01*
X80875000Y-66250000D02*
X82250000Y-66250000D01*
X82500000Y-66500000D02*
X82500000Y-67750000D01*
X80750000Y-66375000D02*
X80875000Y-66250000D01*
X82250000Y-66250000D02*
X82500000Y-66500000D01*
X85000000Y-65000000D02*
X86000000Y-65000000D01*
X84625000Y-65000000D02*
X85000000Y-65000000D01*
X84500000Y-64375000D02*
X84500000Y-64875000D01*
X86250000Y-64750000D02*
X86250000Y-63500000D01*
X86000000Y-65000000D02*
X86250000Y-64750000D01*
X84500000Y-64875000D02*
X84625000Y-65000000D01*
X91000000Y-55500000D02*
X91750000Y-55500000D01*
X88150000Y-57600000D02*
X88750000Y-57000000D01*
X90450010Y-56799990D02*
X90750000Y-56500000D01*
X88150000Y-59000000D02*
X88150000Y-57600000D01*
X90750000Y-55750000D02*
X91000000Y-55500000D01*
X90750000Y-56500000D02*
X90750000Y-55750000D01*
X88750000Y-57000000D02*
X88950010Y-56799990D01*
X88950010Y-56799990D02*
X90450010Y-56799990D01*
X98000000Y-55125000D02*
X98000000Y-55750000D01*
X98000000Y-55750000D02*
X99000000Y-56750000D01*
X98125000Y-55000000D02*
X98000000Y-55125000D01*
X98625000Y-55000000D02*
X98125000Y-55000000D01*
X99000000Y-56750000D02*
X102000000Y-56750000D01*
X104750000Y-55375000D02*
X104750000Y-56500000D01*
X105000000Y-56750000D02*
X106500000Y-56750000D01*
X104875000Y-55250000D02*
X104750000Y-55375000D01*
X104750000Y-56500000D02*
X105000000Y-56750000D01*
X105375000Y-55250000D02*
X104875000Y-55250000D01*
X113750000Y-59250000D02*
X113750000Y-59500000D01*
X114000000Y-59000000D02*
X113750000Y-59250000D01*
X115250000Y-59250000D02*
X115000000Y-59000000D01*
X115000000Y-59000000D02*
X114000000Y-59000000D01*
X113750000Y-59500000D02*
X113750000Y-60750000D01*
X115250000Y-59750000D02*
X115250000Y-59250000D01*
X115750000Y-63000000D02*
X115750000Y-65000000D01*
X117500000Y-63000000D02*
X117250000Y-62750000D01*
X116000000Y-62750000D02*
X115750000Y-63000000D01*
X117250000Y-62750000D02*
X116000000Y-62750000D01*
X117500000Y-63625000D02*
X117500000Y-63000000D01*
X119250000Y-67875000D02*
X118875000Y-67500000D01*
X117750000Y-67500000D02*
X117500000Y-67750000D01*
X117500000Y-67750000D02*
X117500000Y-69250000D01*
X118875000Y-67500000D02*
X117750000Y-67500000D01*
X119250000Y-68375000D02*
X119250000Y-67875000D01*
X115000000Y-80000000D02*
X115000000Y-79500000D01*
X114000000Y-81000000D02*
X115000000Y-80000000D01*
X110500000Y-81000000D02*
X114000000Y-81000000D01*
X109850000Y-81650000D02*
X110500000Y-81000000D01*
X108499999Y-81650000D02*
X109850000Y-81650000D01*
X109770000Y-86730000D02*
X110250000Y-86250000D01*
X110250000Y-86250000D02*
X110250000Y-85750000D01*
X108499999Y-86730000D02*
X109770000Y-86730000D01*
X86000000Y-87500000D02*
X85750000Y-87500000D01*
X88750000Y-86250000D02*
X89000000Y-86000000D01*
X86000000Y-86250000D02*
X88750000Y-86250000D01*
X85250000Y-87500000D02*
X85500000Y-87250000D01*
X84375000Y-87500000D02*
X85000000Y-87500000D01*
X85000000Y-87500000D02*
X85250000Y-87500000D01*
X89000000Y-85176998D02*
X89838499Y-84338499D01*
X85500000Y-87250000D02*
X85500000Y-86750000D01*
X89838499Y-84338499D02*
X89926998Y-84250000D01*
X85500000Y-87500000D02*
X85500000Y-87250000D01*
X89000000Y-86000000D02*
X89000000Y-85176998D01*
X85500000Y-86750000D02*
X86000000Y-86250000D01*
X91499999Y-84190000D02*
X89986998Y-84190000D01*
X85500000Y-87500000D02*
X86000000Y-87500000D01*
X85750000Y-87500000D02*
X85500000Y-87250000D01*
X85000000Y-87500000D02*
X85500000Y-87500000D01*
X86000000Y-87500000D02*
X86500000Y-87500000D01*
X89986998Y-84190000D02*
X89838499Y-84338499D01*
X91499999Y-79110000D02*
X90110000Y-79110000D01*
X90000000Y-77974694D02*
X89762653Y-77737347D01*
X90110000Y-79110000D02*
X90000000Y-79000000D01*
X90000000Y-79000000D02*
X90000000Y-77974694D01*
X80750000Y-68625000D02*
X80750000Y-70250000D01*
X93375000Y-55500000D02*
X94500000Y-55500000D01*
X107125000Y-55250000D02*
X107750000Y-55250000D01*
X107750000Y-55250000D02*
X109750000Y-57250000D01*
X117750000Y-66250000D02*
X119000000Y-66250000D01*
X121500000Y-68750000D02*
X121500000Y-70000000D01*
X117500000Y-66000000D02*
X117750000Y-66250000D01*
X117500000Y-65375000D02*
X117500000Y-66000000D01*
X119000000Y-66250000D02*
X121500000Y-68750000D01*
X121500000Y-70000000D02*
X121500000Y-70500000D01*
X117750000Y-71000000D02*
X117750000Y-70275000D01*
X118475001Y-71725001D02*
X117750000Y-71000000D01*
X119500000Y-71750000D02*
X119475001Y-71725001D01*
X118975001Y-71725001D02*
X118475001Y-71725001D01*
X119475001Y-71725001D02*
X118975001Y-71725001D01*
X120274999Y-71725001D02*
X121500000Y-70500000D01*
X119774999Y-71725001D02*
X120274999Y-71725001D01*
X118975001Y-71725001D02*
X119774999Y-71725001D01*
X119250000Y-71000000D02*
X119250000Y-70125000D01*
X89270294Y-84270294D02*
X90080000Y-83460588D01*
X90080000Y-83460588D02*
X90080000Y-83010000D01*
X89020294Y-84520294D02*
X89270294Y-84270294D01*
X90170000Y-82920000D02*
X91499999Y-82920000D01*
X87875000Y-85000000D02*
X88540588Y-85000000D01*
X90080000Y-83010000D02*
X90170000Y-82920000D01*
X89020294Y-84270294D02*
X89020294Y-84520294D01*
X89270294Y-84270294D02*
X89020294Y-84270294D01*
X88540588Y-85000000D02*
X89020294Y-84520294D01*
X88580000Y-83830000D02*
X88750000Y-84000000D01*
X89020294Y-84270294D02*
X88750000Y-84000000D01*
X85000000Y-84500000D02*
X85670000Y-83830000D01*
X85670000Y-83830000D02*
X88580000Y-83830000D01*
X88875000Y-81750000D02*
X89750000Y-81750000D01*
X89750000Y-81750000D02*
X91250000Y-81750000D01*
X89750000Y-82500000D02*
X89750000Y-81750000D01*
X89250000Y-83000000D02*
X89750000Y-82500000D01*
X86750000Y-83000000D02*
X89250000Y-83000000D01*
X85500000Y-81750000D02*
X86750000Y-83000000D01*
X85500000Y-81500000D02*
X85500000Y-81750000D01*
X89500000Y-78500000D02*
X89500000Y-79250000D01*
X89500000Y-79250000D02*
X89500000Y-79750000D01*
X89250000Y-79500000D02*
X89500000Y-79750000D01*
X89250000Y-79500000D02*
X89000000Y-79500000D01*
X89000000Y-78000000D02*
X89500000Y-78500000D01*
X89500000Y-79250000D02*
X89250000Y-79500000D01*
X91499999Y-80380000D02*
X90130000Y-80380000D01*
X90130000Y-80380000D02*
X89500000Y-79750000D01*
X113500000Y-83000000D02*
X113500000Y-83750000D01*
X113500000Y-83750000D02*
X113750000Y-84000000D01*
X113750000Y-84000000D02*
X114250000Y-84000000D01*
X113375000Y-82500000D02*
X113500000Y-82625000D01*
X112875000Y-82500000D02*
X113375000Y-82500000D01*
X113500000Y-82625000D02*
X113500000Y-83000000D01*
D27*
G36*
X101400000Y-76970033D02*
G01*
X101049999Y-76975000D01*
X100774999Y-77250000D01*
X100774999Y-78020964D01*
X100759083Y-77859362D01*
X100724999Y-77747004D01*
X100724999Y-77250000D01*
X100449999Y-76975000D01*
X100074999Y-76969678D01*
X99874999Y-76989376D01*
X99674999Y-76969678D01*
X99299999Y-76975000D01*
X99024999Y-77250000D01*
X99024999Y-77747004D01*
X98999999Y-77829417D01*
X98974999Y-77747004D01*
X98974999Y-77250000D01*
X98699999Y-76975000D01*
X98324999Y-76969678D01*
X98124999Y-76989376D01*
X97924999Y-76969678D01*
X97549999Y-76975000D01*
X97274999Y-77250000D01*
X97274999Y-77747004D01*
X97240915Y-77859362D01*
X97224999Y-78020964D01*
X97224999Y-77250000D01*
X96949999Y-76975000D01*
X96574999Y-76969678D01*
X96359361Y-76990916D01*
X96152011Y-77053816D01*
X95960915Y-77155958D01*
X95793418Y-77293419D01*
X95655957Y-77460916D01*
X95553815Y-77652012D01*
X95490915Y-77859362D01*
X95469677Y-78075000D01*
X95474999Y-78450000D01*
X95749999Y-78725000D01*
X96520963Y-78725000D01*
X96359361Y-78740916D01*
X96247003Y-78775000D01*
X95749999Y-78775000D01*
X95474999Y-79050000D01*
X95469677Y-79425000D01*
X95489375Y-79625000D01*
X95469677Y-79825000D01*
X95474999Y-80200000D01*
X95749999Y-80475000D01*
X96247003Y-80475000D01*
X96329416Y-80500000D01*
X96247003Y-80525000D01*
X95749999Y-80525000D01*
X95474999Y-80800000D01*
X95469677Y-81175000D01*
X95489375Y-81375000D01*
X95469677Y-81575000D01*
X95474999Y-81950000D01*
X95749999Y-82225000D01*
X96247003Y-82225000D01*
X96359361Y-82259084D01*
X96520963Y-82275000D01*
X95749999Y-82275000D01*
X95474999Y-82550000D01*
X95469677Y-82925000D01*
X95490915Y-83140638D01*
X95553815Y-83347988D01*
X95655957Y-83539084D01*
X95793418Y-83706581D01*
X95960915Y-83844042D01*
X96152011Y-83946184D01*
X96359361Y-84009084D01*
X96574999Y-84030322D01*
X96949999Y-84025000D01*
X97224999Y-83750000D01*
X97224999Y-82979036D01*
X97240915Y-83140638D01*
X97274999Y-83252996D01*
X97274999Y-83750000D01*
X97549999Y-84025000D01*
X97924999Y-84030322D01*
X98124999Y-84010624D01*
X98324999Y-84030322D01*
X98699999Y-84025000D01*
X98974999Y-83750000D01*
X98974999Y-83252996D01*
X98999999Y-83170583D01*
X99024999Y-83252996D01*
X99024999Y-83750000D01*
X99299999Y-84025000D01*
X99674999Y-84030322D01*
X99874999Y-84010624D01*
X100074999Y-84030322D01*
X100449999Y-84025000D01*
X100724999Y-83750000D01*
X100724999Y-83252996D01*
X100759083Y-83140638D01*
X100774999Y-82979036D01*
X100774999Y-83750000D01*
X101049999Y-84025000D01*
X101400000Y-84029967D01*
X101400000Y-84400000D01*
X95100000Y-84400000D01*
X95100000Y-78358020D01*
X95196224Y-78293726D01*
X95293726Y-78196224D01*
X95370332Y-78081574D01*
X95423099Y-77954182D01*
X95450000Y-77818944D01*
X95450000Y-77681056D01*
X95423099Y-77545818D01*
X95370332Y-77418426D01*
X95293726Y-77303776D01*
X95196224Y-77206274D01*
X95100000Y-77141980D01*
X95100000Y-76100000D01*
X101400000Y-76100000D01*
X101400000Y-76970033D01*
X101400000Y-76970033D01*
G37*
X101400000Y-76970033D02*
X101049999Y-76975000D01*
X100774999Y-77250000D01*
X100774999Y-78020964D01*
X100759083Y-77859362D01*
X100724999Y-77747004D01*
X100724999Y-77250000D01*
X100449999Y-76975000D01*
X100074999Y-76969678D01*
X99874999Y-76989376D01*
X99674999Y-76969678D01*
X99299999Y-76975000D01*
X99024999Y-77250000D01*
X99024999Y-77747004D01*
X98999999Y-77829417D01*
X98974999Y-77747004D01*
X98974999Y-77250000D01*
X98699999Y-76975000D01*
X98324999Y-76969678D01*
X98124999Y-76989376D01*
X97924999Y-76969678D01*
X97549999Y-76975000D01*
X97274999Y-77250000D01*
X97274999Y-77747004D01*
X97240915Y-77859362D01*
X97224999Y-78020964D01*
X97224999Y-77250000D01*
X96949999Y-76975000D01*
X96574999Y-76969678D01*
X96359361Y-76990916D01*
X96152011Y-77053816D01*
X95960915Y-77155958D01*
X95793418Y-77293419D01*
X95655957Y-77460916D01*
X95553815Y-77652012D01*
X95490915Y-77859362D01*
X95469677Y-78075000D01*
X95474999Y-78450000D01*
X95749999Y-78725000D01*
X96520963Y-78725000D01*
X96359361Y-78740916D01*
X96247003Y-78775000D01*
X95749999Y-78775000D01*
X95474999Y-79050000D01*
X95469677Y-79425000D01*
X95489375Y-79625000D01*
X95469677Y-79825000D01*
X95474999Y-80200000D01*
X95749999Y-80475000D01*
X96247003Y-80475000D01*
X96329416Y-80500000D01*
X96247003Y-80525000D01*
X95749999Y-80525000D01*
X95474999Y-80800000D01*
X95469677Y-81175000D01*
X95489375Y-81375000D01*
X95469677Y-81575000D01*
X95474999Y-81950000D01*
X95749999Y-82225000D01*
X96247003Y-82225000D01*
X96359361Y-82259084D01*
X96520963Y-82275000D01*
X95749999Y-82275000D01*
X95474999Y-82550000D01*
X95469677Y-82925000D01*
X95490915Y-83140638D01*
X95553815Y-83347988D01*
X95655957Y-83539084D01*
X95793418Y-83706581D01*
X95960915Y-83844042D01*
X96152011Y-83946184D01*
X96359361Y-84009084D01*
X96574999Y-84030322D01*
X96949999Y-84025000D01*
X97224999Y-83750000D01*
X97224999Y-82979036D01*
X97240915Y-83140638D01*
X97274999Y-83252996D01*
X97274999Y-83750000D01*
X97549999Y-84025000D01*
X97924999Y-84030322D01*
X98124999Y-84010624D01*
X98324999Y-84030322D01*
X98699999Y-84025000D01*
X98974999Y-83750000D01*
X98974999Y-83252996D01*
X98999999Y-83170583D01*
X99024999Y-83252996D01*
X99024999Y-83750000D01*
X99299999Y-84025000D01*
X99674999Y-84030322D01*
X99874999Y-84010624D01*
X100074999Y-84030322D01*
X100449999Y-84025000D01*
X100724999Y-83750000D01*
X100724999Y-83252996D01*
X100759083Y-83140638D01*
X100774999Y-82979036D01*
X100774999Y-83750000D01*
X101049999Y-84025000D01*
X101400000Y-84029967D01*
X101400000Y-84400000D01*
X95100000Y-84400000D01*
X95100000Y-78358020D01*
X95196224Y-78293726D01*
X95293726Y-78196224D01*
X95370332Y-78081574D01*
X95423099Y-77954182D01*
X95450000Y-77818944D01*
X95450000Y-77681056D01*
X95423099Y-77545818D01*
X95370332Y-77418426D01*
X95293726Y-77303776D01*
X95196224Y-77206274D01*
X95100000Y-77141980D01*
X95100000Y-76100000D01*
X101400000Y-76100000D01*
X101400000Y-76970033D01*
G36*
X100774999Y-82225000D02*
G01*
X100794999Y-82225000D01*
X100794999Y-82275000D01*
X100774999Y-82275000D01*
X100774999Y-82550000D01*
X100724999Y-82500000D01*
X100724999Y-82275000D01*
X100449999Y-82275000D01*
X100499999Y-82225000D01*
X100724999Y-82225000D01*
X100724999Y-82000000D01*
X100774999Y-81950000D01*
X100774999Y-82225000D01*
X100774999Y-82225000D01*
G37*
X100774999Y-82225000D02*
X100794999Y-82225000D01*
X100794999Y-82275000D01*
X100774999Y-82275000D01*
X100774999Y-82550000D01*
X100724999Y-82500000D01*
X100724999Y-82275000D01*
X100449999Y-82275000D01*
X100499999Y-82225000D01*
X100724999Y-82225000D01*
X100724999Y-82000000D01*
X100774999Y-81950000D01*
X100774999Y-82225000D01*
G36*
X97274999Y-82000000D02*
G01*
X97274999Y-82225000D01*
X97499999Y-82225000D01*
X97549999Y-82275000D01*
X97274999Y-82275000D01*
X97274999Y-82500000D01*
X97224999Y-82550000D01*
X97224999Y-82275000D01*
X96949999Y-82275000D01*
X96999999Y-82225000D01*
X97224999Y-82225000D01*
X97224999Y-81950000D01*
X97274999Y-82000000D01*
X97274999Y-82000000D01*
G37*
X97274999Y-82000000D02*
X97274999Y-82225000D01*
X97499999Y-82225000D01*
X97549999Y-82275000D01*
X97274999Y-82275000D01*
X97274999Y-82500000D01*
X97224999Y-82550000D01*
X97224999Y-82275000D01*
X96949999Y-82275000D01*
X96999999Y-82225000D01*
X97224999Y-82225000D01*
X97224999Y-81950000D01*
X97274999Y-82000000D01*
G36*
X99024999Y-82000000D02*
G01*
X99024999Y-82225000D01*
X99249999Y-82225000D01*
X99299999Y-82275000D01*
X99024999Y-82275000D01*
X99024999Y-82500000D01*
X98999999Y-82525000D01*
X98974999Y-82500000D01*
X98974999Y-82275000D01*
X98699999Y-82275000D01*
X98749999Y-82225000D01*
X98974999Y-82225000D01*
X98974999Y-82000000D01*
X98999999Y-81975000D01*
X99024999Y-82000000D01*
X99024999Y-82000000D01*
G37*
X99024999Y-82000000D02*
X99024999Y-82225000D01*
X99249999Y-82225000D01*
X99299999Y-82275000D01*
X99024999Y-82275000D01*
X99024999Y-82500000D01*
X98999999Y-82525000D01*
X98974999Y-82500000D01*
X98974999Y-82275000D01*
X98699999Y-82275000D01*
X98749999Y-82225000D01*
X98974999Y-82225000D01*
X98974999Y-82000000D01*
X98999999Y-81975000D01*
X99024999Y-82000000D01*
G36*
X97239375Y-81375000D02*
G01*
X97224999Y-81520964D01*
X97224999Y-81229036D01*
X97239375Y-81375000D01*
X97239375Y-81375000D01*
G37*
X97239375Y-81375000D02*
X97224999Y-81520964D01*
X97224999Y-81229036D01*
X97239375Y-81375000D01*
G36*
X100774999Y-81520964D02*
G01*
X100760623Y-81375000D01*
X100774999Y-81229036D01*
X100774999Y-81520964D01*
X100774999Y-81520964D01*
G37*
X100774999Y-81520964D02*
X100760623Y-81375000D01*
X100774999Y-81229036D01*
X100774999Y-81520964D01*
G36*
X97274999Y-80250000D02*
G01*
X97274999Y-80475000D01*
X97499999Y-80475000D01*
X97524999Y-80500000D01*
X97499999Y-80525000D01*
X97274999Y-80525000D01*
X97274999Y-80750000D01*
X97224999Y-80800000D01*
X97224999Y-80525000D01*
X96999999Y-80525000D01*
X96974999Y-80500000D01*
X96999999Y-80475000D01*
X97224999Y-80475000D01*
X97224999Y-80200000D01*
X97274999Y-80250000D01*
X97274999Y-80250000D01*
G37*
X97274999Y-80250000D02*
X97274999Y-80475000D01*
X97499999Y-80475000D01*
X97524999Y-80500000D01*
X97499999Y-80525000D01*
X97274999Y-80525000D01*
X97274999Y-80750000D01*
X97224999Y-80800000D01*
X97224999Y-80525000D01*
X96999999Y-80525000D01*
X96974999Y-80500000D01*
X96999999Y-80475000D01*
X97224999Y-80475000D01*
X97224999Y-80200000D01*
X97274999Y-80250000D01*
G36*
X100774999Y-80475000D02*
G01*
X100794999Y-80475000D01*
X100794999Y-80525000D01*
X100774999Y-80525000D01*
X100774999Y-80800000D01*
X100724999Y-80750000D01*
X100724999Y-80525000D01*
X100499999Y-80525000D01*
X100474999Y-80500000D01*
X100499999Y-80475000D01*
X100724999Y-80475000D01*
X100724999Y-80250000D01*
X100774999Y-80200000D01*
X100774999Y-80475000D01*
X100774999Y-80475000D01*
G37*
X100774999Y-80475000D02*
X100794999Y-80475000D01*
X100794999Y-80525000D01*
X100774999Y-80525000D01*
X100774999Y-80800000D01*
X100724999Y-80750000D01*
X100724999Y-80525000D01*
X100499999Y-80525000D01*
X100474999Y-80500000D01*
X100499999Y-80475000D01*
X100724999Y-80475000D01*
X100724999Y-80250000D01*
X100774999Y-80200000D01*
X100774999Y-80475000D01*
G36*
X99024999Y-80250000D02*
G01*
X99024999Y-80475000D01*
X99249999Y-80475000D01*
X99274999Y-80500000D01*
X99249999Y-80525000D01*
X99024999Y-80525000D01*
X99024999Y-80750000D01*
X98999999Y-80775000D01*
X98974999Y-80750000D01*
X98974999Y-80525000D01*
X98749999Y-80525000D01*
X98724999Y-80500000D01*
X98749999Y-80475000D01*
X98974999Y-80475000D01*
X98974999Y-80250000D01*
X98999999Y-80225000D01*
X99024999Y-80250000D01*
X99024999Y-80250000D01*
G37*
X99024999Y-80250000D02*
X99024999Y-80475000D01*
X99249999Y-80475000D01*
X99274999Y-80500000D01*
X99249999Y-80525000D01*
X99024999Y-80525000D01*
X99024999Y-80750000D01*
X98999999Y-80775000D01*
X98974999Y-80750000D01*
X98974999Y-80525000D01*
X98749999Y-80525000D01*
X98724999Y-80500000D01*
X98749999Y-80475000D01*
X98974999Y-80475000D01*
X98974999Y-80250000D01*
X98999999Y-80225000D01*
X99024999Y-80250000D01*
G36*
X100774999Y-78725000D02*
G01*
X100794999Y-78725000D01*
X100794999Y-78775000D01*
X100774999Y-78775000D01*
X100774999Y-79050000D01*
X100724999Y-79000000D01*
X100724999Y-78775000D01*
X100499999Y-78775000D01*
X100449999Y-78725000D01*
X100724999Y-78725000D01*
X100724999Y-78500000D01*
X100774999Y-78450000D01*
X100774999Y-78725000D01*
X100774999Y-78725000D01*
G37*
X100774999Y-78725000D02*
X100794999Y-78725000D01*
X100794999Y-78775000D01*
X100774999Y-78775000D01*
X100774999Y-79050000D01*
X100724999Y-79000000D01*
X100724999Y-78775000D01*
X100499999Y-78775000D01*
X100449999Y-78725000D01*
X100724999Y-78725000D01*
X100724999Y-78500000D01*
X100774999Y-78450000D01*
X100774999Y-78725000D01*
G36*
X97274999Y-78500000D02*
G01*
X97274999Y-78725000D01*
X97549999Y-78725000D01*
X97499999Y-78775000D01*
X97274999Y-78775000D01*
X97274999Y-79000000D01*
X97224999Y-79050000D01*
X97224999Y-78775000D01*
X96999999Y-78775000D01*
X96949999Y-78725000D01*
X97224999Y-78725000D01*
X97224999Y-78450000D01*
X97274999Y-78500000D01*
X97274999Y-78500000D01*
G37*
X97274999Y-78500000D02*
X97274999Y-78725000D01*
X97549999Y-78725000D01*
X97499999Y-78775000D01*
X97274999Y-78775000D01*
X97274999Y-79000000D01*
X97224999Y-79050000D01*
X97224999Y-78775000D01*
X96999999Y-78775000D01*
X96949999Y-78725000D01*
X97224999Y-78725000D01*
X97224999Y-78450000D01*
X97274999Y-78500000D01*
G36*
X99024999Y-78500000D02*
G01*
X99024999Y-78725000D01*
X99299999Y-78725000D01*
X99249999Y-78775000D01*
X99024999Y-78775000D01*
X99024999Y-79000000D01*
X98999999Y-79025000D01*
X98974999Y-79000000D01*
X98974999Y-78775000D01*
X98749999Y-78775000D01*
X98699999Y-78725000D01*
X98974999Y-78725000D01*
X98974999Y-78500000D01*
X98999999Y-78475000D01*
X99024999Y-78500000D01*
X99024999Y-78500000D01*
G37*
X99024999Y-78500000D02*
X99024999Y-78725000D01*
X99299999Y-78725000D01*
X99249999Y-78775000D01*
X99024999Y-78775000D01*
X99024999Y-79000000D01*
X98999999Y-79025000D01*
X98974999Y-79000000D01*
X98974999Y-78775000D01*
X98749999Y-78775000D01*
X98699999Y-78725000D01*
X98974999Y-78725000D01*
X98974999Y-78500000D01*
X98999999Y-78475000D01*
X99024999Y-78500000D01*
M02*
