G04 #@! TF.GenerationSoftware,KiCad,Pcbnew,(5.1.2-1)-1*
G04 #@! TF.CreationDate,2021-06-04T19:30:22+03:00*
G04 #@! TF.ProjectId,ITC-1,4954432d-312e-46b6-9963-61645f706362,rev?*
G04 #@! TF.SameCoordinates,Original*
G04 #@! TF.FileFunction,Copper,L1,Top*
G04 #@! TF.FilePolarity,Positive*
%FSLAX46Y46*%
G04 Gerber Fmt 4.6, Leading zero omitted, Abs format (unit mm)*
G04 Created by KiCad (PCBNEW (5.1.2-1)-1) date 2021-06-04 19:30:22*
%MOMM*%
%LPD*%
G04 APERTURE LIST*
%ADD10R,1.250000X0.500000*%
%ADD11R,0.500000X1.250000*%
%ADD12R,1.000000X1.700000*%
%ADD13R,1.700000X1.000000*%
%ADD14C,1.000000*%
%ADD15C,0.100000*%
%ADD16R,1.700000X1.700000*%
%ADD17C,1.700000*%
%ADD18R,2.500000X2.000000*%
%ADD19R,1.000000X0.800000*%
%ADD20R,2.000000X1.500000*%
%ADD21R,2.000000X4.000000*%
%ADD22R,1.100000X0.800000*%
%ADD23C,5.000000*%
%ADD24R,1.500000X2.000000*%
%ADD25R,4.000000X2.000000*%
%ADD26R,0.800000X1.100000*%
%ADD27C,2.000000*%
%ADD28R,2.000000X2.000000*%
%ADD29C,0.800000*%
%ADD30C,0.250000*%
%ADD31C,0.600000*%
%ADD32C,0.200000*%
G04 APERTURE END LIST*
D10*
X88000000Y-66625000D03*
X88000000Y-68375000D03*
X90750000Y-66625000D03*
X90750000Y-68375000D03*
X85750000Y-66625000D03*
X85750000Y-68375000D03*
D11*
X86625000Y-86750000D03*
X88375000Y-86750000D03*
D10*
X85750000Y-71375000D03*
X85750000Y-73125000D03*
X88000000Y-71375000D03*
X88000000Y-73125000D03*
X90250000Y-71375000D03*
X90250000Y-73125000D03*
D12*
X120750000Y-76250000D03*
X120750000Y-73750000D03*
X119250000Y-73750000D03*
X119250000Y-76250000D03*
D13*
X117250000Y-68250000D03*
X119750000Y-68250000D03*
X119750000Y-66750000D03*
X117250000Y-66750000D03*
D14*
X113792893Y-62328427D03*
D15*
G36*
X113545406Y-63283021D02*
G01*
X112838299Y-62575914D01*
X114040380Y-61373833D01*
X114747487Y-62080940D01*
X113545406Y-63283021D01*
X113545406Y-63283021D01*
G37*
D14*
X115560660Y-60560660D03*
D15*
G36*
X115313173Y-61515254D02*
G01*
X114606066Y-60808147D01*
X115808147Y-59606066D01*
X116515254Y-60313173D01*
X115313173Y-61515254D01*
X115313173Y-61515254D01*
G37*
D14*
X114500000Y-59500000D03*
D15*
G36*
X114252513Y-60454594D02*
G01*
X113545406Y-59747487D01*
X114747487Y-58545406D01*
X115454594Y-59252513D01*
X114252513Y-60454594D01*
X114252513Y-60454594D01*
G37*
D14*
X112732233Y-61267767D03*
D15*
G36*
X112484746Y-62222361D02*
G01*
X111777639Y-61515254D01*
X112979720Y-60313173D01*
X113686827Y-61020280D01*
X112484746Y-62222361D01*
X112484746Y-62222361D01*
G37*
D14*
X107292893Y-58078427D03*
D15*
G36*
X107045406Y-59033021D02*
G01*
X106338299Y-58325914D01*
X107540380Y-57123833D01*
X108247487Y-57830940D01*
X107045406Y-59033021D01*
X107045406Y-59033021D01*
G37*
D14*
X109060660Y-56310660D03*
D15*
G36*
X108813173Y-57265254D02*
G01*
X108106066Y-56558147D01*
X109308147Y-55356066D01*
X110015254Y-56063173D01*
X108813173Y-57265254D01*
X108813173Y-57265254D01*
G37*
D14*
X108000000Y-55250000D03*
D15*
G36*
X107752513Y-56204594D02*
G01*
X107045406Y-55497487D01*
X108247487Y-54295406D01*
X108954594Y-55002513D01*
X107752513Y-56204594D01*
X107752513Y-56204594D01*
G37*
D14*
X106232233Y-57017767D03*
D15*
G36*
X105984746Y-57972361D02*
G01*
X105277639Y-57265254D01*
X106479720Y-56063173D01*
X107186827Y-56770280D01*
X105984746Y-57972361D01*
X105984746Y-57972361D01*
G37*
D12*
X100750000Y-56250000D03*
X100750000Y-53750000D03*
X99250000Y-53750000D03*
X99250000Y-56250000D03*
X93250000Y-57750000D03*
X93250000Y-55250000D03*
X91750000Y-55250000D03*
X91750000Y-57750000D03*
D14*
X87328427Y-61207107D03*
D15*
G36*
X88283021Y-61454594D02*
G01*
X87575914Y-62161701D01*
X86373833Y-60959620D01*
X87080940Y-60252513D01*
X88283021Y-61454594D01*
X88283021Y-61454594D01*
G37*
D14*
X85560660Y-59439340D03*
D15*
G36*
X86515254Y-59686827D02*
G01*
X85808147Y-60393934D01*
X84606066Y-59191853D01*
X85313173Y-58484746D01*
X86515254Y-59686827D01*
X86515254Y-59686827D01*
G37*
D14*
X84500000Y-60500000D03*
D15*
G36*
X85454594Y-60747487D02*
G01*
X84747487Y-61454594D01*
X83545406Y-60252513D01*
X84252513Y-59545406D01*
X85454594Y-60747487D01*
X85454594Y-60747487D01*
G37*
D14*
X86267767Y-62267767D03*
D15*
G36*
X87222361Y-62515254D02*
G01*
X86515254Y-63222361D01*
X85313173Y-62020280D01*
X86020280Y-61313173D01*
X87222361Y-62515254D01*
X87222361Y-62515254D01*
G37*
D12*
X82250000Y-68500000D03*
X82250000Y-66000000D03*
X80750000Y-66000000D03*
X80750000Y-68500000D03*
D13*
X81250000Y-74250000D03*
X78750000Y-74250000D03*
X78750000Y-75750000D03*
X81250000Y-75750000D03*
D10*
X101000000Y-83125000D03*
X101000000Y-81375000D03*
X98750000Y-83125000D03*
X98750000Y-81375000D03*
X106500000Y-62875000D03*
X106500000Y-61125000D03*
D11*
X103375000Y-62000000D03*
X101625000Y-62000000D03*
D16*
X117040000Y-72920000D03*
X117040000Y-75460000D03*
X117040000Y-78000000D03*
X114500000Y-72920000D03*
X114500000Y-75460000D03*
D17*
X114500000Y-78000000D03*
D18*
X110500000Y-74500000D03*
X110500000Y-79750000D03*
D11*
X93375000Y-86750000D03*
X95125000Y-86750000D03*
D16*
X80710000Y-83080000D03*
X80710000Y-80540000D03*
X80710000Y-78000000D03*
X83250000Y-83080000D03*
X83250000Y-80540000D03*
D17*
X83250000Y-78000000D03*
D11*
X114000000Y-87250000D03*
X115750000Y-87250000D03*
D19*
X92500000Y-83500000D03*
X95000000Y-82500000D03*
X95000000Y-84500000D03*
D20*
X111150000Y-82750000D03*
X111150000Y-87250000D03*
X111150000Y-85000000D03*
D21*
X104900000Y-85000000D03*
D22*
X110850000Y-60500000D03*
X108650000Y-61450000D03*
X108650000Y-59550000D03*
D23*
X118750000Y-82500000D03*
D11*
X104125000Y-68000000D03*
X102375000Y-68000000D03*
X95875000Y-68000000D03*
X97625000Y-68000000D03*
X100625000Y-86500000D03*
X98875000Y-86500000D03*
D10*
X112000000Y-70125000D03*
X112000000Y-68375000D03*
D24*
X102250000Y-78150000D03*
X97750000Y-78150000D03*
X100000000Y-78150000D03*
D25*
X100000000Y-71900000D03*
D26*
X102450000Y-57800000D03*
X103400000Y-60000000D03*
X101500000Y-60000000D03*
D23*
X97000000Y-59250000D03*
D10*
X115000000Y-80125000D03*
X115000000Y-81875000D03*
D27*
X85750000Y-76250000D03*
X120250000Y-78750000D03*
D10*
X115000000Y-85375000D03*
X115000000Y-83625000D03*
D28*
X94000000Y-80000000D03*
X94000000Y-70000000D03*
X106000000Y-80000000D03*
X106000000Y-70000000D03*
D29*
X82750000Y-74500000D03*
X83000000Y-64000000D03*
X102250000Y-55000000D03*
X114750000Y-63500000D03*
X111787347Y-77750000D03*
X110000000Y-71490000D03*
X100750000Y-84500000D03*
X97250000Y-76500000D03*
X106000000Y-80000000D03*
X104750000Y-60000000D03*
X86750000Y-69500000D03*
X110500000Y-58250000D03*
X90500000Y-65250000D03*
X92250000Y-60750000D03*
X100250000Y-60000000D03*
X93250000Y-68250000D03*
X85250000Y-78750000D03*
X97250000Y-84500000D03*
X99000000Y-84500000D03*
X99000000Y-76500000D03*
X114500000Y-67250000D03*
X100750000Y-76500000D03*
X94000000Y-80000000D03*
X112250000Y-63000000D03*
X85500000Y-74500000D03*
X113000000Y-83462514D03*
X112750000Y-82500000D03*
X111956183Y-81543817D03*
X99500000Y-68000000D03*
X100750000Y-68000000D03*
X104500000Y-62000000D03*
X89750000Y-86750000D03*
X110750000Y-67750000D03*
X96000000Y-86750000D03*
X97750000Y-87000000D03*
X106500000Y-64000000D03*
X112750000Y-84750000D03*
X101500000Y-86500000D03*
X89750000Y-85500000D03*
X106500000Y-78250000D03*
X106475000Y-77000000D03*
X111250000Y-74500000D03*
X85500000Y-88500000D03*
X110250000Y-74500000D03*
X83250000Y-61250000D03*
X97750000Y-53500000D03*
X113250000Y-57750000D03*
X79250000Y-68750000D03*
X118750000Y-64500000D03*
X106000000Y-54000000D03*
X78500000Y-77250000D03*
X89750000Y-56000000D03*
X121500000Y-71750000D03*
X78500000Y-72750000D03*
X117000000Y-61500000D03*
X102250000Y-53500000D03*
X86250000Y-58250000D03*
X82000000Y-63750000D03*
X94750000Y-54250000D03*
X110750000Y-56500000D03*
X120750000Y-69750000D03*
X122000000Y-78000000D03*
X112773529Y-80544118D03*
X106000000Y-87749980D03*
X89762653Y-77737347D03*
X80750000Y-70250000D03*
X94500000Y-55500000D03*
X109750000Y-57250000D03*
X117750000Y-70275000D03*
X119250000Y-71000000D03*
X85250000Y-83830000D03*
X85500000Y-81000000D03*
X88750000Y-77750000D03*
D30*
X82500000Y-74250000D02*
X82750000Y-74500000D01*
X81250000Y-74250000D02*
X82500000Y-74250000D01*
X82750000Y-75500000D02*
X82500000Y-75750000D01*
X82750000Y-74500000D02*
X82750000Y-75500000D01*
X81250000Y-75750000D02*
X82500000Y-75750000D01*
X106000000Y-68750000D02*
X106000000Y-70000000D01*
X104125000Y-68000000D02*
X105500000Y-68000000D01*
X106000000Y-68500000D02*
X106000000Y-70000000D01*
X105500000Y-68000000D02*
X106000000Y-68500000D01*
X94000000Y-68500000D02*
X94000000Y-70250000D01*
X95875000Y-68000000D02*
X94500000Y-68000000D01*
X94000000Y-70000000D02*
X94000000Y-68500000D01*
X94500000Y-68000000D02*
X94000000Y-68500000D01*
X83500000Y-63500000D02*
X83000000Y-64000000D01*
X87121320Y-60871320D02*
X87545583Y-61295583D01*
X86500000Y-62750000D02*
X86750000Y-62750000D01*
X85871320Y-62121320D02*
X86250000Y-62500000D01*
X85035534Y-63500000D02*
X84750000Y-63500000D01*
X86267767Y-62267767D02*
X85035534Y-63500000D01*
X84750000Y-63500000D02*
X83500000Y-63500000D01*
X88000177Y-61878857D02*
X87328427Y-61207107D01*
X87000000Y-63000000D02*
X87500000Y-63000000D01*
X88000000Y-62500000D02*
X88000000Y-62000000D01*
X87500000Y-63000000D02*
X88000000Y-62500000D01*
X88000000Y-62000000D02*
X88000177Y-61999823D01*
X86267767Y-62267767D02*
X87000000Y-63000000D01*
X88000177Y-61999823D02*
X88000177Y-61878857D01*
X100750000Y-56750000D02*
X101000000Y-56500000D01*
X101000000Y-56500000D02*
X101000000Y-55750000D01*
X99000000Y-56500000D02*
X99250000Y-56750000D01*
X99000000Y-55750000D02*
X99000000Y-56500000D01*
X100750000Y-57350000D02*
X100750000Y-56250000D01*
X100600000Y-57500000D02*
X100750000Y-57350000D01*
X99400000Y-57500000D02*
X100600000Y-57500000D01*
X99250000Y-57350000D02*
X99400000Y-57500000D01*
X99250000Y-56250000D02*
X99250000Y-57350000D01*
X102000000Y-56250000D02*
X100750000Y-56250000D01*
X102250000Y-55000000D02*
X102250000Y-56000000D01*
X102250000Y-56000000D02*
X102000000Y-56250000D01*
X111250000Y-62750000D02*
X112732233Y-61267767D01*
X113121143Y-63000177D02*
X113121143Y-63628857D01*
X113792893Y-62328427D02*
X113121143Y-63000177D01*
X113121143Y-63628857D02*
X113000000Y-63750000D01*
X113000000Y-63750000D02*
X111750000Y-63750000D01*
X111750000Y-63750000D02*
X111250000Y-63250000D01*
X111250000Y-63250000D02*
X111250000Y-62750000D01*
X114500000Y-63750000D02*
X114750000Y-63500000D01*
X113250000Y-63750000D02*
X114500000Y-63750000D01*
X113121143Y-63628857D02*
X113128857Y-63628857D01*
X113128857Y-63628857D02*
X113250000Y-63750000D01*
X113250000Y-63750000D02*
X113000000Y-63750000D01*
X112075001Y-71825001D02*
X112075001Y-77424999D01*
X111737206Y-71490000D02*
X111740000Y-71490000D01*
X110000000Y-71490000D02*
X111737206Y-71490000D01*
X112000000Y-70750000D02*
X112000000Y-71227206D01*
X112000000Y-70125000D02*
X112000000Y-70750000D01*
X111737206Y-71490000D02*
X111863603Y-71363603D01*
X111787347Y-77712653D02*
X112075001Y-77424999D01*
X112000000Y-71227206D02*
X111863603Y-71363603D01*
X112000000Y-70750000D02*
X112000000Y-71230000D01*
X111787347Y-77750000D02*
X111787347Y-77712653D01*
X111740000Y-71490000D02*
X112075001Y-71825001D01*
X101000000Y-84250000D02*
X100750000Y-84500000D01*
X96750000Y-82500000D02*
X97250000Y-83000000D01*
X95000000Y-82500000D02*
X96750000Y-82500000D01*
X97250000Y-83000000D02*
X97250000Y-84500000D01*
X97750000Y-78150000D02*
X97750000Y-77000000D01*
X97750000Y-77000000D02*
X97250000Y-76500000D01*
X101000000Y-83125000D02*
X101000000Y-84250000D01*
X98750000Y-84250000D02*
X99000000Y-84500000D01*
X98750000Y-83125000D02*
X98750000Y-84250000D01*
X100875000Y-84500000D02*
X100750000Y-84500000D01*
X83250000Y-86500000D02*
X83250000Y-83080000D01*
X86625000Y-86750000D02*
X83500000Y-86750000D01*
X83500000Y-86750000D02*
X83250000Y-86500000D01*
X86750000Y-69500000D02*
X86750000Y-66000000D01*
X86750000Y-66000000D02*
X86500000Y-65750000D01*
X86500000Y-65750000D02*
X86000000Y-65750000D01*
X85750000Y-66000000D02*
X85750000Y-66625000D01*
X86000000Y-65750000D02*
X85750000Y-66000000D01*
X88000000Y-66625000D02*
X88000000Y-66000000D01*
X88000000Y-66000000D02*
X87750000Y-65750000D01*
X87000000Y-65750000D02*
X86750000Y-66000000D01*
X87750000Y-65750000D02*
X87000000Y-65750000D01*
X86500000Y-65750000D02*
X87000000Y-65750000D01*
X90750000Y-65500000D02*
X90500000Y-65250000D01*
X90750000Y-66625000D02*
X90750000Y-65500000D01*
X111150000Y-82750000D02*
X111150000Y-83650000D01*
X111150000Y-83650000D02*
X111250000Y-83750000D01*
X112500000Y-82750000D02*
X112750000Y-82500000D01*
X111150000Y-82750000D02*
X112500000Y-82750000D01*
X112750000Y-82500000D02*
X112750000Y-82500000D01*
X113750000Y-83000000D02*
X113250000Y-82500000D01*
X113750000Y-85750000D02*
X113750000Y-83000000D01*
X114000000Y-86000000D02*
X113750000Y-85750000D01*
X114875000Y-86000000D02*
X114000000Y-86000000D01*
X113250000Y-82500000D02*
X112750000Y-82500000D01*
X115000000Y-85875000D02*
X114875000Y-86000000D01*
X115000000Y-85375000D02*
X115000000Y-85875000D01*
X111150000Y-81750000D02*
X111150000Y-82750000D01*
X111356183Y-81543817D02*
X111150000Y-81750000D01*
X111956183Y-81543817D02*
X111356183Y-81543817D01*
X111424999Y-83924999D02*
X111250000Y-83750000D01*
X112575001Y-83924999D02*
X111424999Y-83924999D01*
X113000000Y-83500000D02*
X112575001Y-83924999D01*
X113000000Y-83462514D02*
X113000000Y-83500000D01*
X101000000Y-66500000D02*
X99500000Y-68000000D01*
X101000000Y-62250000D02*
X101000000Y-66500000D01*
X101000000Y-61750000D02*
X101000000Y-62250000D01*
X101250000Y-62000000D02*
X101000000Y-62250000D01*
X101500000Y-62000000D02*
X101250000Y-62000000D01*
X101500000Y-60800000D02*
X101500000Y-60000000D01*
X101000000Y-61750000D02*
X101000000Y-61300000D01*
X101250000Y-62000000D02*
X101000000Y-61750000D01*
X101000000Y-61300000D02*
X101500000Y-60800000D01*
X106500000Y-60500000D02*
X106500000Y-61125000D01*
X106949999Y-60050001D02*
X106500000Y-60500000D01*
X106250000Y-60250000D02*
X106500000Y-60500000D01*
X105750000Y-60250000D02*
X106250000Y-60250000D01*
X105250000Y-60750000D02*
X105750000Y-60250000D01*
X105250000Y-63500000D02*
X105250000Y-60750000D01*
X100750000Y-68000000D02*
X105250000Y-63500000D01*
X107450000Y-59550000D02*
X108650000Y-59550000D01*
X106949999Y-60050001D02*
X107450000Y-59550000D01*
X100000000Y-78150000D02*
X100000000Y-79400000D01*
X112000000Y-68375000D02*
X112000000Y-67875000D01*
X98875000Y-86500000D02*
X98250000Y-86500000D01*
X98250000Y-86500000D02*
X97750000Y-87000000D01*
X100000000Y-79400000D02*
X98950000Y-80450000D01*
X104500000Y-61434315D02*
X104140685Y-61075000D01*
X98900000Y-80500000D02*
X98950000Y-80450000D01*
X103400000Y-60000000D02*
X103400000Y-60800000D01*
X97750000Y-83926998D02*
X97750000Y-80750000D01*
X98000000Y-84823002D02*
X98000000Y-84176998D01*
X104500000Y-62000000D02*
X104500000Y-61434315D01*
X95125000Y-86750000D02*
X96000000Y-86750000D01*
X103375000Y-62000000D02*
X104500000Y-62000000D01*
X104140685Y-61075000D02*
X103675000Y-61075000D01*
X96073002Y-86750000D02*
X98000000Y-84823002D01*
X98600000Y-80500000D02*
X98750000Y-80650000D01*
X96000000Y-86750000D02*
X96073002Y-86750000D01*
X98000000Y-80500000D02*
X98600000Y-80500000D01*
X97750000Y-80750000D02*
X98000000Y-80500000D01*
X98750000Y-80650000D02*
X98750000Y-81250000D01*
X112000000Y-67875000D02*
X111875000Y-67750000D01*
X111875000Y-67750000D02*
X110750000Y-67750000D01*
X103400000Y-60800000D02*
X103675000Y-61075000D01*
X103750000Y-62000000D02*
X103500000Y-62000000D01*
X98600000Y-80500000D02*
X98900000Y-80500000D01*
X98950000Y-80450000D02*
X98750000Y-80650000D01*
X98000000Y-84176998D02*
X97750000Y-83926998D01*
X106500000Y-64000000D02*
X107500000Y-64000000D01*
X107750000Y-63750000D02*
X107750000Y-63000000D01*
X107500000Y-64000000D02*
X107750000Y-63750000D01*
X106500000Y-64000000D02*
X106500000Y-62875000D01*
X107750000Y-63000000D02*
X107750000Y-62250000D01*
X107850000Y-61450000D02*
X108650000Y-61450000D01*
X107750000Y-61550000D02*
X107850000Y-61450000D01*
X107750000Y-62250000D02*
X107750000Y-61550000D01*
X88375000Y-86750000D02*
X89750000Y-86750000D01*
X101500000Y-86750000D02*
X101250000Y-86500000D01*
X98250000Y-85250000D02*
X96750000Y-86750000D01*
X101250000Y-85250000D02*
X98250000Y-85250000D01*
X101500000Y-85500000D02*
X101250000Y-85250000D01*
X96750000Y-86750000D02*
X96750000Y-87250000D01*
X101500000Y-86500000D02*
X101500000Y-86750000D01*
X101250000Y-86500000D02*
X101500000Y-86250000D01*
X96000000Y-88000000D02*
X92250000Y-88000000D01*
X101500000Y-86250000D02*
X101500000Y-86750000D01*
X101500000Y-86500000D02*
X101500000Y-85500000D01*
X100875000Y-86500000D02*
X101250000Y-86500000D01*
X96750000Y-87250000D02*
X96000000Y-88000000D01*
X92250000Y-88000000D02*
X89750000Y-85500000D01*
X105750000Y-73250000D02*
X102500000Y-70000000D01*
X99000000Y-70000000D02*
X102500000Y-70000000D01*
X98750000Y-68250000D02*
X98750000Y-69750000D01*
X98500000Y-68000000D02*
X98750000Y-68250000D01*
X97625000Y-68000000D02*
X98500000Y-68000000D01*
X98750000Y-69750000D02*
X99000000Y-70000000D01*
X105750000Y-77500000D02*
X106500000Y-78250000D01*
X105750000Y-76000000D02*
X105750000Y-77500000D01*
X105750000Y-73250000D02*
X105750000Y-76000000D01*
X105750000Y-76000000D02*
X105750000Y-77250000D01*
X106475000Y-76862347D02*
X106475000Y-73338590D01*
X106475000Y-73338590D02*
X102686401Y-69549991D01*
X101750000Y-68000000D02*
X102375000Y-68000000D01*
X101500000Y-69250000D02*
X101500000Y-68250000D01*
X101500000Y-68250000D02*
X101750000Y-68000000D01*
X102686401Y-69549991D02*
X101799990Y-69549990D01*
X101799990Y-69549990D02*
X101500000Y-69250000D01*
X101575000Y-80075000D02*
X101675000Y-80075000D01*
X101825000Y-79825000D02*
X101700000Y-79950000D01*
X97426998Y-88500000D02*
X97651999Y-88725001D01*
X101875000Y-80125000D02*
X101750000Y-80000000D01*
X101825000Y-79825000D02*
X101825000Y-80075000D01*
X85500000Y-88500000D02*
X97426998Y-88500000D01*
X102000000Y-80250000D02*
X101875000Y-80125000D01*
X101825000Y-80075000D02*
X102000000Y-80250000D01*
X101675000Y-80075000D02*
X101750000Y-80000000D01*
X101848001Y-88725001D02*
X102250000Y-88323002D01*
X101575000Y-80075000D02*
X101825000Y-80075000D01*
X101700000Y-79950000D02*
X101575000Y-80075000D01*
X101000000Y-80650000D02*
X101000000Y-81250000D01*
X102250000Y-80500000D02*
X102000000Y-80250000D01*
X97651999Y-88725001D02*
X101848001Y-88725001D01*
X101575000Y-80075000D02*
X101000000Y-80650000D01*
X101750000Y-80000000D02*
X101700000Y-79950000D01*
X102250000Y-79400000D02*
X101825000Y-79825000D01*
X102250000Y-78150000D02*
X102250000Y-79400000D01*
X102250000Y-88323002D02*
X102250000Y-80500000D01*
X101825000Y-80075000D02*
X101875000Y-80125000D01*
X83250000Y-77750000D02*
X83974989Y-77025011D01*
X83974989Y-77025011D02*
X83974989Y-65411421D01*
X83974989Y-65411421D02*
X84386410Y-65000000D01*
X83250000Y-78000000D02*
X83250000Y-77750000D01*
X87000000Y-65000000D02*
X88500000Y-65000000D01*
X84386410Y-65000000D02*
X87000000Y-65000000D01*
X88500000Y-65000000D02*
X89000000Y-65500000D01*
X89000000Y-65500000D02*
X89000000Y-69750000D01*
X89000000Y-69750000D02*
X88750000Y-70000000D01*
X88000000Y-69750000D02*
X88250000Y-70000000D01*
X88250000Y-70000000D02*
X88000000Y-70000000D01*
X88750000Y-70000000D02*
X88250000Y-70000000D01*
X88000000Y-69750000D02*
X88000000Y-70000000D01*
X88000000Y-68375000D02*
X88000000Y-69750000D01*
X88000000Y-70250000D02*
X88250000Y-70000000D01*
X88000000Y-70250000D02*
X88000000Y-71375000D01*
X88000000Y-70000000D02*
X88000000Y-70250000D01*
X80710000Y-78000000D02*
X81250000Y-78000000D01*
X80710000Y-78000000D02*
X81810000Y-78000000D01*
X81810000Y-78000000D02*
X82000000Y-77810000D01*
X82000000Y-77810000D02*
X82000000Y-77510998D01*
X82000000Y-77510998D02*
X83500000Y-76010998D01*
X83500000Y-76010998D02*
X83500000Y-65250000D01*
X83500000Y-65250000D02*
X84250000Y-64500000D01*
X88000000Y-64500000D02*
X88500000Y-64500000D01*
X84250000Y-64500000D02*
X88000000Y-64500000D01*
X90250000Y-70000000D02*
X90250000Y-71375000D01*
X89500000Y-69250000D02*
X90250000Y-70000000D01*
X89500000Y-65363590D02*
X89500000Y-69250000D01*
X88000000Y-64500000D02*
X88636410Y-64500000D01*
X88636410Y-64500000D02*
X89500000Y-65363590D01*
X90750000Y-69500000D02*
X90250000Y-70000000D01*
X90750000Y-68375000D02*
X90750000Y-69500000D01*
X83250000Y-80540000D02*
X84210000Y-80540000D01*
X84210000Y-80540000D02*
X84500000Y-80250000D01*
X84500000Y-80250000D02*
X84500000Y-76961002D01*
X84500000Y-76961002D02*
X84424999Y-76886001D01*
X84424999Y-70924999D02*
X84424999Y-70325001D01*
X84424999Y-76886001D02*
X84424999Y-70924999D01*
X84424999Y-70325001D02*
X84750000Y-70000000D01*
X85750000Y-69750000D02*
X85500000Y-70000000D01*
X85750000Y-68375000D02*
X85750000Y-69750000D01*
X84750000Y-70000000D02*
X85500000Y-70000000D01*
X85750000Y-70250000D02*
X85750000Y-69750000D01*
X85750000Y-70250000D02*
X85500000Y-70000000D01*
X85750000Y-70500000D02*
X85750000Y-70250000D01*
X85750000Y-70500000D02*
X85750000Y-71375000D01*
X105386410Y-54000000D02*
X106000000Y-54000000D01*
X102450000Y-57800000D02*
X102450000Y-56936410D01*
X102450000Y-56936410D02*
X105386410Y-54000000D01*
X99000000Y-54250000D02*
X99000000Y-53500000D01*
X84810660Y-61060660D02*
X84386397Y-60636397D01*
X84386397Y-60636397D02*
X84250000Y-60500000D01*
X79250000Y-68500000D02*
X79250000Y-68750000D01*
X78750000Y-77000000D02*
X78500000Y-77250000D01*
X78750000Y-75750000D02*
X78750000Y-77000000D01*
X79250000Y-68184315D02*
X79250000Y-68750000D01*
X79250000Y-66750000D02*
X79250000Y-68184315D01*
X80000000Y-66000000D02*
X79250000Y-66750000D01*
X80750000Y-66000000D02*
X80000000Y-66000000D01*
X84500000Y-60500000D02*
X83750000Y-61250000D01*
X83750000Y-61250000D02*
X83250000Y-61250000D01*
X89750000Y-56000000D02*
X90500000Y-55250000D01*
X90500000Y-55250000D02*
X91750000Y-55250000D01*
X98000000Y-53750000D02*
X97750000Y-53500000D01*
X99250000Y-53750000D02*
X98000000Y-53750000D01*
X106750000Y-54000000D02*
X106000000Y-54000000D01*
X108000000Y-55250000D02*
X106750000Y-54000000D01*
X113250000Y-58250000D02*
X113250000Y-57750000D01*
X114500000Y-59500000D02*
X113250000Y-58250000D01*
X119750000Y-65500000D02*
X118750000Y-64500000D01*
X119750000Y-66750000D02*
X119750000Y-65500000D01*
X120934315Y-71750000D02*
X121500000Y-71750000D01*
X120150000Y-71750000D02*
X120934315Y-71750000D01*
X119250000Y-72650000D02*
X120150000Y-71750000D01*
X119250000Y-73750000D02*
X119250000Y-72650000D01*
X117000000Y-61250000D02*
X117000000Y-61500000D01*
X101000000Y-53500000D02*
X101000000Y-54250000D01*
X86060660Y-59810660D02*
X85636397Y-59386397D01*
X85636397Y-59386397D02*
X85500000Y-59250000D01*
X78750000Y-73000000D02*
X78500000Y-72750000D01*
X78750000Y-74250000D02*
X78750000Y-73000000D01*
X82250000Y-66000000D02*
X82250000Y-64750000D01*
X82000000Y-64500000D02*
X82000000Y-63750000D01*
X82250000Y-64750000D02*
X82000000Y-64500000D01*
X85560660Y-59439340D02*
X86250000Y-58750000D01*
X86250000Y-58750000D02*
X86250000Y-58250000D01*
X94500000Y-54000000D02*
X94750000Y-54250000D01*
X93400000Y-54000000D02*
X94500000Y-54000000D01*
X93250000Y-55250000D02*
X93250000Y-54150000D01*
X93250000Y-54150000D02*
X93400000Y-54000000D01*
X102000000Y-53750000D02*
X102250000Y-53500000D01*
X100750000Y-53750000D02*
X102000000Y-53750000D01*
X110750000Y-55934315D02*
X110750000Y-56500000D01*
X110454595Y-55638910D02*
X110750000Y-55934315D01*
X109732410Y-55638910D02*
X110454595Y-55638910D01*
X109060660Y-56310660D02*
X109732410Y-55638910D01*
X111650000Y-60500000D02*
X112000000Y-60150000D01*
X110850000Y-60500000D02*
X111650000Y-60500000D01*
X112000000Y-57750000D02*
X111500000Y-57250000D01*
X112000000Y-60150000D02*
X112000000Y-57750000D01*
X111500000Y-57250000D02*
X110750000Y-56500000D01*
X116500000Y-61500000D02*
X117000000Y-61500000D01*
X115560660Y-60560660D02*
X116500000Y-61500000D01*
X119750000Y-68250000D02*
X119750000Y-69000000D01*
X120500000Y-69750000D02*
X120750000Y-69750000D01*
X119750000Y-69000000D02*
X120500000Y-69750000D01*
X120750000Y-73750000D02*
X121750000Y-73750000D01*
X122000000Y-74000000D02*
X122000000Y-78000000D01*
X121750000Y-73750000D02*
X122000000Y-74000000D01*
D31*
X109000000Y-85000000D02*
X108250000Y-84250000D01*
X112750000Y-72620000D02*
X113050000Y-72920000D01*
X112750000Y-73220000D02*
X112750000Y-73750000D01*
X117040000Y-72920000D02*
X117040000Y-71790000D01*
X108650000Y-79750000D02*
X110500000Y-79750000D01*
X113050000Y-72920000D02*
X112750000Y-73220000D01*
X112750000Y-71750000D02*
X113000000Y-71500000D01*
X107500000Y-85000000D02*
X108250000Y-84250000D01*
X113050000Y-72920000D02*
X112920000Y-72920000D01*
X112350000Y-79750000D02*
X110500000Y-79750000D01*
X109000000Y-85000000D02*
X111150000Y-85000000D01*
X112750000Y-71750000D02*
X112750000Y-72620000D01*
X114500000Y-72920000D02*
X113050000Y-72920000D01*
X112750000Y-73750000D02*
X112750000Y-79350000D01*
X108250000Y-80150000D02*
X108650000Y-79750000D01*
X112750000Y-72750000D02*
X112750000Y-73750000D01*
X113000000Y-71500000D02*
X116750000Y-71500000D01*
X112750000Y-79350000D02*
X112350000Y-79750000D01*
X108250000Y-85000000D02*
X109000000Y-85000000D01*
X107500000Y-85000000D02*
X108250000Y-85000000D01*
X104900000Y-85000000D02*
X107500000Y-85000000D01*
X117040000Y-71790000D02*
X116750000Y-71500000D01*
X112920000Y-72920000D02*
X112750000Y-72750000D01*
X112750000Y-72750000D02*
X112750000Y-71750000D01*
X108250000Y-85000000D02*
X108250000Y-84250000D01*
X108250000Y-84250000D02*
X108250000Y-80150000D01*
D30*
X115000000Y-83000000D02*
X115000000Y-82750000D01*
X115000000Y-83000000D02*
X114750000Y-82750000D01*
X115000000Y-83625000D02*
X115000000Y-83000000D01*
X115000000Y-82750000D02*
X115000000Y-82500000D01*
X115000000Y-82500000D02*
X115000000Y-82000000D01*
X115000000Y-82500000D02*
X114750000Y-82750000D01*
X114750000Y-82750000D02*
X115000000Y-82750000D01*
X113544118Y-80544118D02*
X112773529Y-80544118D01*
X113750000Y-80750000D02*
X113544118Y-80544118D01*
X113750000Y-82250000D02*
X113750000Y-80750000D01*
X114250000Y-82750000D02*
X113750000Y-82250000D01*
X114750000Y-82750000D02*
X114250000Y-82750000D01*
X106750020Y-88500000D02*
X106000000Y-87749980D01*
X116500000Y-88250000D02*
X116250000Y-88500000D01*
X115750000Y-87250000D02*
X116250000Y-87250000D01*
X116500000Y-87500000D02*
X116500000Y-88250000D01*
X116250000Y-87250000D02*
X116500000Y-87500000D01*
X116250000Y-88500000D02*
X106750020Y-88500000D01*
X114000000Y-87250000D02*
X113375000Y-87250000D01*
X113375000Y-87250000D02*
X111250000Y-87250000D01*
X92250000Y-85250000D02*
X91750000Y-85250000D01*
X92750000Y-85250000D02*
X95750000Y-85250000D01*
X92500000Y-85500000D02*
X92750000Y-85250000D01*
X92500000Y-85750000D02*
X92500000Y-86250000D01*
X89750000Y-77750000D02*
X89762653Y-77737347D01*
X90750000Y-85250000D02*
X90250000Y-84750000D01*
X92500000Y-86125000D02*
X92500000Y-85750000D01*
X89750000Y-80000000D02*
X89750000Y-77750000D01*
X92750000Y-86750000D02*
X92500000Y-86500000D01*
X92500000Y-86500000D02*
X92500000Y-86125000D01*
X92500000Y-85750000D02*
X92500000Y-85500000D01*
X95750000Y-84500000D02*
X95000000Y-84500000D01*
X96000000Y-84750000D02*
X95750000Y-84500000D01*
X92500000Y-85500000D02*
X92250000Y-85250000D01*
X93375000Y-86750000D02*
X92750000Y-86750000D01*
X95750000Y-85250000D02*
X96000000Y-85000000D01*
X96000000Y-85000000D02*
X96000000Y-84750000D01*
X90250000Y-84750000D02*
X89750000Y-84250000D01*
X91750000Y-85250000D02*
X90750000Y-85250000D01*
X89750000Y-84250000D02*
X89750000Y-80000000D01*
X115250000Y-79500000D02*
X115000000Y-79750000D01*
X117040000Y-79100000D02*
X116640000Y-79500000D01*
X116640000Y-79500000D02*
X115250000Y-79500000D01*
X117040000Y-78000000D02*
X117040000Y-79100000D01*
X115000000Y-79750000D02*
X115000000Y-80250000D01*
X80750000Y-68500000D02*
X80750000Y-70250000D01*
X81750000Y-70250000D02*
X80750000Y-70250000D01*
X82250000Y-68500000D02*
X82250000Y-69750000D01*
X82250000Y-69750000D02*
X81750000Y-70250000D01*
X93250000Y-58850000D02*
X93250000Y-57750000D01*
X93100000Y-59000000D02*
X93250000Y-58850000D01*
X91900000Y-59000000D02*
X93100000Y-59000000D01*
X91750000Y-58850000D02*
X91900000Y-59000000D01*
X91750000Y-57750000D02*
X91750000Y-58850000D01*
X94000000Y-57750000D02*
X93250000Y-57750000D01*
X94500000Y-55500000D02*
X94500000Y-57250000D01*
X94500000Y-57250000D02*
X94000000Y-57750000D01*
X106232233Y-57017767D02*
X105500000Y-57750000D01*
X105500000Y-57750000D02*
X105500000Y-58250000D01*
X105500000Y-58250000D02*
X106000000Y-58750000D01*
X106000000Y-58750000D02*
X106500000Y-58750000D01*
X106621143Y-58750177D02*
X107292893Y-58078427D01*
X106500177Y-58750177D02*
X106621143Y-58750177D01*
X106500000Y-58750000D02*
X106500177Y-58750177D01*
X107292893Y-58078427D02*
X107964466Y-58750000D01*
X107964466Y-58750000D02*
X108250000Y-58750000D01*
X108250000Y-58750000D02*
X108750000Y-58250000D01*
X108750000Y-58250000D02*
X109750000Y-57250000D01*
X116150000Y-66750000D02*
X117250000Y-66750000D01*
X116000000Y-66900000D02*
X116150000Y-66750000D01*
X116000000Y-68100000D02*
X116000000Y-66900000D01*
X116150000Y-68250000D02*
X116000000Y-68100000D01*
X116150000Y-68250000D02*
X116000000Y-68400000D01*
X117250000Y-68250000D02*
X116150000Y-68250000D01*
X116000000Y-68400000D02*
X116000000Y-68100000D01*
X116000000Y-68750000D02*
X116000000Y-69250000D01*
X116000000Y-68400000D02*
X116000000Y-68750000D01*
X117025000Y-70275000D02*
X117750000Y-70275000D01*
X117000000Y-70250000D02*
X117025000Y-70275000D01*
X116000000Y-69250000D02*
X117000000Y-70250000D01*
X119250000Y-77350000D02*
X119250000Y-76250000D01*
X119324999Y-77424999D02*
X119250000Y-77350000D01*
X120675001Y-77424999D02*
X119324999Y-77424999D01*
X120750000Y-77350000D02*
X120675001Y-77424999D01*
X120750000Y-76250000D02*
X120750000Y-77350000D01*
X118850001Y-71399999D02*
X119250000Y-71000000D01*
X118424999Y-71825001D02*
X118850001Y-71399999D01*
X118424999Y-77424999D02*
X118424999Y-71825001D01*
X119324999Y-77424999D02*
X118424999Y-77424999D01*
X85750000Y-73625000D02*
X87500000Y-75375000D01*
X85750000Y-73125000D02*
X85750000Y-73625000D01*
X87500000Y-77926998D02*
X84750000Y-80676998D01*
X87500000Y-76750000D02*
X87500000Y-77926998D01*
X87500000Y-76750000D02*
X87500000Y-77250000D01*
X87500000Y-75375000D02*
X87500000Y-76750000D01*
X85250000Y-82250000D02*
X84750000Y-81750000D01*
X85250000Y-83830000D02*
X85250000Y-82250000D01*
X84750000Y-80676998D02*
X84750000Y-81750000D01*
X88000000Y-78500000D02*
X85500000Y-81000000D01*
X88000000Y-76500000D02*
X88000000Y-78500000D01*
X88000000Y-73125000D02*
X88000000Y-76500000D01*
X90250000Y-73625000D02*
X90250000Y-73125000D01*
X88750000Y-75125000D02*
X90250000Y-73625000D01*
X88750000Y-77750000D02*
X88750000Y-75125000D01*
D32*
G36*
X105025000Y-73550305D02*
G01*
X105025001Y-75964384D01*
X105025000Y-75964394D01*
X105025001Y-77464393D01*
X105021494Y-77500000D01*
X105035492Y-77642124D01*
X105076947Y-77778787D01*
X105144269Y-77904736D01*
X105212170Y-77987474D01*
X105212173Y-77987477D01*
X105234869Y-78015132D01*
X105262523Y-78037827D01*
X105500000Y-78275304D01*
X105500000Y-78348491D01*
X105509668Y-78397097D01*
X105000000Y-78397097D01*
X104882379Y-78408682D01*
X104769279Y-78442990D01*
X104665045Y-78498704D01*
X104573683Y-78573683D01*
X104498704Y-78665045D01*
X104442990Y-78769279D01*
X104408682Y-78882379D01*
X104397097Y-79000000D01*
X104397097Y-81000000D01*
X104408682Y-81117621D01*
X104442990Y-81230721D01*
X104498704Y-81334955D01*
X104573683Y-81426317D01*
X104665045Y-81501296D01*
X104769279Y-81557010D01*
X104882379Y-81591318D01*
X105000000Y-81602903D01*
X106400000Y-81602903D01*
X106400000Y-82663466D01*
X106326317Y-82573683D01*
X106234955Y-82498704D01*
X106130721Y-82442990D01*
X106017621Y-82408682D01*
X105900000Y-82397097D01*
X105150000Y-82400000D01*
X105000000Y-82550000D01*
X105000000Y-84900000D01*
X105020000Y-84900000D01*
X105020000Y-85100000D01*
X105000000Y-85100000D01*
X105000000Y-87450000D01*
X105033429Y-87483429D01*
X105000000Y-87651489D01*
X105000000Y-87848471D01*
X105038429Y-88041669D01*
X105113811Y-88223658D01*
X105223249Y-88387443D01*
X105362537Y-88526731D01*
X105526322Y-88636169D01*
X105708311Y-88711551D01*
X105901509Y-88749980D01*
X105974695Y-88749980D01*
X106124715Y-88900000D01*
X102698306Y-88900000D01*
X102737476Y-88860830D01*
X102765131Y-88838134D01*
X102855731Y-88727739D01*
X102923053Y-88601790D01*
X102964509Y-88465127D01*
X102975000Y-88358609D01*
X102975000Y-88358600D01*
X102978506Y-88323003D01*
X102975000Y-88287406D01*
X102975000Y-87000000D01*
X103297097Y-87000000D01*
X103308682Y-87117621D01*
X103342990Y-87230721D01*
X103398704Y-87334955D01*
X103473683Y-87426317D01*
X103565045Y-87501296D01*
X103669279Y-87557010D01*
X103782379Y-87591318D01*
X103900000Y-87602903D01*
X104650000Y-87600000D01*
X104800000Y-87450000D01*
X104800000Y-85100000D01*
X103450000Y-85100000D01*
X103300000Y-85250000D01*
X103297097Y-87000000D01*
X102975000Y-87000000D01*
X102975000Y-83000000D01*
X103297097Y-83000000D01*
X103300000Y-84750000D01*
X103450000Y-84900000D01*
X104800000Y-84900000D01*
X104800000Y-82550000D01*
X104650000Y-82400000D01*
X103900000Y-82397097D01*
X103782379Y-82408682D01*
X103669279Y-82442990D01*
X103565045Y-82498704D01*
X103473683Y-82573683D01*
X103398704Y-82665045D01*
X103342990Y-82769279D01*
X103308682Y-82882379D01*
X103297097Y-83000000D01*
X102975000Y-83000000D01*
X102975000Y-80535596D01*
X102978506Y-80499999D01*
X102975000Y-80464402D01*
X102975000Y-80464393D01*
X102964509Y-80357875D01*
X102923053Y-80221212D01*
X102855731Y-80095263D01*
X102850000Y-80088280D01*
X102850000Y-79811720D01*
X102855731Y-79804737D01*
X102883437Y-79752903D01*
X103000000Y-79752903D01*
X103117621Y-79741318D01*
X103230721Y-79707010D01*
X103334955Y-79651296D01*
X103426317Y-79576317D01*
X103501296Y-79484955D01*
X103557010Y-79380721D01*
X103591318Y-79267621D01*
X103602903Y-79150000D01*
X103602903Y-77150000D01*
X103591318Y-77032379D01*
X103557010Y-76919279D01*
X103501296Y-76815045D01*
X103426317Y-76723683D01*
X103350000Y-76661051D01*
X103350000Y-71875304D01*
X105025000Y-73550305D01*
X105025000Y-73550305D01*
G37*
X105025000Y-73550305D02*
X105025001Y-75964384D01*
X105025000Y-75964394D01*
X105025001Y-77464393D01*
X105021494Y-77500000D01*
X105035492Y-77642124D01*
X105076947Y-77778787D01*
X105144269Y-77904736D01*
X105212170Y-77987474D01*
X105212173Y-77987477D01*
X105234869Y-78015132D01*
X105262523Y-78037827D01*
X105500000Y-78275304D01*
X105500000Y-78348491D01*
X105509668Y-78397097D01*
X105000000Y-78397097D01*
X104882379Y-78408682D01*
X104769279Y-78442990D01*
X104665045Y-78498704D01*
X104573683Y-78573683D01*
X104498704Y-78665045D01*
X104442990Y-78769279D01*
X104408682Y-78882379D01*
X104397097Y-79000000D01*
X104397097Y-81000000D01*
X104408682Y-81117621D01*
X104442990Y-81230721D01*
X104498704Y-81334955D01*
X104573683Y-81426317D01*
X104665045Y-81501296D01*
X104769279Y-81557010D01*
X104882379Y-81591318D01*
X105000000Y-81602903D01*
X106400000Y-81602903D01*
X106400000Y-82663466D01*
X106326317Y-82573683D01*
X106234955Y-82498704D01*
X106130721Y-82442990D01*
X106017621Y-82408682D01*
X105900000Y-82397097D01*
X105150000Y-82400000D01*
X105000000Y-82550000D01*
X105000000Y-84900000D01*
X105020000Y-84900000D01*
X105020000Y-85100000D01*
X105000000Y-85100000D01*
X105000000Y-87450000D01*
X105033429Y-87483429D01*
X105000000Y-87651489D01*
X105000000Y-87848471D01*
X105038429Y-88041669D01*
X105113811Y-88223658D01*
X105223249Y-88387443D01*
X105362537Y-88526731D01*
X105526322Y-88636169D01*
X105708311Y-88711551D01*
X105901509Y-88749980D01*
X105974695Y-88749980D01*
X106124715Y-88900000D01*
X102698306Y-88900000D01*
X102737476Y-88860830D01*
X102765131Y-88838134D01*
X102855731Y-88727739D01*
X102923053Y-88601790D01*
X102964509Y-88465127D01*
X102975000Y-88358609D01*
X102975000Y-88358600D01*
X102978506Y-88323003D01*
X102975000Y-88287406D01*
X102975000Y-87000000D01*
X103297097Y-87000000D01*
X103308682Y-87117621D01*
X103342990Y-87230721D01*
X103398704Y-87334955D01*
X103473683Y-87426317D01*
X103565045Y-87501296D01*
X103669279Y-87557010D01*
X103782379Y-87591318D01*
X103900000Y-87602903D01*
X104650000Y-87600000D01*
X104800000Y-87450000D01*
X104800000Y-85100000D01*
X103450000Y-85100000D01*
X103300000Y-85250000D01*
X103297097Y-87000000D01*
X102975000Y-87000000D01*
X102975000Y-83000000D01*
X103297097Y-83000000D01*
X103300000Y-84750000D01*
X103450000Y-84900000D01*
X104800000Y-84900000D01*
X104800000Y-82550000D01*
X104650000Y-82400000D01*
X103900000Y-82397097D01*
X103782379Y-82408682D01*
X103669279Y-82442990D01*
X103565045Y-82498704D01*
X103473683Y-82573683D01*
X103398704Y-82665045D01*
X103342990Y-82769279D01*
X103308682Y-82882379D01*
X103297097Y-83000000D01*
X102975000Y-83000000D01*
X102975000Y-80535596D01*
X102978506Y-80499999D01*
X102975000Y-80464402D01*
X102975000Y-80464393D01*
X102964509Y-80357875D01*
X102923053Y-80221212D01*
X102855731Y-80095263D01*
X102850000Y-80088280D01*
X102850000Y-79811720D01*
X102855731Y-79804737D01*
X102883437Y-79752903D01*
X103000000Y-79752903D01*
X103117621Y-79741318D01*
X103230721Y-79707010D01*
X103334955Y-79651296D01*
X103426317Y-79576317D01*
X103501296Y-79484955D01*
X103557010Y-79380721D01*
X103591318Y-79267621D01*
X103602903Y-79150000D01*
X103602903Y-77150000D01*
X103591318Y-77032379D01*
X103557010Y-76919279D01*
X103501296Y-76815045D01*
X103426317Y-76723683D01*
X103350000Y-76661051D01*
X103350000Y-71875304D01*
X105025000Y-73550305D01*
M02*
