G04 #@! TF.GenerationSoftware,KiCad,Pcbnew,(5.1.2-1)-1*
G04 #@! TF.CreationDate,2021-06-04T19:30:22+03:00*
G04 #@! TF.ProjectId,ITC-1,4954432d-312e-46b6-9963-61645f706362,rev?*
G04 #@! TF.SameCoordinates,Original*
G04 #@! TF.FileFunction,Soldermask,Top*
G04 #@! TF.FilePolarity,Negative*
%FSLAX46Y46*%
G04 Gerber Fmt 4.6, Leading zero omitted, Abs format (unit mm)*
G04 Created by KiCad (PCBNEW (5.1.2-1)-1) date 2021-06-04 19:30:22*
%MOMM*%
%LPD*%
G04 APERTURE LIST*
%ADD10C,0.100000*%
G04 APERTURE END LIST*
D10*
G36*
X112201000Y-88051000D02*
G01*
X110099000Y-88051000D01*
X110099000Y-86449000D01*
X112201000Y-86449000D01*
X112201000Y-88051000D01*
X112201000Y-88051000D01*
G37*
G36*
X116051000Y-87926000D02*
G01*
X115449000Y-87926000D01*
X115449000Y-86574000D01*
X116051000Y-86574000D01*
X116051000Y-87926000D01*
X116051000Y-87926000D01*
G37*
G36*
X114301000Y-87926000D02*
G01*
X113699000Y-87926000D01*
X113699000Y-86574000D01*
X114301000Y-86574000D01*
X114301000Y-87926000D01*
X114301000Y-87926000D01*
G37*
G36*
X86926000Y-87426000D02*
G01*
X86324000Y-87426000D01*
X86324000Y-86074000D01*
X86926000Y-86074000D01*
X86926000Y-87426000D01*
X86926000Y-87426000D01*
G37*
G36*
X88676000Y-87426000D02*
G01*
X88074000Y-87426000D01*
X88074000Y-86074000D01*
X88676000Y-86074000D01*
X88676000Y-87426000D01*
X88676000Y-87426000D01*
G37*
G36*
X93676000Y-87426000D02*
G01*
X93074000Y-87426000D01*
X93074000Y-86074000D01*
X93676000Y-86074000D01*
X93676000Y-87426000D01*
X93676000Y-87426000D01*
G37*
G36*
X95426000Y-87426000D02*
G01*
X94824000Y-87426000D01*
X94824000Y-86074000D01*
X95426000Y-86074000D01*
X95426000Y-87426000D01*
X95426000Y-87426000D01*
G37*
G36*
X100926000Y-87176000D02*
G01*
X100324000Y-87176000D01*
X100324000Y-85824000D01*
X100926000Y-85824000D01*
X100926000Y-87176000D01*
X100926000Y-87176000D01*
G37*
G36*
X99176000Y-87176000D02*
G01*
X98574000Y-87176000D01*
X98574000Y-85824000D01*
X99176000Y-85824000D01*
X99176000Y-87176000D01*
X99176000Y-87176000D01*
G37*
G36*
X105951000Y-87051000D02*
G01*
X103849000Y-87051000D01*
X103849000Y-82949000D01*
X105951000Y-82949000D01*
X105951000Y-87051000D01*
X105951000Y-87051000D01*
G37*
G36*
X112201000Y-85801000D02*
G01*
X110099000Y-85801000D01*
X110099000Y-84199000D01*
X112201000Y-84199000D01*
X112201000Y-85801000D01*
X112201000Y-85801000D01*
G37*
G36*
X115676000Y-85676000D02*
G01*
X114324000Y-85676000D01*
X114324000Y-85074000D01*
X115676000Y-85074000D01*
X115676000Y-85676000D01*
X115676000Y-85676000D01*
G37*
G36*
X119494098Y-80047033D02*
G01*
X119958350Y-80239332D01*
X119958352Y-80239333D01*
X120376168Y-80518509D01*
X120731491Y-80873832D01*
X120865239Y-81074000D01*
X121010668Y-81291650D01*
X121202967Y-81755902D01*
X121301000Y-82248747D01*
X121301000Y-82751253D01*
X121202967Y-83244098D01*
X121075844Y-83551000D01*
X121010667Y-83708352D01*
X120731491Y-84126168D01*
X120376168Y-84481491D01*
X119958352Y-84760667D01*
X119958351Y-84760668D01*
X119958350Y-84760668D01*
X119494098Y-84952967D01*
X119001253Y-85051000D01*
X118498747Y-85051000D01*
X118005902Y-84952967D01*
X117541650Y-84760668D01*
X117541649Y-84760668D01*
X117541648Y-84760667D01*
X117123832Y-84481491D01*
X116768509Y-84126168D01*
X116489333Y-83708352D01*
X116424156Y-83551000D01*
X116297033Y-83244098D01*
X116199000Y-82751253D01*
X116199000Y-82248747D01*
X116297033Y-81755902D01*
X116489332Y-81291650D01*
X116634761Y-81074000D01*
X116768509Y-80873832D01*
X117123832Y-80518509D01*
X117541648Y-80239333D01*
X117541650Y-80239332D01*
X118005902Y-80047033D01*
X118498747Y-79949000D01*
X119001253Y-79949000D01*
X119494098Y-80047033D01*
X119494098Y-80047033D01*
G37*
G36*
X95551000Y-84951000D02*
G01*
X94449000Y-84951000D01*
X94449000Y-84049000D01*
X95551000Y-84049000D01*
X95551000Y-84951000D01*
X95551000Y-84951000D01*
G37*
G36*
X84151000Y-83981000D02*
G01*
X82349000Y-83981000D01*
X82349000Y-82179000D01*
X84151000Y-82179000D01*
X84151000Y-83981000D01*
X84151000Y-83981000D01*
G37*
G36*
X81611000Y-83981000D02*
G01*
X79809000Y-83981000D01*
X79809000Y-82179000D01*
X81611000Y-82179000D01*
X81611000Y-83981000D01*
X81611000Y-83981000D01*
G37*
G36*
X93051000Y-83951000D02*
G01*
X91949000Y-83951000D01*
X91949000Y-83049000D01*
X93051000Y-83049000D01*
X93051000Y-83951000D01*
X93051000Y-83951000D01*
G37*
G36*
X115676000Y-83926000D02*
G01*
X114324000Y-83926000D01*
X114324000Y-83324000D01*
X115676000Y-83324000D01*
X115676000Y-83926000D01*
X115676000Y-83926000D01*
G37*
G36*
X112201000Y-83551000D02*
G01*
X110099000Y-83551000D01*
X110099000Y-81949000D01*
X112201000Y-81949000D01*
X112201000Y-83551000D01*
X112201000Y-83551000D01*
G37*
G36*
X99426000Y-83426000D02*
G01*
X98074000Y-83426000D01*
X98074000Y-82824000D01*
X99426000Y-82824000D01*
X99426000Y-83426000D01*
X99426000Y-83426000D01*
G37*
G36*
X101676000Y-83426000D02*
G01*
X100324000Y-83426000D01*
X100324000Y-82824000D01*
X101676000Y-82824000D01*
X101676000Y-83426000D01*
X101676000Y-83426000D01*
G37*
G36*
X95551000Y-82951000D02*
G01*
X94449000Y-82951000D01*
X94449000Y-82049000D01*
X95551000Y-82049000D01*
X95551000Y-82951000D01*
X95551000Y-82951000D01*
G37*
G36*
X115676000Y-82176000D02*
G01*
X114324000Y-82176000D01*
X114324000Y-81574000D01*
X115676000Y-81574000D01*
X115676000Y-82176000D01*
X115676000Y-82176000D01*
G37*
G36*
X99426000Y-81676000D02*
G01*
X98074000Y-81676000D01*
X98074000Y-81074000D01*
X99426000Y-81074000D01*
X99426000Y-81676000D01*
X99426000Y-81676000D01*
G37*
G36*
X101676000Y-81676000D02*
G01*
X100324000Y-81676000D01*
X100324000Y-81074000D01*
X101676000Y-81074000D01*
X101676000Y-81676000D01*
X101676000Y-81676000D01*
G37*
G36*
X84151000Y-81441000D02*
G01*
X82349000Y-81441000D01*
X82349000Y-79639000D01*
X84151000Y-79639000D01*
X84151000Y-81441000D01*
X84151000Y-81441000D01*
G37*
G36*
X81611000Y-81441000D02*
G01*
X79809000Y-81441000D01*
X79809000Y-79639000D01*
X81611000Y-79639000D01*
X81611000Y-81441000D01*
X81611000Y-81441000D01*
G37*
G36*
X107051000Y-81051000D02*
G01*
X104949000Y-81051000D01*
X104949000Y-78949000D01*
X107051000Y-78949000D01*
X107051000Y-81051000D01*
X107051000Y-81051000D01*
G37*
G36*
X95051000Y-81051000D02*
G01*
X92949000Y-81051000D01*
X92949000Y-78949000D01*
X95051000Y-78949000D01*
X95051000Y-81051000D01*
X95051000Y-81051000D01*
G37*
G36*
X111801000Y-80801000D02*
G01*
X109199000Y-80801000D01*
X109199000Y-78699000D01*
X111801000Y-78699000D01*
X111801000Y-80801000D01*
X111801000Y-80801000D01*
G37*
G36*
X115676000Y-80426000D02*
G01*
X114324000Y-80426000D01*
X114324000Y-79824000D01*
X115676000Y-79824000D01*
X115676000Y-80426000D01*
X115676000Y-80426000D01*
G37*
G36*
X120556564Y-77739389D02*
G01*
X120747833Y-77818615D01*
X120747835Y-77818616D01*
X120919973Y-77933635D01*
X121066365Y-78080027D01*
X121072188Y-78088741D01*
X121181385Y-78252167D01*
X121260611Y-78443436D01*
X121301000Y-78646484D01*
X121301000Y-78853516D01*
X121260611Y-79056564D01*
X121200784Y-79201000D01*
X121181384Y-79247835D01*
X121066365Y-79419973D01*
X120919973Y-79566365D01*
X120747835Y-79681384D01*
X120747834Y-79681385D01*
X120747833Y-79681385D01*
X120556564Y-79760611D01*
X120353516Y-79801000D01*
X120146484Y-79801000D01*
X119943436Y-79760611D01*
X119752167Y-79681385D01*
X119752166Y-79681385D01*
X119752165Y-79681384D01*
X119580027Y-79566365D01*
X119433635Y-79419973D01*
X119318616Y-79247835D01*
X119299216Y-79201000D01*
X119239389Y-79056564D01*
X119199000Y-78853516D01*
X119199000Y-78646484D01*
X119239389Y-78443436D01*
X119318615Y-78252167D01*
X119427813Y-78088741D01*
X119433635Y-78080027D01*
X119580027Y-77933635D01*
X119752165Y-77818616D01*
X119752167Y-77818615D01*
X119943436Y-77739389D01*
X120146484Y-77699000D01*
X120353516Y-77699000D01*
X120556564Y-77739389D01*
X120556564Y-77739389D01*
G37*
G36*
X103051000Y-79201000D02*
G01*
X101449000Y-79201000D01*
X101449000Y-77099000D01*
X103051000Y-77099000D01*
X103051000Y-79201000D01*
X103051000Y-79201000D01*
G37*
G36*
X100801000Y-79201000D02*
G01*
X99199000Y-79201000D01*
X99199000Y-77099000D01*
X100801000Y-77099000D01*
X100801000Y-79201000D01*
X100801000Y-79201000D01*
G37*
G36*
X98551000Y-79201000D02*
G01*
X96949000Y-79201000D01*
X96949000Y-77099000D01*
X98551000Y-77099000D01*
X98551000Y-79201000D01*
X98551000Y-79201000D01*
G37*
G36*
X81611000Y-78901000D02*
G01*
X79809000Y-78901000D01*
X79809000Y-77099000D01*
X81611000Y-77099000D01*
X81611000Y-78901000D01*
X81611000Y-78901000D01*
G37*
G36*
X117941000Y-78901000D02*
G01*
X116139000Y-78901000D01*
X116139000Y-77099000D01*
X117941000Y-77099000D01*
X117941000Y-78901000D01*
X117941000Y-78901000D01*
G37*
G36*
X114613512Y-77103927D02*
G01*
X114762812Y-77133624D01*
X114926784Y-77201544D01*
X115074354Y-77300147D01*
X115199853Y-77425646D01*
X115298456Y-77573216D01*
X115366376Y-77737188D01*
X115401000Y-77911259D01*
X115401000Y-78088741D01*
X115366376Y-78262812D01*
X115298456Y-78426784D01*
X115199853Y-78574354D01*
X115074354Y-78699853D01*
X114926784Y-78798456D01*
X114762812Y-78866376D01*
X114613512Y-78896073D01*
X114588742Y-78901000D01*
X114411258Y-78901000D01*
X114386488Y-78896073D01*
X114237188Y-78866376D01*
X114073216Y-78798456D01*
X113925646Y-78699853D01*
X113800147Y-78574354D01*
X113701544Y-78426784D01*
X113633624Y-78262812D01*
X113599000Y-78088741D01*
X113599000Y-77911259D01*
X113633624Y-77737188D01*
X113701544Y-77573216D01*
X113800147Y-77425646D01*
X113925646Y-77300147D01*
X114073216Y-77201544D01*
X114237188Y-77133624D01*
X114386488Y-77103927D01*
X114411258Y-77099000D01*
X114588742Y-77099000D01*
X114613512Y-77103927D01*
X114613512Y-77103927D01*
G37*
G36*
X83363512Y-77103927D02*
G01*
X83512812Y-77133624D01*
X83676784Y-77201544D01*
X83824354Y-77300147D01*
X83949853Y-77425646D01*
X84048456Y-77573216D01*
X84116376Y-77737188D01*
X84151000Y-77911259D01*
X84151000Y-78088741D01*
X84116376Y-78262812D01*
X84048456Y-78426784D01*
X83949853Y-78574354D01*
X83824354Y-78699853D01*
X83676784Y-78798456D01*
X83512812Y-78866376D01*
X83363512Y-78896073D01*
X83338742Y-78901000D01*
X83161258Y-78901000D01*
X83136488Y-78896073D01*
X82987188Y-78866376D01*
X82823216Y-78798456D01*
X82675646Y-78699853D01*
X82550147Y-78574354D01*
X82451544Y-78426784D01*
X82383624Y-78262812D01*
X82349000Y-78088741D01*
X82349000Y-77911259D01*
X82383624Y-77737188D01*
X82451544Y-77573216D01*
X82550147Y-77425646D01*
X82675646Y-77300147D01*
X82823216Y-77201544D01*
X82987188Y-77133624D01*
X83136488Y-77103927D01*
X83161258Y-77099000D01*
X83338742Y-77099000D01*
X83363512Y-77103927D01*
X83363512Y-77103927D01*
G37*
G36*
X86056564Y-75239389D02*
G01*
X86247833Y-75318615D01*
X86247835Y-75318616D01*
X86419973Y-75433635D01*
X86566365Y-75580027D01*
X86681385Y-75752167D01*
X86760611Y-75943436D01*
X86801000Y-76146484D01*
X86801000Y-76353516D01*
X86760611Y-76556564D01*
X86681385Y-76747833D01*
X86681384Y-76747835D01*
X86566365Y-76919973D01*
X86419973Y-77066365D01*
X86247835Y-77181384D01*
X86247834Y-77181385D01*
X86247833Y-77181385D01*
X86056564Y-77260611D01*
X85853516Y-77301000D01*
X85646484Y-77301000D01*
X85443436Y-77260611D01*
X85252167Y-77181385D01*
X85252166Y-77181385D01*
X85252165Y-77181384D01*
X85080027Y-77066365D01*
X84933635Y-76919973D01*
X84818616Y-76747835D01*
X84818615Y-76747833D01*
X84739389Y-76556564D01*
X84699000Y-76353516D01*
X84699000Y-76146484D01*
X84739389Y-75943436D01*
X84818615Y-75752167D01*
X84933635Y-75580027D01*
X85080027Y-75433635D01*
X85252165Y-75318616D01*
X85252167Y-75318615D01*
X85443436Y-75239389D01*
X85646484Y-75199000D01*
X85853516Y-75199000D01*
X86056564Y-75239389D01*
X86056564Y-75239389D01*
G37*
G36*
X119801000Y-77151000D02*
G01*
X118699000Y-77151000D01*
X118699000Y-75349000D01*
X119801000Y-75349000D01*
X119801000Y-77151000D01*
X119801000Y-77151000D01*
G37*
G36*
X121301000Y-77151000D02*
G01*
X120199000Y-77151000D01*
X120199000Y-75349000D01*
X121301000Y-75349000D01*
X121301000Y-77151000D01*
X121301000Y-77151000D01*
G37*
G36*
X117941000Y-76361000D02*
G01*
X116139000Y-76361000D01*
X116139000Y-74559000D01*
X117941000Y-74559000D01*
X117941000Y-76361000D01*
X117941000Y-76361000D01*
G37*
G36*
X115401000Y-76361000D02*
G01*
X113599000Y-76361000D01*
X113599000Y-74559000D01*
X115401000Y-74559000D01*
X115401000Y-76361000D01*
X115401000Y-76361000D01*
G37*
G36*
X82151000Y-76301000D02*
G01*
X80349000Y-76301000D01*
X80349000Y-75199000D01*
X82151000Y-75199000D01*
X82151000Y-76301000D01*
X82151000Y-76301000D01*
G37*
G36*
X79651000Y-76301000D02*
G01*
X77849000Y-76301000D01*
X77849000Y-75199000D01*
X79651000Y-75199000D01*
X79651000Y-76301000D01*
X79651000Y-76301000D01*
G37*
G36*
X111801000Y-75551000D02*
G01*
X109199000Y-75551000D01*
X109199000Y-73449000D01*
X111801000Y-73449000D01*
X111801000Y-75551000D01*
X111801000Y-75551000D01*
G37*
G36*
X82151000Y-74801000D02*
G01*
X80349000Y-74801000D01*
X80349000Y-73699000D01*
X82151000Y-73699000D01*
X82151000Y-74801000D01*
X82151000Y-74801000D01*
G37*
G36*
X79651000Y-74801000D02*
G01*
X77849000Y-74801000D01*
X77849000Y-73699000D01*
X79651000Y-73699000D01*
X79651000Y-74801000D01*
X79651000Y-74801000D01*
G37*
G36*
X119801000Y-74651000D02*
G01*
X118699000Y-74651000D01*
X118699000Y-72849000D01*
X119801000Y-72849000D01*
X119801000Y-74651000D01*
X119801000Y-74651000D01*
G37*
G36*
X121301000Y-74651000D02*
G01*
X120199000Y-74651000D01*
X120199000Y-72849000D01*
X121301000Y-72849000D01*
X121301000Y-74651000D01*
X121301000Y-74651000D01*
G37*
G36*
X117941000Y-73821000D02*
G01*
X116139000Y-73821000D01*
X116139000Y-72019000D01*
X117941000Y-72019000D01*
X117941000Y-73821000D01*
X117941000Y-73821000D01*
G37*
G36*
X115401000Y-73821000D02*
G01*
X113599000Y-73821000D01*
X113599000Y-72019000D01*
X115401000Y-72019000D01*
X115401000Y-73821000D01*
X115401000Y-73821000D01*
G37*
G36*
X88676000Y-73426000D02*
G01*
X87324000Y-73426000D01*
X87324000Y-72824000D01*
X88676000Y-72824000D01*
X88676000Y-73426000D01*
X88676000Y-73426000D01*
G37*
G36*
X90926000Y-73426000D02*
G01*
X89574000Y-73426000D01*
X89574000Y-72824000D01*
X90926000Y-72824000D01*
X90926000Y-73426000D01*
X90926000Y-73426000D01*
G37*
G36*
X86426000Y-73426000D02*
G01*
X85074000Y-73426000D01*
X85074000Y-72824000D01*
X86426000Y-72824000D01*
X86426000Y-73426000D01*
X86426000Y-73426000D01*
G37*
G36*
X102051000Y-72951000D02*
G01*
X97949000Y-72951000D01*
X97949000Y-70849000D01*
X102051000Y-70849000D01*
X102051000Y-72951000D01*
X102051000Y-72951000D01*
G37*
G36*
X88676000Y-71676000D02*
G01*
X87324000Y-71676000D01*
X87324000Y-71074000D01*
X88676000Y-71074000D01*
X88676000Y-71676000D01*
X88676000Y-71676000D01*
G37*
G36*
X86426000Y-71676000D02*
G01*
X85074000Y-71676000D01*
X85074000Y-71074000D01*
X86426000Y-71074000D01*
X86426000Y-71676000D01*
X86426000Y-71676000D01*
G37*
G36*
X90926000Y-71676000D02*
G01*
X89574000Y-71676000D01*
X89574000Y-71074000D01*
X90926000Y-71074000D01*
X90926000Y-71676000D01*
X90926000Y-71676000D01*
G37*
G36*
X107051000Y-71051000D02*
G01*
X104949000Y-71051000D01*
X104949000Y-68949000D01*
X107051000Y-68949000D01*
X107051000Y-71051000D01*
X107051000Y-71051000D01*
G37*
G36*
X95051000Y-71051000D02*
G01*
X92949000Y-71051000D01*
X92949000Y-68949000D01*
X95051000Y-68949000D01*
X95051000Y-71051000D01*
X95051000Y-71051000D01*
G37*
G36*
X112676000Y-70426000D02*
G01*
X111324000Y-70426000D01*
X111324000Y-69824000D01*
X112676000Y-69824000D01*
X112676000Y-70426000D01*
X112676000Y-70426000D01*
G37*
G36*
X82801000Y-69401000D02*
G01*
X81699000Y-69401000D01*
X81699000Y-67599000D01*
X82801000Y-67599000D01*
X82801000Y-69401000D01*
X82801000Y-69401000D01*
G37*
G36*
X81301000Y-69401000D02*
G01*
X80199000Y-69401000D01*
X80199000Y-67599000D01*
X81301000Y-67599000D01*
X81301000Y-69401000D01*
X81301000Y-69401000D01*
G37*
G36*
X120651000Y-68801000D02*
G01*
X118849000Y-68801000D01*
X118849000Y-67699000D01*
X120651000Y-67699000D01*
X120651000Y-68801000D01*
X120651000Y-68801000D01*
G37*
G36*
X118151000Y-68801000D02*
G01*
X116349000Y-68801000D01*
X116349000Y-67699000D01*
X118151000Y-67699000D01*
X118151000Y-68801000D01*
X118151000Y-68801000D01*
G37*
G36*
X88676000Y-68676000D02*
G01*
X87324000Y-68676000D01*
X87324000Y-68074000D01*
X88676000Y-68074000D01*
X88676000Y-68676000D01*
X88676000Y-68676000D01*
G37*
G36*
X112676000Y-68676000D02*
G01*
X111324000Y-68676000D01*
X111324000Y-68074000D01*
X112676000Y-68074000D01*
X112676000Y-68676000D01*
X112676000Y-68676000D01*
G37*
G36*
X86426000Y-68676000D02*
G01*
X85074000Y-68676000D01*
X85074000Y-68074000D01*
X86426000Y-68074000D01*
X86426000Y-68676000D01*
X86426000Y-68676000D01*
G37*
G36*
X102676000Y-68676000D02*
G01*
X102074000Y-68676000D01*
X102074000Y-67324000D01*
X102676000Y-67324000D01*
X102676000Y-68676000D01*
X102676000Y-68676000D01*
G37*
G36*
X97926000Y-68676000D02*
G01*
X97324000Y-68676000D01*
X97324000Y-67324000D01*
X97926000Y-67324000D01*
X97926000Y-68676000D01*
X97926000Y-68676000D01*
G37*
G36*
X96176000Y-68676000D02*
G01*
X95574000Y-68676000D01*
X95574000Y-67324000D01*
X96176000Y-67324000D01*
X96176000Y-68676000D01*
X96176000Y-68676000D01*
G37*
G36*
X91426000Y-68676000D02*
G01*
X90074000Y-68676000D01*
X90074000Y-68074000D01*
X91426000Y-68074000D01*
X91426000Y-68676000D01*
X91426000Y-68676000D01*
G37*
G36*
X104426000Y-68676000D02*
G01*
X103824000Y-68676000D01*
X103824000Y-67324000D01*
X104426000Y-67324000D01*
X104426000Y-68676000D01*
X104426000Y-68676000D01*
G37*
G36*
X120651000Y-67301000D02*
G01*
X118849000Y-67301000D01*
X118849000Y-66199000D01*
X120651000Y-66199000D01*
X120651000Y-67301000D01*
X120651000Y-67301000D01*
G37*
G36*
X118151000Y-67301000D02*
G01*
X116349000Y-67301000D01*
X116349000Y-66199000D01*
X118151000Y-66199000D01*
X118151000Y-67301000D01*
X118151000Y-67301000D01*
G37*
G36*
X88676000Y-66926000D02*
G01*
X87324000Y-66926000D01*
X87324000Y-66324000D01*
X88676000Y-66324000D01*
X88676000Y-66926000D01*
X88676000Y-66926000D01*
G37*
G36*
X86426000Y-66926000D02*
G01*
X85074000Y-66926000D01*
X85074000Y-66324000D01*
X86426000Y-66324000D01*
X86426000Y-66926000D01*
X86426000Y-66926000D01*
G37*
G36*
X91426000Y-66926000D02*
G01*
X90074000Y-66926000D01*
X90074000Y-66324000D01*
X91426000Y-66324000D01*
X91426000Y-66926000D01*
X91426000Y-66926000D01*
G37*
G36*
X82801000Y-66901000D02*
G01*
X81699000Y-66901000D01*
X81699000Y-65099000D01*
X82801000Y-65099000D01*
X82801000Y-66901000D01*
X82801000Y-66901000D01*
G37*
G36*
X81301000Y-66901000D02*
G01*
X80199000Y-66901000D01*
X80199000Y-65099000D01*
X81301000Y-65099000D01*
X81301000Y-66901000D01*
X81301000Y-66901000D01*
G37*
G36*
X114819612Y-62080940D02*
G01*
X113545406Y-63355146D01*
X112766174Y-62575914D01*
X114040380Y-61301708D01*
X114819612Y-62080940D01*
X114819612Y-62080940D01*
G37*
G36*
X87294486Y-62515254D02*
G01*
X86515254Y-63294486D01*
X85241048Y-62020280D01*
X86020280Y-61241048D01*
X87294486Y-62515254D01*
X87294486Y-62515254D01*
G37*
G36*
X107176000Y-63176000D02*
G01*
X105824000Y-63176000D01*
X105824000Y-62574000D01*
X107176000Y-62574000D01*
X107176000Y-63176000D01*
X107176000Y-63176000D01*
G37*
G36*
X103676000Y-62676000D02*
G01*
X103074000Y-62676000D01*
X103074000Y-61324000D01*
X103676000Y-61324000D01*
X103676000Y-62676000D01*
X103676000Y-62676000D01*
G37*
G36*
X101926000Y-62676000D02*
G01*
X101324000Y-62676000D01*
X101324000Y-61324000D01*
X101926000Y-61324000D01*
X101926000Y-62676000D01*
X101926000Y-62676000D01*
G37*
G36*
X113758952Y-61020280D02*
G01*
X112484746Y-62294486D01*
X111705514Y-61515254D01*
X112979720Y-60241048D01*
X113758952Y-61020280D01*
X113758952Y-61020280D01*
G37*
G36*
X88355146Y-61454594D02*
G01*
X87575914Y-62233826D01*
X86301708Y-60959620D01*
X87080940Y-60180388D01*
X88355146Y-61454594D01*
X88355146Y-61454594D01*
G37*
G36*
X109251000Y-61901000D02*
G01*
X108049000Y-61901000D01*
X108049000Y-60999000D01*
X109251000Y-60999000D01*
X109251000Y-61901000D01*
X109251000Y-61901000D01*
G37*
G36*
X99801000Y-57151000D02*
G01*
X98810433Y-57151000D01*
X98786047Y-57153402D01*
X98762598Y-57160515D01*
X98740987Y-57172066D01*
X98722045Y-57187611D01*
X98706500Y-57206553D01*
X98694949Y-57228164D01*
X98687836Y-57251613D01*
X98685434Y-57275999D01*
X98687836Y-57300385D01*
X98694949Y-57323834D01*
X98706500Y-57345445D01*
X98722040Y-57364381D01*
X98981491Y-57623832D01*
X99119876Y-57830940D01*
X99260668Y-58041650D01*
X99452967Y-58505902D01*
X99551000Y-58998747D01*
X99551000Y-59501253D01*
X99452967Y-59994098D01*
X99345928Y-60252513D01*
X99260667Y-60458352D01*
X98981491Y-60876168D01*
X98626168Y-61231491D01*
X98208352Y-61510667D01*
X98208351Y-61510668D01*
X98208350Y-61510668D01*
X97744098Y-61702967D01*
X97251253Y-61801000D01*
X96748747Y-61801000D01*
X96255902Y-61702967D01*
X95791650Y-61510668D01*
X95791649Y-61510668D01*
X95791648Y-61510667D01*
X95373832Y-61231491D01*
X95018509Y-60876168D01*
X94739333Y-60458352D01*
X94654072Y-60252513D01*
X94547033Y-59994098D01*
X94449000Y-59501253D01*
X94449000Y-58998747D01*
X94547033Y-58505902D01*
X94739332Y-58041650D01*
X94880124Y-57830940D01*
X95018509Y-57623832D01*
X95373832Y-57268509D01*
X95791648Y-56989333D01*
X95791650Y-56989332D01*
X96255902Y-56797033D01*
X96748747Y-56699000D01*
X97251253Y-56699000D01*
X97744098Y-56797033D01*
X98208350Y-56989332D01*
X98208352Y-56989333D01*
X98481831Y-57172066D01*
X98504555Y-57187250D01*
X98526166Y-57198801D01*
X98549615Y-57205914D01*
X98574001Y-57208316D01*
X98598387Y-57205914D01*
X98621836Y-57198801D01*
X98643447Y-57187250D01*
X98662389Y-57171705D01*
X98677934Y-57152763D01*
X98689485Y-57131152D01*
X98696598Y-57107703D01*
X98699000Y-57083317D01*
X98699000Y-55349000D01*
X99801000Y-55349000D01*
X99801000Y-57151000D01*
X99801000Y-57151000D01*
G37*
G36*
X116587379Y-60313173D02*
G01*
X115313173Y-61587379D01*
X114533941Y-60808147D01*
X115808147Y-59533941D01*
X116587379Y-60313173D01*
X116587379Y-60313173D01*
G37*
G36*
X85526719Y-60747487D02*
G01*
X84747487Y-61526719D01*
X83473281Y-60252513D01*
X84252513Y-59473281D01*
X85526719Y-60747487D01*
X85526719Y-60747487D01*
G37*
G36*
X107176000Y-61426000D02*
G01*
X105824000Y-61426000D01*
X105824000Y-60824000D01*
X107176000Y-60824000D01*
X107176000Y-61426000D01*
X107176000Y-61426000D01*
G37*
G36*
X111451000Y-60951000D02*
G01*
X110249000Y-60951000D01*
X110249000Y-60049000D01*
X111451000Y-60049000D01*
X111451000Y-60951000D01*
X111451000Y-60951000D01*
G37*
G36*
X101951000Y-60601000D02*
G01*
X101049000Y-60601000D01*
X101049000Y-59399000D01*
X101951000Y-59399000D01*
X101951000Y-60601000D01*
X101951000Y-60601000D01*
G37*
G36*
X103851000Y-60601000D02*
G01*
X102949000Y-60601000D01*
X102949000Y-59399000D01*
X103851000Y-59399000D01*
X103851000Y-60601000D01*
X103851000Y-60601000D01*
G37*
G36*
X115526719Y-59252513D02*
G01*
X114252513Y-60526719D01*
X113473281Y-59747487D01*
X114747487Y-58473281D01*
X115526719Y-59252513D01*
X115526719Y-59252513D01*
G37*
G36*
X86587379Y-59686827D02*
G01*
X85808147Y-60466059D01*
X84533941Y-59191853D01*
X85313173Y-58412621D01*
X86587379Y-59686827D01*
X86587379Y-59686827D01*
G37*
G36*
X109251000Y-60001000D02*
G01*
X108049000Y-60001000D01*
X108049000Y-59099000D01*
X109251000Y-59099000D01*
X109251000Y-60001000D01*
X109251000Y-60001000D01*
G37*
G36*
X108319612Y-57830940D02*
G01*
X107045406Y-59105146D01*
X106266174Y-58325914D01*
X107540380Y-57051708D01*
X108319612Y-57830940D01*
X108319612Y-57830940D01*
G37*
G36*
X92301000Y-58651000D02*
G01*
X91199000Y-58651000D01*
X91199000Y-56849000D01*
X92301000Y-56849000D01*
X92301000Y-58651000D01*
X92301000Y-58651000D01*
G37*
G36*
X93801000Y-58651000D02*
G01*
X92699000Y-58651000D01*
X92699000Y-56849000D01*
X93801000Y-56849000D01*
X93801000Y-58651000D01*
X93801000Y-58651000D01*
G37*
G36*
X102901000Y-58401000D02*
G01*
X101999000Y-58401000D01*
X101999000Y-57199000D01*
X102901000Y-57199000D01*
X102901000Y-58401000D01*
X102901000Y-58401000D01*
G37*
G36*
X107258952Y-56770280D02*
G01*
X105984746Y-58044486D01*
X105205514Y-57265254D01*
X106479720Y-55991048D01*
X107258952Y-56770280D01*
X107258952Y-56770280D01*
G37*
G36*
X110087379Y-56063173D02*
G01*
X108813173Y-57337379D01*
X108033941Y-56558147D01*
X109308147Y-55283941D01*
X110087379Y-56063173D01*
X110087379Y-56063173D01*
G37*
G36*
X101301000Y-57151000D02*
G01*
X100199000Y-57151000D01*
X100199000Y-55349000D01*
X101301000Y-55349000D01*
X101301000Y-57151000D01*
X101301000Y-57151000D01*
G37*
G36*
X109026719Y-55002513D02*
G01*
X107752513Y-56276719D01*
X106973281Y-55497487D01*
X108247487Y-54223281D01*
X109026719Y-55002513D01*
X109026719Y-55002513D01*
G37*
G36*
X93801000Y-56151000D02*
G01*
X92699000Y-56151000D01*
X92699000Y-54349000D01*
X93801000Y-54349000D01*
X93801000Y-56151000D01*
X93801000Y-56151000D01*
G37*
G36*
X92301000Y-56151000D02*
G01*
X91199000Y-56151000D01*
X91199000Y-54349000D01*
X92301000Y-54349000D01*
X92301000Y-56151000D01*
X92301000Y-56151000D01*
G37*
G36*
X101301000Y-54651000D02*
G01*
X100199000Y-54651000D01*
X100199000Y-52849000D01*
X101301000Y-52849000D01*
X101301000Y-54651000D01*
X101301000Y-54651000D01*
G37*
G36*
X99801000Y-54651000D02*
G01*
X98699000Y-54651000D01*
X98699000Y-52849000D01*
X99801000Y-52849000D01*
X99801000Y-54651000D01*
X99801000Y-54651000D01*
G37*
M02*
